<svg width="80" height="80" viewBox="0 0 80 80" fill="none" xmlns="http://www.w3.org/2000/svg">
<path d="M40 80C32.8 80 26.1333 78.2 20 74.6C13.8667 71 9 66.1333 5.4 60C1.8 53.8667 0 47.2 0 40C0 32.8 1.8 26.1333 5.4 20C9 13.8667 13.8667 9 20 5.4C26.1333 1.8 32.8 0 40 0C47.2 0 53.8667 1.8 60 5.4C66.1333 9 71 13.8667 74.6 20C78.2 26.1333 80 32.8 80 40C80 47.2 78.2 53.8667 74.6 60C71 66.1333 66.1333 71 60 74.6C53.8667 78.2 47.2 80 40 80ZM40 46.4L52.8 59.2L59.2 52.8L46.4 40L59.2 27.2L52.8 20.8L40 33.6L27.2 20.8L20.8 27.2L33.6 40L20.8 52.8L27.2 59.2L40 46.4Z" fill="#B50000"/>
</svg>
