<svg width="140" height="127" viewBox="0 0 140 127" fill="none" xmlns="http://www.w3.org/2000/svg">
<path d="M133.083 67.0832C133.083 83.0471 126.817 97.551 116.61 108.263C113.274 111.77 109.51 114.87 105.409 117.48C105.187 117.619 104.965 117.758 104.743 117.897C102.752 119.13 100.683 120.249 98.5428 121.246C90.8925 124.807 82.3646 126.795 73.3712 126.795C66.0985 126.795 59.128 125.493 52.6817 123.113C50.4614 122.294 48.3045 121.345 46.218 120.279C30.1812 112.074 18.341 96.8319 14.7755 78.6258C14.327 76.342 14.0079 74.012 13.8299 71.6432C13.7177 70.1371 13.6592 68.6161 13.6592 67.0832C13.6592 64.7653 13.7907 62.4767 14.0492 60.2272C14.2052 58.8599 14.4074 57.5073 14.6561 56.1692C19.7815 28.4045 44.1196 7.37115 73.3712 7.37115C84.1851 7.37115 94.3264 10.2446 103.074 15.2702C104.263 15.9527 105.423 16.6764 106.559 17.4368C106.803 17.6001 107.046 17.7659 107.288 17.9341C107.305 17.9439 107.324 17.956 107.341 17.9707C109.213 19.2674 111.007 20.6687 112.715 22.1653C116.357 25.3556 119.605 28.9846 122.384 32.9671C129.127 42.6379 133.083 54.3999 133.083 67.0832Z" fill="url(#paint0_linear_3652_13236)"/>
<path fill-rule="evenodd" clip-rule="evenodd" d="M72.8985 79.5255C65.2541 86.0405 55.3415 89.9728 44.5105 89.9728C20.3266 89.9728 0.72168 70.3679 0.72168 46.184C0.72168 22.0001 20.3266 2.3952 44.5105 2.3952C68.6943 2.3952 88.2993 22.0001 88.2993 46.184C88.2993 55.9381 85.1101 64.9473 79.7175 72.2257L86.3773 79.6222L78.9815 86.2814L72.8985 79.5255Z" fill="#DDA319" fill-opacity="0.156863"/>
<path d="M123.131 110.329C123.131 115.486 118.789 119.829 113.632 119.829C110.918 119.829 108.475 118.743 106.575 116.843L76.1759 83.7301C75.0901 82.6443 75.0901 81.016 76.1759 79.9302L83.2329 72.8732C84.3187 71.7875 85.947 71.7875 87.0328 72.8732L120.146 103.544C122.045 105.172 123.131 107.886 123.131 110.329Z" fill="#B06328"/>
<path d="M119.874 103.272L118.246 101.915C119.603 103.544 120.417 105.715 120.417 107.886C120.417 111.415 116.074 112.772 113.631 110.329L85.1328 81.8302C83.5042 80.2017 81.0614 80.2017 79.4331 81.8302L76.719 84.5443L106.304 116.3C107.932 117.929 110.103 119.286 112.275 119.557C115.26 119.829 118.246 118.743 120.146 116.843C122.046 114.943 123.131 111.958 122.86 108.972C122.86 106.801 121.503 104.901 119.874 103.272Z" fill="#A35425"/>
<path d="M91.9182 84.5444C91.6467 84.5444 91.104 84.5444 90.8325 84.2729L84.047 77.4874C83.5042 76.9446 83.5042 76.1303 84.047 75.5876C84.5897 75.0448 85.404 75.0448 85.9468 75.5876L92.7323 82.373C93.275 82.9158 93.275 83.7301 92.7323 84.2729C92.7325 84.5444 92.1895 84.5444 91.9182 84.5444Z" fill="#C97629"/>
<path d="M82.3491 73.674L76.9755 79.0476L68.915 70.9871L74.2886 65.6135L82.3491 73.674Z" fill="#F0F0F6"/>
<path d="M78.3472 75.0448L79.7042 76.4018L82.4184 73.6877L74.2758 65.5452L68.8474 70.9736L72.9188 75.0448C74.5473 73.4162 76.7187 73.4162 78.3472 75.0448Z" fill="#D8D8EB"/>
<path fill-rule="evenodd" clip-rule="evenodd" d="M3.70703 41.1174C3.70703 18.5899 21.8921 0.404785 44.4197 0.404785C66.9474 0.404785 85.1323 18.5899 85.1323 41.1174C85.1323 63.645 66.9472 81.8301 44.4197 81.8301C21.8921 81.8301 3.70703 63.645 3.70703 41.1174ZM11.8496 41.1176C11.8496 59.0312 26.5061 73.6877 44.4197 73.6877C62.3333 73.6877 76.9898 59.031 76.9898 41.1174C76.9898 23.2038 62.3333 8.54731 44.4197 8.54731C26.5061 8.54731 11.8496 23.204 11.8496 41.1176Z" fill="url(#paint1_linear_3652_13236)"/>
<path d="M44.4197 73.6876C62.4077 73.6876 76.9898 59.1054 76.9898 41.1175C76.9898 23.1295 62.4077 8.54736 44.4197 8.54736C26.4318 8.54736 11.8496 23.1295 11.8496 41.1175C11.8496 59.1054 26.4318 73.6876 44.4197 73.6876Z" fill="url(#paint2_linear_3652_13236)"/>
<path d="M28.4062 44.9173C29.7632 34.6035 37.9057 26.4609 48.2196 25.1039H48.491C53.1052 24.5611 53.3765 18.0469 49.0338 17.2329C46.3197 16.6901 43.6054 16.6901 40.8913 16.9614C30.306 18.5899 21.8919 27.0039 20.5349 37.3178C19.9921 40.0319 20.2634 43.0175 20.8064 45.4603C21.6207 50.0744 28.1347 49.5317 28.6774 44.9175C28.4062 45.1888 28.4062 44.9173 28.4062 44.9173Z" fill="white" fill-opacity="0.494118"/>
<path d="M14.5637 43.8318C14.5637 25.9182 29.2202 11.2616 47.1338 11.2616C55.5478 11.2616 62.8761 14.5187 68.8473 19.4042C62.8761 12.6187 54.1908 8.54755 44.4197 8.54755C26.5061 8.54755 11.8496 23.2041 11.8496 41.1177C11.8496 50.8887 16.1923 59.574 22.7062 65.5452C17.8208 59.574 14.5637 52.2458 14.5637 43.8318Z" fill="#DBDBEB"/>
<path d="M75.8591 35.2368C78.6614 52.9299 66.1842 69.2569 48.4911 72.0592C40.1807 73.3754 31.3934 70.6012 24.7314 66.71C31.6906 72.4779 40.9058 75.1402 50.5566 73.6117C68.2496 70.8094 80.4329 54.0405 77.6306 36.3474C76.1021 26.6967 70.4542 18.7977 63.0863 13.919C68.8458 19.0524 74.5429 26.9264 75.8591 35.2368Z" fill="white" fill-opacity="0.811765"/>
<defs>
<linearGradient id="paint0_linear_3652_13236" x1="13.6592" y1="31.4359" x2="118.68" y2="105.758" gradientUnits="userSpaceOnUse">
<stop stop-color="#1A1A2C"/>
<stop offset="1" stop-color="#131322"/>
</linearGradient>
<linearGradient id="paint1_linear_3652_13236" x1="85.1323" y1="81.83" x2="11.3579" y2="20.656" gradientUnits="userSpaceOnUse">
<stop stop-color="#E8E8F0"/>
<stop offset="1" stop-color="#F7F7FC"/>
</linearGradient>
<linearGradient id="paint2_linear_3652_13236" x1="17.9703" y1="24.7484" x2="76.9898" y2="73.6876" gradientUnits="userSpaceOnUse">
<stop stop-color="#F0E6DD"/>
<stop offset="1" stop-color="#F7EDDF"/>
</linearGradient>
</defs>
</svg>
