<svg width="1440" height="346" viewBox="0 0 1440 346" fill="none" xmlns="http://www.w3.org/2000/svg">
<g opacity="0.2">
<path opacity="0.2" d="M1638.99 97.1191C1587.85 158.721 1522.92 207.413 1449.45 239.249L1445.23 240.963C1291.53 304.682 1128.97 286.261 988.255 251.031C968.925 246.405 949.906 240.963 930.979 235.728C782.819 194.963 603.041 126.01 416.025 126.62C293.833 127.322 192.272 160.642 95.0359 194.664C39.7735 213.994 -16.7891 233.715 -77.1831 249.017V252.941C-15.2818 237.638 42.5924 217.411 98.9594 197.782C195.585 164.059 296.549 130.44 417.337 130.44C602.442 129.738 781.105 198.381 928.471 238.846C947.398 244.277 966.521 249.719 985.839 254.241C1127.36 290.07 1291.03 308.801 1446.54 244.173L1450.87 242.367C1524.55 210.531 1589.74 161.85 1641.21 100.237L1638.99 97.1191Z" fill="#199FD9"/>
<path opacity="0.2" d="M1641.81 100.848C1592.64 158.572 1531.09 204.479 1461.73 235.119L1459.21 236.224C1379.89 269.947 1288.1 285.549 1178.99 278.196C1126.95 273.905 1075.27 265.897 1024.38 254.242C996.505 247.695 968.016 241.16 940.333 233.301C846.319 207.839 768.31 184.183 694.431 166.764C606.837 143.695 516.666 131.786 426.081 131.338C346.07 132.753 266.657 145.352 190.143 168.777C160.757 177.337 131.659 186.795 103.481 196.161C64.0278 209.243 22.952 222.935 -18.3078 234.716C-38.443 240.458 -57.9684 244.784 -76.8839 249.513V253.333C-56.7488 248.903 -36.6251 243.967 -14.7756 237.938C27.0021 226.156 67.7672 212.372 107.221 199.29C135.41 190.028 164.497 180.571 193.779 172.01C269.591 148.838 348.244 136.308 427.496 134.766C517.196 135.319 606.469 147.124 693.223 169.893C766.193 187.301 844.202 210.865 938.216 236.327C965.9 244.278 994.388 250.721 1022.37 257.463C1073.35 269.072 1125.08 277.069 1177.18 281.418C1286.8 289.069 1380.2 273.26 1460.52 239.146L1463.13 238.042C1532.81 207.264 1594.72 161.287 1644.32 103.471L1641.81 100.848Z" fill="#199FD9"/>
<path opacity="0.2" d="M1644.02 104.068C1595.75 159.422 1535.84 203.42 1468.58 232.909C1389.16 267.334 1299.48 281.831 1189.35 274.882C1144.61 271.28 1100.14 264.883 1056.19 255.759C1020.66 248.718 984.516 239.858 949.492 231.103C856.686 207.148 778.378 184.907 703.486 168.293C615.674 146.881 525.63 135.997 435.24 135.882C355.102 137.492 275.516 149.539 198.496 171.71C169.007 179.764 139.713 188.819 111.535 197.679C72.1739 209.955 31.5123 222.945 -10.0582 233.91C-33.415 240.146 -55.5522 245.082 -77.1946 249.408V253.228C-54.4476 248.798 -31.2979 243.161 -6.73299 237.12C35.0446 226.144 75.7062 213.165 115.16 200.785C143.245 192.029 172.539 182.974 201.925 174.92C278.37 152.945 357.334 141.002 436.851 139.391C526.285 139.471 615.398 150.252 702.278 171.503C776.663 188.014 854.776 210.254 947.375 234.106C982.307 242.965 1018.54 251.916 1054.07 258.969C1098.18 268.208 1142.82 274.698 1187.74 278.391C1298.46 285.432 1389.06 270.947 1469.58 236.016L1478.74 231.689C1542.56 202.2 1599.5 159.687 1645.93 106.876L1644.02 104.068Z" fill="#199FD9"/>
<path opacity="0.2" d="M1646.84 107.289C1600.03 159.479 1542.62 201.072 1478.44 229.284C1377.78 273.673 1274.21 276.492 1200.33 271.36C1161.87 268.415 1123.59 263.341 1085.69 256.161C1043.51 248.613 1000.53 238.442 959.157 228.881C867.858 206.434 789.354 185.597 713.151 169.799C625.247 150.067 535.398 140.241 445.307 140.506C364.755 142.025 284.698 153.484 206.953 174.632C177.464 182.283 148.066 190.832 119.888 199.093C80.5271 210.771 40.0727 222.944 -0.899551 233.115C-27.3744 239.858 -52.227 244.782 -76.6883 249.108V252.928C-51.226 248.498 -25.2574 242.861 2.32208 236.417C43.9961 226.35 84.6577 213.97 124.019 202.292C152.208 194.042 181.491 185.482 210.98 177.934C288.023 156.913 367.379 145.511 447.217 144.015C536.399 143.705 625.339 153.438 712.346 172.998C788.135 188.795 866.351 209.54 957.443 231.884C998.714 241.952 1041.69 252.019 1083.97 259.463C1122.02 266.631 1160.43 271.763 1199.02 274.858C1273.6 280.093 1378.19 277.274 1480.15 232.482C1544.34 204.006 1601.85 162.378 1648.95 110.292L1646.84 107.289Z" fill="#199FD9"/>
<path opacity="0.2" d="M1649.25 110.316C1603.92 159.262 1549.14 198.507 1488.21 225.661C1388.15 270.453 1284.78 272.869 1211.1 267.737C1177.35 265.298 1143.76 261.133 1110.45 255.254C1063.24 247.602 1015.43 236.43 969.524 226.271C878.938 206.136 800.216 186.012 723.426 171.308C635.464 153.29 545.868 144.488 456.088 145.041C375.306 146.812 294.972 157.685 216.629 177.452C187.036 184.597 157.743 192.651 129.565 200.406C90.2035 211.382 49.6455 222.854 8.17853 232.415C-21.1153 239.261 -48.7983 244.197 -76.1706 248.419V252.147C-47.7857 247.924 -19.1018 242.781 11.2966 235.636C53.0742 226.075 93.7357 214.604 133.086 203.731C161.275 195.884 190.362 187.83 219.955 180.777C297.274 161.206 376.56 150.437 456.295 148.665C545.235 148.136 633.98 156.845 721.125 174.633C797.42 189.222 875.533 208.851 966.118 229.596C1012.22 239.663 1060.13 251.134 1107.04 258.682C1140.78 264.711 1174.82 268.945 1209.01 271.361C1283.39 276.597 1387.87 274.376 1489.13 229.09C1550.41 201.741 1605.55 162.345 1651.28 113.239L1649.25 110.316Z" fill="#199FD9"/>
<path opacity="0.2" d="M1651.67 113.732C1615.37 151.437 1573.38 183.215 1527.26 207.941C1517.49 213.303 1507.41 218.077 1497.07 222.231C1398.62 265.815 1299.68 270.141 1220.97 264.204C1191.89 262.397 1162.09 258.566 1133.7 254.136C1081.26 245.576 1028.62 235.117 977.382 223.945C889.11 205.226 808.581 186.506 731.883 172.918C643.852 156.442 554.406 148.687 464.844 149.768C383.786 151.425 303.119 161.55 224.166 179.959C193.974 186.598 165.279 194.157 136.998 201.498C97.7398 211.565 57.1818 222.335 16.2096 231.689C-16.8006 238.638 -47.0033 243.77 -77.1946 247.59V251.214C-45.9908 247.394 -14.5915 242.055 18.8329 235.014C60.507 226.051 101.169 215.385 140.426 204.823C168.616 197.471 197.806 189.923 227.387 183.284C305.742 164.979 385.799 154.854 466.248 153.093C554.969 152.046 643.576 159.767 730.767 176.139C807.165 189.624 887.487 208.344 975.76 226.465C1026.89 237.936 1079.53 248.406 1131.97 257.162C1160.46 261.293 1190.35 265.412 1219.55 267.23C1298.96 273.27 1399.01 269.036 1498.66 224.958C1556.92 198.898 1609.66 161.976 1654.07 116.149L1651.67 113.732Z" fill="#199FD9"/>
<path opacity="0.2" d="M1654.09 116.449C1611.69 159.124 1561.9 193.733 1507.13 218.608C1420.31 255.15 1325.85 269.809 1232.04 261.283C1207.28 258.97 1182.22 257.06 1157.95 253.033C1100.78 245.382 1043.01 232.898 986.84 221.726C899.166 203.812 818.648 187.198 741.145 174.518C653.137 159.388 563.886 152.646 474.613 154.383C393.347 156.339 312.461 166.039 233.037 183.366C202.845 189.602 174.15 196.552 145.972 203.501C106.714 213.062 66.1563 222.923 25.1841 231.184C-8.53941 237.731 -40.3415 242.655 -72.2471 246.084H-76.3892V249.708H-70.0495C-38.7422 245.98 -6.73299 241.148 27.2897 234.406C69.0673 226.156 109.625 216.284 148.987 206.723C177.072 199.877 206.159 192.928 235.856 186.588C314.947 169.387 395.499 159.745 476.419 157.801C564.933 156.213 653.39 162.955 740.639 177.936C818.038 190.615 898.165 207.229 985.54 224.637C1041.31 236.108 1098.98 248.293 1156.15 256.14C1180.51 260.063 1205.67 262.18 1230.43 264.389C1325.24 273.375 1420.81 258.821 1508.64 222.014C1563.66 196.943 1613.71 162.161 1656.4 119.349L1654.09 116.449Z" fill="#199FD9"/>
<path opacity="0.2" d="M1656.1 119.371C1615.38 158.928 1568.24 191.293 1516.69 215.098C1420.37 257.278 1321.52 262.709 1242.51 256.968C1221.67 255.46 1200.64 252.941 1179.8 250.732C1118.31 242.574 1056.5 229.895 996.31 218.723C909.947 202.615 829.326 187.324 750.511 175.945C662.457 162.552 573.413 156.834 484.381 158.836C402.678 161.022 321.321 170.215 241.194 186.311L154.325 204.732C114.964 213.591 74.3025 222.853 32.5364 230.401C-0.980049 236.338 -32.8857 240.468 -64.8949 243.69C-68.9219 243.69 -73.4552 243.69 -77.5743 244.599V248.12L-62.8814 247.119C-30.4695 244.3 1.64327 239.767 35.3553 233.726C77.3285 226.282 118.094 217.02 157.547 208.16C185.529 201.821 214.317 195.378 243.806 189.636C323.403 173.655 404.22 164.531 485.382 162.356C573.678 160.147 662.008 165.797 749.303 179.27C827.611 190.649 908.037 205.848 993.997 221.944C1054.39 233.116 1115.79 246.003 1177.19 254.057L1240.2 260.603C1319.82 266.437 1419.67 260.603 1517.41 218.331C1569.46 194.446 1617.09 161.954 1658.33 122.201L1656.1 119.371Z" fill="#199FD9"/>
<path opacity="0.2" d="M1658.22 122.086C1619.31 158.686 1574.72 188.715 1526.15 210.967C1431.74 253.447 1336.02 258.475 1252.87 253.044C1235.86 252.342 1218.34 249.926 1201.03 248.016C1135.51 240.261 1070.18 227.283 1005.56 216.214C920.912 201.521 839.98 187.622 759.865 177.256C671.799 165.589 582.94 160.952 494.138 163.368C412.148 165.819 330.445 174.437 249.743 189.141L164.381 206.147C123.007 214.707 83.8522 222.956 42.0862 229.699C8.46617 235.129 -23.4394 239.064 -55.4486 241.481C-62.191 241.481 -69.7388 242.182 -76.6883 242.585V246.106C-69.1405 246.106 -60.8909 245.508 -53.5386 244.898C-21.2303 242.482 10.986 238.558 44.8015 233.116C86.8783 226.27 127.839 217.721 167.5 209.46L253.16 192.547C333.195 177.877 414.219 169.259 495.542 166.774C583.642 164.335 671.811 169.018 759.163 180.765C838.783 190.833 919.301 204.72 1003.75 219.516C1067.67 230.493 1133.3 243.678 1198.93 251.525C1216.24 253.239 1233.86 255.851 1250.86 256.553C1334.81 262.191 1431.34 257.151 1527.06 214.281C1576.04 191.88 1621.05 161.654 1660.33 124.801L1658.22 122.086Z" fill="#199FD9"/>
<path opacity="0.2" d="M1659.83 124.203C1622.97 158.087 1581.02 185.977 1535.52 206.837C1442.61 249.511 1346.68 254.551 1263.24 249.017C1249.45 248.016 1235.86 247.302 1221.87 245.392C1152.42 238.04 1082.87 224.556 1014.72 213.683C931.279 200.198 850.151 187.818 769.116 178.659C681.085 168.592 592.444 164.991 503.884 167.89C421.571 170.525 339.523 178.59 258.281 192.052L174.438 207.251C132.361 215.202 92.6082 222.853 49.9217 228.997C16.4052 233.933 -15.4084 237.246 -47.5096 239.064C-57.1054 239.801 -67.0004 240.503 -77.2061 241.181V244.702C-66.3331 244.702 -55.8628 243.793 -45.5996 243.195C-13.1877 241.078 19.017 237.764 52.7406 233.127C95.6228 226.983 135.375 219.332 177.659 211.29L261.099 196.194C341.87 182.744 423.446 174.679 505.287 172.032C593.088 168.983 680.981 172.32 768.299 181.996C848.828 191.155 929.346 203.431 1012.69 216.927C1080.53 227.8 1149.99 241.388 1219.44 248.936C1233.43 250.743 1247.12 251.651 1260.91 252.56C1344.96 258.198 1442.09 253.469 1536.1 210.185C1582.04 189.164 1624.39 161.079 1661.62 126.941L1659.83 124.203Z" fill="#199FD9"/>
<path opacity="0.2" d="M1661.33 126.217C1626.47 157.294 1587.24 183.066 1544.87 202.718C1458.31 241.676 1370.94 251.939 1273.11 245.093L1241.4 242.482C1168.32 235.337 1095.44 221.346 1023.77 210.772C941.646 199.082 860.311 187.818 778.378 179.96C690.37 171.618 601.902 169.064 513.549 172.309C430.914 175.15 348.509 182.721 266.737 194.952L184.505 208.54C142.129 215.892 101.963 222.83 58.9883 228.675C25.771 233.105 -6.13464 235.82 -38.5465 237.431C-50.8233 238.029 -63.7098 238.432 -76.999 238.742V242.16C-63.1115 242.16 -49.6151 241.561 -36.7401 240.951C-4.02908 239.237 28.0837 236.522 61.4966 232.196C104.781 226.661 144.937 219.712 187.52 212.061L269.752 198.472C351.121 186.265 433.123 178.74 515.355 175.921C603.087 172.47 690.957 174.932 778.367 183.273C859.793 191.12 940.725 202.396 1022.55 214.074C1094.02 224.648 1166.7 238.731 1239.77 245.979L1271.89 248.591C1370.03 255.541 1458.41 245.577 1546.17 206.009C1588.95 186.196 1628.6 160.216 1663.84 128.909L1661.33 126.217Z" fill="#199FD9"/>
<path opacity="0.2" d="M1662.84 128.127C1630.02 156.396 1593.52 180.098 1554.33 198.588C1468.88 237.04 1381.41 247.406 1283.86 241.067L1260.91 239.157C1184.31 232.414 1108.22 217.917 1032.92 207.953C950.586 196.977 871.874 187.818 787.721 181.283L780.875 180.777C695.203 174.46 609.219 173.183 523.398 176.957C441.867 180.179 360.441 186.415 275.286 197.989L194.573 209.955C151.691 216.594 111.133 222.945 67.6407 227.674C34.7225 231.494 2.81686 233.611 -29.8942 234.819C-44.5871 235.325 -60.0854 235.521 -76.8954 235.625V239.145C-59.8898 239.145 -43.5746 239.145 -28.2834 238.34C4.63478 237.028 36.8396 234.923 70.0569 231.195C113.744 226.362 154.302 220.023 197.288 213.384L277.817 201.303C362.673 189.832 443.697 183.584 524.928 180.765C610.186 176.923 695.594 178.165 780.691 184.493L787.433 185C870.873 191.443 949.493 200.9 1031.32 210.968C1106.31 221.035 1182.3 235.532 1258.8 242.367L1281.76 244.277C1380.2 251.019 1468.47 240.457 1555.14 201.602C1594.8 182.963 1631.73 159.02 1664.95 130.44L1662.84 128.127Z" fill="#199FD9"/>
<path opacity="0.2" d="M1664.15 130.439C1648.25 142.82 1632.25 155.096 1615.63 166.176C1598.74 176.474 1581.33 185.92 1563.49 194.457C1469.68 236.936 1376.17 242.263 1293.83 236.936L1278.83 235.728C1202.94 229.895 1120.31 214.696 1041.79 205.537C960.561 195.47 881.746 188.221 796.902 182.986C709.021 177.762 620.909 177.325 532.982 181.674C451.451 185.299 367.298 191.04 283.754 201.199L204.64 210.968C161.16 217.008 120.084 222.646 76.0974 226.765C43.2828 229.883 11.3772 231.598 -21.541 232.403C-38.9493 232.403 -57.5772 232.403 -77.2061 232.403V235.82C-57.0709 235.82 -38.0518 235.82 -20.1373 235.82C12.9765 235.015 45.1927 233.208 78.3065 230.182C122.489 225.96 163.668 220.115 207.252 214.281L286.366 204.214C369.611 194.146 453.454 188.313 534.685 184.689C622.083 180.386 709.642 180.823 796.994 186C880.745 190.833 959.548 198.588 1040.08 208.448C1118.09 218.009 1200.62 233.312 1276.52 239.249L1291.51 240.56C1374.55 246.095 1468.86 240.56 1564.09 197.782C1600.56 180.305 1634.73 158.398 1665.84 132.557L1664.15 130.439Z" fill="#199FD9"/>
<path opacity="0.2" d="M1665.45 131.543C1650.66 142.715 1635.26 153.588 1620.56 163.851C1605.86 174.114 1588.95 182.064 1573.05 190.026C1480.95 232.402 1386.84 237.74 1304.1 232.402H1297.15C1218.34 227.167 1132.78 211.772 1051.05 202.211C969.328 192.65 891.814 187.518 806.36 183.79C728.753 180.465 643.3 180.868 542.946 185.7C459.805 189.52 375.157 194.962 292.418 203.718L214.708 212.681C170.618 218.02 128.944 222.749 83.8523 226.476C51.2448 228.996 19.3277 230.296 -13.6825 230.503C-33.8177 230.503 -54.7467 230.503 -78 229.698V233.115C-54.2405 233.817 -32.7016 234.22 -12.3708 234.024C20.8465 234.024 53.0512 232.413 85.9694 229.894C130.865 226.476 172.631 221.437 216.825 216.098L295.237 207.135C377.676 198.38 461.922 193.041 544.867 189.117C644.623 184.389 729.57 183.882 806.567 187.207C891.423 190.625 969.927 197.275 1049.86 205.628C1129.78 213.981 1216.54 230.285 1295.36 235.819H1302.2C1385.55 241.25 1480.57 235.819 1573.97 193.144C1590.08 185.09 1606.28 176.335 1622.18 166.67C1638.08 157.005 1652.37 145.235 1667.67 133.856L1665.45 131.543Z" fill="#199FD9"/>
<path opacity="0.2" d="M1666.66 133.154C1640.42 153.439 1612.11 170.916 1582.21 185.298C1491.62 228.076 1401.03 233.208 1314.16 227.973C1232.82 222.945 1144.95 207.838 1060.1 199.381C980.581 191.73 901.363 186.897 815.599 184.884C739.5 182.87 656.669 184.884 552.783 190.015C467.525 194.238 382.371 199.07 301.14 206.618L226.248 214.062C181.456 218.688 139.08 223.025 93.4827 225.844C60.9672 227.754 28.9581 228.663 -4.05212 228.364C-26.0973 228.364 -50.248 227.455 -77.022 226.35V229.768C-49.7417 230.872 -25.2803 231.781 -2.93606 231.781C30.4768 231.781 62.5896 231.781 95.4041 229.261C141.197 226.546 183.677 222.22 228.572 217.48L303.36 210.035C384.488 202.488 469.447 197.759 555.004 193.433C658.372 188.405 740.811 186.184 816.704 188.198C902.364 190.407 980.777 195.147 1059.68 202.695C1144.14 211.151 1231.81 226.35 1313.03 231.585C1400.2 236.924 1492.3 231.585 1583.9 188.704C1614.3 174.115 1643.07 156.361 1669.76 135.755L1666.66 133.154Z" fill="#199FD9"/>
<path opacity="0.2" d="M1667.87 134.674C1643.88 152.37 1618.27 167.73 1591.37 180.57C1502.49 222.347 1414.82 229.389 1324.23 223.555C1247.53 219.126 1156.63 203.42 1068.96 196.482C990.442 190.143 911.535 186.415 824.862 186.415C751.685 185.61 669.05 189.429 562.552 194.872C474.578 199.601 389.021 203.731 309.504 209.967L237.731 216.008C191.834 220.035 148.446 223.762 101.951 226.075C69.7462 227.479 37.8291 227.882 4.41618 227.076C-19.746 227.076 -45.9103 225.362 -77.2176 223.751V227.168C-46.0138 228.883 -18.9406 230.183 5.41718 230.585C39.1407 231.391 71.242 230.585 103.654 229.584C150.46 227.674 194.239 223.947 239.837 219.517L311.61 213.476C390.931 207.24 476.281 203.409 564.059 198.381C670.051 192.847 752.283 189.015 825.057 189.821C911.316 190.419 989.625 193.951 1067.74 199.888C1154.8 206.93 1245.59 222.635 1321.99 227.168C1413.38 233.105 1501.86 226.466 1591.95 184.091C1619.4 171.066 1645.51 155.419 1669.96 137.389L1667.87 134.674Z" fill="#199FD9"/>
<path opacity="0.2" d="M1668.78 135.777C1647.21 151.103 1624.38 164.565 1600.54 176.036C1512.86 216.904 1428.51 224.854 1334.2 219.32C1248.05 213.981 1161.37 199.185 1077.83 193.455C999.117 188.117 922.718 186.414 834.043 187.219C763.581 187.725 683.064 192.454 572.343 199.001L318.088 212.394L250.249 217.019C203.145 220.344 158.456 223.359 110.638 224.567C78.4331 225.476 46.5159 225.268 13.103 224.06C-17.0882 223.059 -47.291 221.138 -77.4822 219.228V222.645C-47.291 224.555 -16.2828 226.569 13.7129 227.581C47.4364 228.789 79.5376 228.985 111.95 228.087C160.067 226.879 204.755 223.865 251.964 220.54L319.71 215.811L573.666 202.223C684.387 195.676 763.904 191.051 834.158 190.441C922.028 189.44 998.127 191.35 1076.44 196.677C1159.38 202.315 1245.74 217.307 1331.7 222.749C1426.93 228.789 1511.87 220.632 1600.86 179.372C1625.21 167.775 1648.52 154.106 1670.52 138.504L1668.78 135.777Z" fill="#199FD9"/>
<path opacity="0.2" d="M1669.08 136.285C1650.06 149.172 1630.22 160.804 1609.7 171.113C1523.53 211.371 1438.58 219.632 1344.06 214.489C1262.43 210.267 1172.24 194.354 1086.69 190.132C1008.68 185.599 932.487 185.702 843.305 188.118C758.45 190.431 668.267 198.186 582.307 203.11L326.544 215.191L263.631 218.516C214.915 221.232 168.708 223.544 119.29 223.947C87.281 223.947 55.3754 223.947 21.7554 222.037C-9.04565 220.426 -41.2504 218.114 -77.1946 215.398V218.815C-41.0548 221.531 -8.5509 223.947 22.4573 225.454C56.48 227.065 88.5927 227.87 120.797 227.468C170.422 227.468 216.618 224.752 265.541 222.037L328.351 218.712L583.814 206.539C669.579 201.2 759.359 193.86 843.811 191.443C932.291 189.131 1007.98 188.924 1085.39 193.56C1170.44 198.289 1260.23 213.695 1341.66 218.217C1437.07 223.452 1522.84 215.502 1610.11 174.737C1631.02 164.186 1651.19 152.244 1670.5 139L1669.08 136.285Z" fill="#199FD9"/>
<path opacity="0.2" d="M1669.39 136.688C1652.68 146.755 1636.07 157.628 1619.06 166.384C1527.46 209.564 1436.37 214.397 1353.93 209.564C1271.49 204.732 1183.32 190.845 1095.55 187.013C1014.57 183.677 933.465 184.413 852.567 189.222C777.48 192.548 697.964 200.199 592.076 207.344C490.721 213.891 406.867 215.398 335.197 218.113L277.817 220.23C227.491 222.14 179.27 223.751 127.943 223.348C96.4397 223.348 64.534 221.945 30.4078 219.931L-77.1946 210.968V214.385L31.0061 223.038C65.3279 225.155 97.4406 226.455 129.243 226.558C180.777 227.065 228.791 225.35 279.52 223.44L336.796 221.323C408.466 218.504 492.205 217.101 593.675 210.45C699.264 203.305 778.585 195.654 853.166 192.237C942.14 187.612 1017.64 186.599 1094.74 190.028C1181.91 194.25 1270.88 208.644 1351.82 212.982C1434.96 218.01 1526.75 212.982 1619.66 169.697C1637.38 160.734 1654.38 149.562 1671.7 139L1669.39 136.688Z" fill="#199FD9"/>
<path opacity="0.2" d="M1669.58 136.883C1655.59 145.132 1641.9 153.992 1627.91 161.137C1538.73 204.421 1450.35 209.346 1363.48 204.72C1276.61 200.095 1189.85 186.806 1104.29 183.78C1023.38 181.651 942.405 183.734 861.714 190.016L601.925 211.555C568.305 213.971 535.191 215.478 503.285 216.686L343.642 221.035L293.316 222.14C240.17 223.244 189.844 224.153 136.089 222.842C105.184 222.14 73.2785 220.426 38.5539 217.814L-77.1946 207.344V210.968L39.67 221.035C74.4981 223.647 106.611 225.258 137.711 226.063C191.765 227.375 242.195 226.063 295.444 225.362L345.575 224.556L505.115 220.23C537.124 218.918 570.134 217.515 603.858 214.995L862.831 193.353C942.957 187.048 1023.36 184.988 1103.7 187.209C1188.56 190.223 1274.82 203.317 1361.58 208.448C1448.35 213.58 1538.13 208.448 1628.73 164.761C1643.22 157.317 1657.51 148.158 1672.01 139.598L1669.58 136.883Z" fill="#199FD9"/>
<path opacity="0.2" d="M1669.69 136.986C1658.62 143.222 1647.85 150.275 1636.77 155.81C1549.6 198.484 1463.64 204.525 1378.59 200.199H1373.25C1290.81 195.872 1200.02 182.48 1113.06 181.076C1032.41 179.96 951.759 183.32 871.483 191.144C797.903 197.38 719.088 208.057 625.385 215.098L612.303 216.099C550.194 220.633 489.098 222.439 434.745 223.244L352.709 224.153H313.347C256.681 224.153 202.627 224.66 145.754 222.243C115.056 221.035 83.1504 218.918 48.2188 215.697L-77.1946 203.109V206.527L48.1267 219.206C83.254 222.324 115.367 224.441 146.271 225.753C203.651 228.065 257.498 228.065 314.371 227.663H353.629L435.666 226.662C490.019 225.856 551.218 224.142 613.419 219.517L626.501 218.516C720.009 210.968 798.524 200.9 871.897 194.158C951.759 186.219 1032.01 182.859 1112.26 184.091C1198.52 185.701 1288.91 198.99 1370.95 203.512H1376.38C1462.04 207.942 1548.81 202.408 1637.18 159.227C1648.86 153.393 1660.23 146.041 1671.8 139.092L1669.69 136.986Z" fill="#199FD9"/>
<path opacity="0.2" d="M1669.69 136.986C1661.63 141.312 1653.79 147.054 1645.63 150.575C1560.07 192.352 1476.12 198.783 1393.09 195.47C1389.76 195.47 1386.34 195.47 1383.02 194.963C1301.09 190.741 1210.49 177.452 1121.92 177.245C1041.18 177.417 960.526 182.227 880.342 191.638C814.61 198.588 745.46 208.644 662.928 216.399L621.761 219.919C542.347 226.063 466.248 226.869 398.812 226.869H360.866H333.793C270.281 226.869 215.122 225.557 153.923 221.933C123.731 220.218 91.4116 217.607 56.4915 213.879L-60.7873 200.9L-77.1946 198.783V202.201L-60.6838 203.915L56.6756 217.1C91.9064 220.725 123.916 223.337 154.717 225.154C216.112 228.779 271.374 229.688 335.093 230.09H362.074H399.917C467.456 230.09 543.751 229.181 623.268 223.141L664.539 219.517C746.875 211.762 815.519 201.602 881.355 194.653C960.768 185.414 1040.66 180.777 1120.62 180.765C1208.38 180.765 1298.58 194.25 1380.21 198.68L1390.28 199.278C1474.03 202.799 1558.68 196.459 1645.44 154.187C1654.2 149.965 1662.55 144.12 1671.22 139.69L1669.69 136.986Z" fill="#199FD9"/>
<path opacity="0.2" d="M1669.58 136.883L1654.59 145.132C1570.54 186.403 1488.41 193.146 1407.08 190.327L1392.39 189.82C1315.48 186.599 1220.76 173.114 1130.69 173.712C1049.86 175.082 969.19 181.329 889.11 192.432C830.131 199.98 769.024 209.944 695.847 217.894L631.23 224.13C538.228 231.575 447.332 230.873 374.052 229.561H365.699C293.626 228.157 231.219 226.236 162.874 221.104C132.683 218.895 100.363 215.766 65.3394 211.647L-35.3134 199.163L-77.1946 194.354V197.771L-35.8197 202.603L65.3394 214.983C100.467 219.114 132.476 222.232 163.277 225.051C231.829 230.182 294.133 232.092 366.596 233.507H375.755C449.035 234.819 540.127 235.417 633.439 228.077L697.86 221.035C770.933 212.878 831.937 203.017 890.721 195.47C969.915 184.424 1049.72 178.234 1129.67 176.946C1219.26 176.14 1313.67 189.935 1390.16 193.353H1404.86C1486.89 196.367 1569.63 189.728 1654.89 148.055L1671.7 138.793L1669.58 136.883Z" fill="#199FD9"/>
<path opacity="0.2" d="M1669.48 136.688L1663.54 139.909C1581 180.168 1500.59 187.623 1420.86 185.299L1401.74 184.494C1324.94 181.272 1230.63 168.892 1138.83 170.296C1058.54 172.919 978.498 180.582 899.166 193.249C845.319 200.901 788.445 210.968 725.232 219.114C698.654 222.739 670.879 225.661 641.482 228.273C553.761 234.716 465.742 236.097 377.86 232.403C303.982 229.987 241.574 226.973 171.319 220.53C141.128 217.814 109.119 214.086 73.8883 209.553L-14.1888 197.679L-75.3882 190.028L-77.1946 189.832V193.353H-75.3882L-14.2923 200.901L73.7847 212.982C109.211 217.607 141.22 221.231 171.619 223.958C242.08 230.505 304.683 234.026 378.769 235.832C466.846 239.629 555.073 238.248 642.989 231.702C672.582 229.09 700.357 226.064 727.039 222.543C792.369 213.891 846.722 204.329 900.063 196.575C978.855 183.93 1058.36 176.302 1138.12 173.724C1229.31 172.321 1323.03 185 1399.82 188.314L1418.94 189.015C1499.47 191.535 1579.99 184.689 1664.14 143.625L1671.79 139.403L1669.48 136.688Z" fill="#199FD9"/>
<path opacity="0.2" d="M1668.88 135.973C1589.07 174.62 1511.65 181.972 1434.66 180.258L1411 179.153C1340.54 176.139 1241.6 164.656 1147.38 166.773C1067.08 170.524 987.116 179.602 908.025 193.95C859.505 201.601 808.673 212.071 752.409 220.217C720.607 224.75 687.39 229.18 651.756 232.298C563.61 239.133 475.107 240.099 386.835 235.221C310.333 231.7 248.938 227.374 180.386 219.918C150.897 216.8 119.083 212.566 82.9548 207.538L8.46619 196.665L-67.127 186.402C-70.4522 186.402 -73.8694 186.402 -77.1946 185.493V188.91C-73.973 188.91 -70.4522 189.417 -67.127 189.819L8.25909 199.887L82.4371 210.955C118.669 216.087 150.586 220.217 180.271 223.439C249.018 230.883 310.517 235.221 387.215 238.638C475.786 243.677 564.6 242.699 653.045 235.715C689.081 232.597 722.402 228.168 754.308 223.531C810.479 215.477 861.3 204.811 909.417 197.263C987.887 183.1 1067.21 174.218 1146.86 170.685C1240.18 168.672 1338.11 180.753 1408.56 183.365L1432.12 184.469C1510.32 186.483 1589.13 179.338 1670.87 139.378L1668.88 135.973Z" fill="#199FD9"/>
<path opacity="0.2" d="M1667.87 134.57C1593.08 168.995 1520.11 176.037 1447.74 174.829C1438.78 174.829 1429.62 174.829 1420.36 173.92C1349.89 171.308 1250.96 159.331 1155.84 163.852C1075.62 168.282 995.849 178.706 917.184 195.056C873.094 203.11 826.599 213.269 776.261 221.634C740.328 227.674 702.681 233.105 661.306 236.833C572.7 244.093 483.668 244.668 394.97 238.547C311.932 233.715 252.033 227.778 188.624 219.931C159.641 216.307 128.23 211.681 91.2851 206.044L28.9811 195.976L-58.8888 182.791C-64.9294 182.089 -71.1655 181.686 -77.2061 180.777V184.194C-71.2691 184.793 -65.0214 185.195 -59.0844 185.909L28.6819 198.692L90.9859 208.759C127.724 214.293 159.63 218.826 188.728 222.646C252.344 231.103 312.438 236.637 395.879 241.17C484.911 247.257 574.276 246.647 663.216 239.364C704.787 235.544 742.434 230.102 778.47 223.969C828.796 215.616 875.199 205.549 919.393 197.299C997.368 181.157 1076.44 170.836 1155.93 166.395C1250.14 162.472 1348.18 174.449 1418.64 177.164C1427.8 177.164 1437.17 178.476 1446.12 178.372C1519.8 179.88 1593.88 172.735 1670.59 137.205L1667.87 134.57Z" fill="#199FD9"/>
<path opacity="0.2" d="M1666.66 133.062C1596.2 163.253 1528.36 169.904 1460.62 169.098C1450.55 169.098 1440.48 169.098 1429.62 168.5C1318.9 162.46 1238.37 154.808 1164.39 159.848C1084.26 165.278 1004.7 177.06 926.435 195.078L798.513 222.036C759.06 229.078 717.984 235.923 671.282 240.353C582.192 247.751 492.631 247.751 403.541 240.353C325.831 234.819 264.137 227.766 197.3 218.308L100.064 203.006L49.7376 194.353C18.0275 188.923 -14.8791 183.688 -50.317 178.752C-58.9694 177.544 -68.036 177.037 -76.7919 176.036V179.453C-68.036 180.454 -59.0729 180.961 -50.4206 182.169C-15.1897 187.001 17.6248 192.236 49.3349 197.667L99.6613 206.319L197.3 221.714C264.333 231.172 326.337 238.317 404.151 243.862C493.666 251.053 583.619 250.846 673.1 243.264C719.606 238.731 761.177 231.988 800.734 224.74L928.368 197.759C1005.88 179.81 1084.72 168.132 1164.1 162.828C1237.47 157.892 1317 165.44 1427.51 171.687C1438.18 172.596 1448.14 172.285 1458.61 172.493C1527.66 173.494 1597.21 166.751 1669.09 135.548L1666.66 133.062Z" fill="#199FD9"/>
<path opacity="0.2" d="M1665.36 131.348C1604.09 154.509 1538.89 165.485 1473.41 163.656L1438.68 162.85C1329.37 157.719 1246.43 149.964 1172.65 156.108C1092.69 162.85 1013.43 176.047 935.605 195.561C898.97 204.213 860.518 213.682 819.051 222.438C773.534 232.172 727.534 239.524 681.257 244.483C591.707 252.468 501.605 252.203 412.102 243.678C338.418 237.534 276.724 229.48 205.963 218.308L108.728 201.498L69.6771 194.353C34.2507 187.91 -2.3953 181.466 -42.355 175.737C-53.8263 174.126 -65.5047 172.814 -77.1831 171.41V174.828C-65.6082 176.231 -54.0334 177.439 -42.6541 179.154C-2.3953 184.792 33.848 191.235 69.1709 197.678L108.222 204.823L205.756 221.736C276.218 232.908 338.626 240.962 412.504 247.106C502.445 255.747 592.985 255.989 682.972 247.808C729.443 242.907 775.605 235.474 821.271 225.568C862.738 217.007 901.087 207.251 937.63 198.69C1014.67 179.257 1093.18 166.152 1172.36 159.537C1245.43 153.6 1327.68 161.147 1436.58 166.785L1471.2 167.487C1538.24 169.719 1605.07 158.455 1667.69 134.374L1665.36 131.348Z" fill="#199FD9"/>
<path opacity="0.2" d="M1664.15 129.531C1606.88 149.471 1546.53 159.147 1485.89 158.123L1447.84 157.018C1338.93 152.888 1255.49 144.937 1181.21 152.29C1101.46 160.378 1022.51 175.013 945.166 196.069L838.07 222.946C789.676 234.394 740.639 242.908 691.21 248.408C601.188 256.853 510.534 256.175 420.65 246.395C350.189 239.652 288.897 230.793 214.708 217.711L122.707 200.901L88.1785 194.159C49.726 186.715 9.8699 179.167 -34.1168 172.62C-48.315 170.503 -62.8008 168.8 -77.1946 167.086V170.503C-62.9044 172.217 -48.5106 173.92 -34.5195 176.037C-4.92657 180.363 22.7564 185.196 49.3233 190.235L116.759 203.122L214.708 221.036C289.197 234.118 350.994 243.081 421.352 249.72C511.638 259.603 602.707 260.248 693.12 251.63C742.687 246.153 791.863 237.604 840.383 226.064L946.972 199.187C1023.62 178.143 1101.91 163.6 1181 155.707C1254.48 148.562 1337.32 156.305 1445.62 160.942L1483.67 162.046C1545.88 163.324 1607.81 153.337 1666.47 132.557L1664.15 129.531Z" fill="#199FD9"/>
<path opacity="0.2" d="M1662.44 127.621C1609.3 144.661 1553.75 152.922 1497.96 152.082C1484.48 152.588 1470.38 152.082 1456.59 151.173C1347.67 147.146 1264.44 140.404 1189.15 148.458C1109.56 157.674 1030.92 173.77 954.118 196.575L855.973 223.348C805.106 236.58 753.376 246.222 701.162 252.239C610.738 261.214 519.6 260.201 429.395 249.225C346.15 240.17 281.235 228.284 223.452 217.216L126.424 197.081L107.704 193.261C67.445 185.011 22.8485 175.749 -25.66 168.294C-42.5736 165.682 -59.7863 163.565 -76.999 161.551V164.969C-59.8898 166.982 -42.7807 168.996 -26.0628 171.711C22.2502 179.063 67.2494 188.314 106.898 196.471L125.618 200.395L222.958 220.529C280.832 231.598 345.955 243.575 429.498 252.642C520.337 263.699 612.13 264.677 703.187 255.564C755.711 249.57 807.752 239.847 858.907 226.478L956.844 199.704C1032.89 177.05 1110.75 161.045 1189.56 151.898C1263.95 143.844 1346.68 150.897 1454.79 155.12C1468.59 155.12 1482.88 156.627 1496.36 156.121C1553.54 156.961 1610.44 148.285 1664.76 130.451L1662.44 127.621Z" fill="#199FD9"/>
<path opacity="0.2" d="M1660.32 124.801C1611.32 139.286 1560.44 146.443 1509.34 146.04C1494.65 146.04 1480.26 146.04 1465.06 145.442C1357.45 141.311 1272.1 136.18 1197.01 144.637C1105.01 154.704 1028.91 177.646 962.977 196.976L872.887 223.347C819.856 238.695 765.664 249.637 710.827 256.058C619.816 265.377 528.034 264.031 437.346 252.031C361.959 242.872 300.449 231.09 231.61 216.605L134.478 195.469L126.32 193.662C83.4381 184.297 34.7225 173.527 -18.0202 165.278C-36.9473 162.056 -57.0709 159.341 -77.2061 156.925V160.652C-57.0709 162.965 -36.9473 165.68 -18.0202 168.902C34.5269 177.255 83.139 187.921 125.814 197.183L133.972 198.989L231.207 220.229C300.564 234.818 362.063 246.6 437.748 255.655C529.035 267.805 621.439 269.151 713.036 259.682C768.103 253.204 822.537 242.193 875.798 226.764C907.703 218.112 937.193 208.447 965.681 200.29C1034.13 180.155 1106.6 158.317 1197.19 148.353C1271.37 140 1356.12 145.43 1463.02 149.561C1478.12 150.562 1493.21 150.562 1507.31 150.366C1559.9 151.034 1612.27 143.624 1662.62 128.425L1660.32 124.801Z" fill="#199FD9"/>
<path opacity="0.2" d="M1657.91 121.787C1613.41 133.914 1567.53 140.208 1521.41 140.507H1474.31C1366.41 136.077 1281.25 132.05 1205.55 141.715C1114.06 152.588 1041.48 175.933 972.642 197.978C946.167 206.434 918.991 215.593 889.605 224.349C834.665 241.435 778.309 253.596 721.206 260.684C629.654 270.21 537.274 268.22 446.217 254.747C366.194 244.081 303.383 230.286 240.481 216.099L168.915 199.393L143.545 193.456C98.5568 183.389 47.2178 171.216 -9.35629 161.746C-31.7006 157.926 -54.4476 154.9 -77.2981 152.289V155.706C-54.5511 158.318 -31.9997 161.344 -9.95459 165.072C46.8151 174.529 97.6478 186.207 142.44 196.781L167.902 202.615L239.572 219.321C302.681 233.611 365.699 247.406 446.217 258.176C537.952 271.396 630.965 273.087 723.116 263.204C780.461 256.035 837.046 243.77 892.217 226.569L975.058 200.198C1043.21 178.257 1115.18 155.303 1205.55 144.235C1280.54 134.973 1364.99 139 1471.99 143.533C1488.1 144.338 1503.39 143.533 1519.2 144.039C1566.83 144.143 1614.23 137.734 1660.13 125.02L1657.91 121.787Z" fill="#199FD9"/>
<path opacity="0.2" d="M1655.4 118.461C1634.4 123.293 1613.83 127.286 1593.69 130.438C1573.06 132.452 1552.82 133.763 1532.79 134.569L1482.46 134.063C1374.86 130.645 1289.2 126.112 1213.31 137.48C1122.01 149.756 1049.95 174.321 981.801 197.873L905.298 224.141C848.701 242.941 790.47 256.414 731.365 264.399C639.33 274.547 546.351 272.453 454.869 258.163C378.067 247.094 316.362 232.494 249.329 216.294L193.974 202.51L152.3 192.442C106.001 180.971 59.8972 170.098 8.25909 160.733L-1.00309 159.122C-25.8556 153.795 -51.4216 150.573 -77.1946 147.547V150.562C-51.6287 153.381 -26.2584 156.706 -1.49784 161.136L7.66079 162.746C58.9997 172.112 105.092 182.881 151.196 194.352L192.766 204.42L248.224 218.215C316.235 236.026 385.109 250.397 454.57 261.292C546.754 275.709 640.458 277.769 733.183 267.437C792.634 259.578 851.21 246.093 908.117 227.178L984.412 201.003C1052.25 177.554 1123.82 153.093 1213.8 140.609C1288.79 129.437 1373.75 133.867 1480.74 137.79L1531.07 138.297C1573.92 137.802 1616.59 132.325 1658.19 121.993L1655.4 118.461Z" fill="#199FD9"/>
<path opacity="0.2" d="M1652.77 115.045C1616.99 122.685 1580.55 126.861 1543.96 127.529C1527.15 128.633 1508.84 127.529 1491.32 127.529C1384.33 125.216 1297.97 120.28 1221.57 133.063C1130.99 146.858 1059.21 172.516 991.074 197.886C968.523 206.343 945.373 214.891 920.613 223.555C862.669 244.507 802.69 259.315 741.651 267.737C649.087 278.011 555.545 275.572 463.636 260.488C394.325 249.006 325.682 233.818 257.993 214.995L214.708 203.524L161.459 189.533C117.472 178.062 65.535 165.175 8.36265 154.809H7.36165C-20.4249 149.781 -48.7062 146.053 -77.1946 142.935V146.352C-48.9133 149.47 -20.8276 153.094 6.75183 158.134H7.35014C64.2234 168.201 115.954 181.283 159.745 192.662L212.994 206.653L256.681 218.124C324.6 236.971 393.474 252.158 463.026 263.618C555.671 279.07 649.996 281.682 743.354 271.373C804.726 262.95 865.028 248.005 923.225 226.788C948.192 218.228 971.342 209.472 993.686 201.015C1067.15 171.457 1143.58 149.93 1221.67 136.802C1297.16 124.318 1382.72 129.047 1489.12 131.866C1506.63 131.866 1524.75 132.971 1541.75 131.866C1579.95 131.233 1617.99 126.746 1655.29 118.474L1652.77 115.045Z" fill="#199FD9"/>
<path opacity="0.2" d="M1649.76 111.109C1618.51 117.023 1586.83 120.394 1555.04 121.177C1537.13 121.982 1518.71 121.879 1499.78 121.177C1424.8 120.268 1324.85 113.825 1229.52 128.828C1138.94 144.131 1068.47 171.1 1000.32 197.977L934.799 223.347C875.809 246.416 814.333 262.524 751.604 271.361C645.313 285.858 540.23 274.479 471.978 263.111C403.541 250.995 335.818 235.06 269.153 215.397L266.542 214.695L236.35 206.238L169.72 187.714C123.421 175.127 72.5881 162.045 15.6113 151.483C-14.58 145.649 -45.9908 141.415 -77.2981 138.401V141.726C-48.1079 144.74 -19.1248 148.468 9.36363 153.807L14.8979 154.808C71.6676 165.175 122.293 178.165 168.397 190.844L234.831 209.161L265.023 217.618L267.635 218.319C331.561 237.085 396.396 252.572 461.899 264.722L471.356 266.333C540 277.712 646.095 289.183 753.191 274.49C816.266 265.585 878.087 249.339 937.388 226.074C960.641 217.825 981.881 208.563 1002.81 200.704C1069.84 174.126 1140.01 147.352 1229.49 132.061C1323.6 117.265 1422.94 124.007 1497.33 125.02C1516.05 125.618 1534.77 126.124 1552.59 125.02C1586.04 124.583 1619.38 121.211 1652.24 114.952L1649.76 111.109Z" fill="#199FD9"/>
<path opacity="0.2" d="M1646.33 106.691C1619.69 111.11 1592.79 113.767 1565.8 114.642C1546.58 114.642 1528.15 115.953 1508.33 114.642C1433.14 113.836 1333.4 108.095 1237.46 124.709C1147.58 141.116 1077.11 170.099 1009.68 198.185L949.285 223.152C889.236 248.016 826.357 265.389 762.063 274.893C660.098 289.482 559.641 278.92 491.503 267.541L480.929 265.735C414.783 253.182 349.418 236.821 285.158 216.72L254.967 207.665L179.282 185.597C135.594 173.217 83.1504 158.927 24.6779 147.847L12.4012 145.638C-15.8916 140.61 -45.9908 136.583 -77.1946 133.362V136.779C-46.1979 139.897 -16.2943 143.924 11.7799 148.963L23.2512 151.172C81.4246 162.149 133.972 176.439 176.957 188.716L252.551 210.956L282.742 220.011C347.358 240.088 413.057 256.496 479.526 269.129C548.377 281.106 654.863 293.889 763.179 278.184C827.853 268.611 891.112 251.099 951.506 226.04L1011.9 201.073C1078.53 173.194 1148.29 144.004 1237.07 128.104C1331.89 112.203 1430.73 118.036 1505.32 119.049C1525.45 119.957 1543.87 119.049 1562.79 119.049C1591.51 118.301 1620.13 115.505 1648.45 110.695L1646.33 106.691Z" fill="#199FD9"/>
<path opacity="0.2" d="M1642.71 102.055C1620.15 104.77 1598.42 107.083 1576.48 108.199L1516.59 108.705C1441.4 108.705 1341.25 102.066 1244.82 120.487C1154.73 137.596 1085.28 168.5 1018.34 198.093L961.976 222.749C901.26 249.431 837.357 268.139 771.843 278.414C663.435 294.418 557.443 281.336 489.202 268.346C424.804 255.379 361.246 238.581 298.861 218.021L269.269 208.758L187.232 183.595C144.246 170.709 92.7118 156.212 32.3178 144.442C-2.10764 137.584 -38.1439 132.05 -77.1946 128.23V131.854C-45.3925 135.076 -14.6835 139.207 14.2997 144.442L31.5123 147.767C91.9064 159.445 143.038 174.138 185.518 186.725L267.451 211.784L297.044 221.047C359.727 241.63 423.596 258.428 488.293 271.372C556.937 284.454 664.24 297.95 773.752 281.44C839.911 271.142 904.436 252.261 965.704 225.269L1021.88 200.912C1081.46 174.541 1143.66 147.157 1219.97 129.542C1228.32 127.528 1236.88 125.722 1245.74 124.111C1340.56 105.99 1439.9 112.237 1514.5 112.836C1534.63 112.836 1554.76 112.836 1574.28 112.836C1598.13 112.134 1621.28 109.315 1645.65 106.289L1642.71 102.055Z" fill="#199FD9"/>
<path opacity="0.2" d="M1638.99 97.1191C1621.27 99.0291 1603.97 100.341 1586.75 101.342C1566.62 102.55 1545.29 101.342 1524.65 102.044C1449.66 102.044 1349.4 96.1066 1252.88 116.334C1163.1 134.352 1094.25 166.66 1027.81 197.966C1011.11 206.216 993.893 213.672 975.576 222.128C914.101 251.019 848.874 271.143 781.818 281.912C687.229 294.637 591.155 291.07 497.762 271.338C434.745 258.049 372.648 240.733 311.852 219.505L283.57 210.243L195.896 182.054C144.879 166.015 93.0685 152.577 40.6825 141.796C1.7353 133.73 -37.6146 127.713 -77.1946 123.801V127.218C-43.7817 130.336 -11.7725 134.662 18.3267 140.104L39.762 144.235C91.8834 155.027 143.418 168.466 194.17 184.493L281.637 212.682L309.919 221.944C370.957 243.299 433.295 260.776 496.531 274.284C590.937 294.212 688.046 297.916 783.705 285.26C851.244 274.399 916.908 254.068 978.775 224.867L1031.11 200.912C1091.51 172.723 1153.51 143.533 1230.82 124.917L1253.57 120.084C1348.58 99.9495 1448.23 106.6 1522.62 106.496C1543.25 106.496 1564.4 106.496 1584.73 105.99C1603.55 104.885 1622.48 103.378 1641.8 101.158L1638.99 97.1191Z" fill="#199FD9"/>
<path opacity="0.2" d="M1634.86 91.791L1596.91 94.4028C1576.18 95.9101 1554.33 95.5074 1532.6 95.4038C1457.51 95.9101 1357.66 90.675 1260.83 112.007C1171.54 131.532 1103.3 164.956 1037.27 197.862C1021.77 205.812 1005.96 213.659 988.854 221.621C926.918 252.652 860.691 274.191 792.369 285.547C697.159 298.491 600.418 294.464 506.611 273.673C444.813 259.855 383.982 241.998 324.52 220.229L301.37 212.279L204.64 179.671C153.532 162.85 101.548 148.802 48.9207 137.595C7.26962 129.035 -34.8417 122.879 -77.2061 119.175V122.5C-35.1293 126.147 6.70583 132.164 48.1153 140.518C100.398 151.701 152.036 165.681 202.823 182.387L299.046 214.902L322.195 222.852C381.991 244.748 443.156 262.731 505.287 276.699C600.13 297.662 697.929 301.678 794.164 288.573C863.038 277.102 929.783 255.321 992.156 223.957C1009.16 216.11 1024.97 207.952 1040.47 200.106C1100.86 169.915 1163.17 139.206 1241.79 119.577L1261.92 115.044C1308.6 105.299 1356.15 100.34 1403.85 100.248C1449.44 98.3378 1494.43 99.6494 1530.57 100.248C1552.01 100.248 1574.26 101.053 1594.78 99.5459L1637.86 96.5314L1634.86 91.791Z" fill="#199FD9"/>
<path opacity="0.2" d="M1630.43 86.1543L1606.77 87.4659C1585.03 88.5705 1563.29 89.2723 1540.55 88.674C1478.14 89.675 1370.54 84.6471 1268.27 107.601C1179.7 128.944 1111.75 163.162 1046.83 198.185C1032.33 205.434 1017.75 213.982 1001.94 221.438C939.586 254.494 872.392 277.425 802.84 289.379C685.48 308.202 571.331 289.379 515.367 276.792C454.225 262.283 394.13 243.656 335.496 221.024L309.424 211.566C278.726 200.9 247.925 189.222 213.396 177.751C162.253 160.193 110.12 145.639 57.2739 134.168L27.0827 128.127C-7.13565 121.787 -41.9638 118.06 -76.999 114.642V118.06C-42.401 120.798 -7.97557 125.262 26.1737 131.452L56.365 137.389C108.82 148.883 160.573 163.369 211.371 180.766C245.9 192.237 276.494 203.409 307.503 214.684L333.575 224.142C392.358 246.659 452.591 265.229 513.848 279.703C570.318 292.29 685.768 311.608 804.439 292.187C874.498 280.14 942.175 257.002 1004.95 223.636L1050.15 200.279C1114.67 165.958 1181.81 131.935 1269.17 110.995C1369.82 88.2483 1476.92 93.4834 1538.83 92.7816C1561.48 92.7816 1583.42 92.7816 1604.97 91.7806L1633.96 90.1698L1630.43 86.1543Z" fill="#199FD9"/>
<path opacity="0.2" d="M1625.9 80.1133H1616.84C1593.99 80.7116 1571.95 82.1268 1548.5 81.6205C1518.31 81.6205 1474.62 81.6205 1426.9 83.4269C1376.07 84.9112 1325.5 91.3543 1275.92 102.653L1261.33 106.68C1180.21 128.92 1116.8 163.15 1055.79 197.264L1013.91 221.035C951.184 255.782 883.173 279.99 812.596 292.704C694.224 312.839 579.477 292.704 523.409 279.311C463.234 264.492 404.163 245.45 346.657 222.335L318.375 210.956C287.379 199.278 256.67 187.599 222.049 175.622C170.871 157.501 118.68 142.405 65.7306 130.428C18.6373 120.165 -29.1233 113.238 -77.1946 109.706V113.031C-29.4455 116.621 17.9815 123.616 64.7296 133.971C117.3 145.811 169.122 160.734 219.943 178.66C254.967 190.844 285.17 202.212 316.074 213.89L344.355 224.763C402.253 248.05 461.715 267.219 522.316 282.142C578.982 295.431 695.041 315.865 814.725 295.626C885.842 282.786 954.336 258.267 1017.45 223.06L1059.12 200.106C1119.51 166.383 1182.22 132.464 1262.14 110.419L1276.53 106.496C1325.62 95.3468 1375.69 89.0417 1426.01 87.6725C1473.21 86.1653 1516.1 85.9582 1546.79 86.0617C1570.45 86.9707 1592.29 85.5555 1615.14 84.9572L1629.43 84.2553L1625.9 80.1133Z" fill="#199FD9"/>
<path opacity="0.2" d="M1621.17 74.0723L1556.34 75.476C1525.54 75.476 1482.26 75.476 1434.65 77.8922C1383.73 79.572 1333.13 86.5444 1283.67 98.729L1271.48 102.146C1189.65 125.802 1126.34 161.838 1065.24 197.563L1026.49 219.711C963.725 256.656 894.978 282.337 823.366 295.603C704.188 316.739 588.739 295.603 532.568 281.508C473.037 266.275 414.737 246.623 358.128 222.726L327.028 210.944C299.448 199.967 266.634 187.185 230.805 174.206C179.489 155.314 127.045 139.655 73.7847 127.298C24.0911 116.114 -26.3734 108.716 -77.1946 105.172V108.589C-26.6265 112.053 23.6194 119.359 73.0829 130.427C125.826 142.497 177.774 157.857 228.595 176.427C264.735 189.417 297.044 202.2 324.519 213.061L355.62 225.545C412.47 249.522 471 269.278 530.761 284.626C587.738 298.422 704.292 320.259 824.976 298.916C897.302 285.512 966.705 259.486 1030.01 222.012L1068.76 199.864C1129.16 164.634 1191.67 128.598 1272.29 105.345L1284.37 102.02C1333.43 90.1227 1383.58 83.3804 1434.05 81.8846C1481.15 79.8711 1524.14 79.572 1554.84 79.7676L1625.3 78.3639L1621.17 74.0723Z" fill="#199FD9"/>
<path opacity="0.2" d="M1616.24 67.7324L1563.9 68.4343C1533.71 68.4343 1489.41 68.4343 1442.31 71.8515C1391.12 73.5428 1340.3 81.079 1290.82 94.299L1280.76 97.1179C1198.02 121.579 1135.1 159.824 1074.01 197.171C1062.43 204.719 1050.46 211.266 1037.78 218.917C975.162 258.174 905.816 285.477 833.249 299.445C712.461 321.191 597.115 298.744 540.84 284.546C481.838 268.863 424.125 248.671 368.219 224.152L335.507 209.954C306.524 197.977 275.113 184.987 239.376 171.801C188.141 152.449 135.686 136.479 82.3565 123.995C29.9015 111.88 -23.4624 104.136 -77.1946 100.846V104.171C-37.8562 106.748 1.29807 111.615 40.0727 118.76L81.344 127.217C134.271 139.608 186.323 155.475 237.156 174.724C272.49 187.714 304.097 200.692 332.976 212.67L365.687 226.154C421.974 250.96 480.09 271.383 539.517 287.249C596.183 301.539 713.554 324.286 835.343 302.241C908.474 288.48 978.395 261.166 1041.48 221.713C1054.16 214.165 1066.14 207.423 1077.71 199.875C1138.11 162.93 1200.11 124.985 1281.75 100.834L1291.81 98.1189C1340.74 85.0715 1390.98 77.6733 1441.58 76.074C1488.39 73.2551 1531.68 73.0595 1562.37 73.1516L1619.84 72.2427L1616.24 67.7324Z" fill="#199FD9"/>
<path opacity="0.2" d="M1611.2 61.1875H1570.94C1540.75 61.9929 1496.56 62.0965 1449.25 65.318C1398.09 67.7227 1347.39 76.0643 1298.16 90.1818L1290.32 92.3909C1206.67 117.761 1144.17 157.812 1083.17 196.874C1072.4 204.123 1061.33 211.268 1049.65 218.217C987.139 259.522 917.138 288.172 843.604 302.565C722.816 324.909 605.756 301.863 549.389 286.86C490.778 270.648 433.56 249.777 378.275 224.453L343.953 209.553C317.179 197.979 284.87 184.183 247.925 170.1C196.759 149.919 144.258 133.305 90.8018 120.373C75.9018 116.852 60.6105 113.734 45.4114 110.915C4.87638 103.494 -36.0613 98.5925 -77.1946 96.2223V99.5475C-36.2684 102.033 4.47369 107.015 44.8016 114.447C59.7936 117.266 74.9928 120.281 89.6973 123.813C142.808 136.481 194.975 152.83 245.82 172.735C282.454 186.726 314.774 200.521 341.444 212.096L375.766 226.892C431.374 252.423 488.926 273.456 547.893 289.805C605.066 305.108 723.035 328.361 845.836 305.603C920.014 291.014 990.625 262.054 1053.69 220.346C1065.26 213.396 1076.33 205.952 1087.1 198.911C1147.5 160.159 1208.99 120.396 1291.43 95.4399L1299.19 93.3229C1347.97 79.3665 1398.27 71.2895 1448.96 69.2645C1495.77 66.0429 1539.54 66.0429 1569.75 65.5367H1614.84L1611.2 61.1875Z" fill="#199FD9"/>
<path opacity="0.2" d="M1606.07 54.4434H1578.69C1554.03 54.9496 1511.15 56.0542 1462.43 59.0687C1409.24 61.9566 1356.53 70.7929 1305.31 85.4397L1299.67 87.3496C1215.32 113.824 1153.12 155.394 1092.42 196.458L1061.21 217.398C998.737 260.441 928.206 290.436 853.867 305.566C731.676 328.716 614.604 304.968 558.041 289.263C499.764 272.465 442.96 250.891 388.239 224.739L352.812 208.838C325.635 196.562 293.028 182.168 256.888 167.866C205.584 147.34 152.876 130.519 99.155 117.541C41.2347 103.895 -17.7786 95.3346 -77.1946 91.9864V95.0009C-34.6346 97.3365 7.72982 102.445 49.634 110.303C65.8342 113.318 82.0459 116.643 97.9469 120.371C151.242 133.303 203.524 150.125 254.368 170.697C290.405 184.895 322.817 199.185 349.89 210.955L385.822 227.362C440.981 253.687 498.211 275.444 556.937 292.381C614.213 308.178 732.884 332.639 856.79 308.684C931.762 293.313 1002.87 262.984 1065.85 219.504L1096.95 198.368C1157.34 158.11 1218.34 116.436 1301.48 90.3641L1307.01 88.4542C1357.63 73.9685 1409.74 65.3277 1462.33 62.6814C1510.54 59.759 1552.91 58.8615 1577.38 58.3553H1609.89L1606.07 54.4434Z" fill="#199FD9"/>
<path opacity="0.2" d="M1600.64 47.4023H1586.05C1561.29 47.4023 1518.31 49.2087 1469.69 52.741C1416.4 55.7555 1363.64 64.937 1312.47 80.1245L1308.65 81.5282C1224.09 109.809 1161.89 151.989 1101.6 195.572L1072.51 215.707C1020.47 250.938 956.764 289.39 864.361 308.006C774.984 327.025 664.16 319.385 567.028 291.495C508.9 274.191 452.338 252.031 397.926 225.269L361.361 208.148C334.587 195.665 302.382 180.868 265.541 165.968C214.236 144.671 161.413 127.24 107.508 113.825C46.8841 99.3735 -14.9481 90.5832 -77.1946 87.5572V90.9743C-15.3623 94.0118 46.0672 102.745 106.3 117.046C159.733 130.289 212.085 147.548 262.917 168.684C299.552 183.584 331.665 198.276 358.335 210.76L394.774 227.765C449.473 254.919 506.38 277.378 564.887 294.901C663.435 322.779 775.766 330.431 866.857 311.711C960.365 292.888 1024.68 254.033 1077.02 218.308L1106.01 198.173C1165.39 155.395 1226.79 113.318 1310.13 85.233L1313.86 84.0249C1364.41 68.8489 1416.57 59.6214 1469.27 56.5494C1517.48 53.2242 1559.85 52.1197 1584.52 51.6134H1604.66L1600.64 47.4023Z" fill="#199FD9"/>
<path opacity="0.2" d="M1595.1 39.8555H1593.69C1568.93 39.8555 1526.45 41.6618 1478.35 45.9995C1424.56 49.4972 1371.38 59.3576 1319.91 75.385L1314.27 77.295C1228.31 107.486 1167.11 152.887 1111.15 195.056L1084.08 215.191C1032.54 252.032 968.822 292.29 875.015 311.723C784.43 330.742 673.698 323.102 575.565 294.407C517.783 276.527 461.669 253.631 407.868 225.96L370.221 207.643C345.46 195.769 312.243 179.857 274.492 164.059C223.107 142.014 170.065 124.043 115.861 110.316C52.5565 95.0137 -12.1177 86.0163 -77.1946 83.439V86.8562C-12.5204 89.4795 51.7396 98.4884 114.653 113.733C168.27 127.241 220.737 144.948 271.581 166.683C309.021 182.388 342.043 198.185 366.803 210.059L404.347 228.376C458.574 256.22 515.125 279.289 573.344 297.33C672.294 326.52 785.431 334.171 876.925 314.841C971.94 294.706 1035.96 254.448 1088.3 217.101C1097.46 210.462 1106.42 203.811 1115.28 197.472C1170.54 155.695 1230.83 110.109 1315.48 80.8157L1321.02 78.9058C1371.78 63.166 1424.21 53.4322 1477.23 49.9229C1524.94 45.896 1567.01 44.4923 1591.38 44.1816H1598.33L1595.1 39.8555Z" fill="#199FD9"/>
<path opacity="0.2" d="M1589.77 33.3086C1562.29 33.9069 1521.12 35.8283 1475.53 40.6607C1424.87 44.6762 1374.87 54.8127 1326.65 70.8516L1322.73 72.1633C1235.96 102.354 1175.87 151.276 1120.01 194.664L1094.74 213.787C1043.71 252.239 980.19 294.315 885.175 314.438C794.59 334.573 681.948 326.623 583.907 296.628C525.894 278.15 469.7 254.39 416.014 225.661L378.781 206.941C352.007 193.652 319.802 177.647 283.156 161.954C231.691 139.495 178.499 121.189 124.123 107.198C58.1483 90.9521 -9.31029 81.5404 -77.1946 79.1127V82.5299C-9.67847 84.8425 57.4119 94.1506 123.007 110.316C176.75 124.215 229.286 142.394 280.13 164.669C316.465 180.777 348.578 196.172 375.755 209.357L412.896 228.18C467.1 257.152 523.835 281.106 582.399 299.746C681.648 329.937 795.694 337.795 887.89 317.764C984.113 297.629 1048.03 254.85 1099.26 215.904C1107.82 209.357 1116.27 203.317 1124.32 196.781C1179.48 153.9 1238.77 105.484 1324.23 75.9947L1327.95 74.683C1376.84 58.4255 1427.56 48.2775 1478.93 44.4921C1525.23 39.7633 1566.61 38.0489 1592.77 37.7498L1589.77 33.3086Z" fill="#199FD9"/>
<path opacity="0.2" d="M1584.43 26.4629C1555.14 27.4639 1515.47 29.8801 1472.29 35.3223C1424.99 39.9476 1378.45 50.3602 1333.69 66.3186L1331.58 67.0204C1243.9 98.4195 1184.52 149.16 1129.16 194.043C1121.61 200.486 1113.85 206.63 1105.8 212.763C1055.47 253.021 991.96 296.812 895.634 317.649C764.778 346.24 638.352 313.518 592.559 299.228C534.57 280.232 478.525 255.76 425.172 226.156L387.123 206.021C360.648 192.432 328.639 175.83 291.498 159.722C240.205 136.607 187.071 117.784 132.66 103.459C63.9588 86.327 -6.39931 76.6737 -77.1946 74.6832V78.3075C-6.84803 80.3095 63.0843 89.9283 131.36 106.991C185.242 121.178 237.869 139.794 288.69 162.656C325.636 178.959 357.438 195.171 383.705 208.759L421.652 228.894C475.476 258.705 531.992 283.373 590.453 302.576C636.856 317.074 764.985 350.187 897.958 321.193C995.493 299.654 1059 255.668 1110.04 215.007C1118.1 208.966 1125.75 202.419 1133.3 196.183C1187.95 151.599 1246.54 101.365 1332.8 70.5642L1334.81 69.8623C1380.28 53.6278 1427.64 43.2497 1475.73 38.9581C1519.32 33.723 1559.28 31.5139 1587.77 30.8005L1584.43 26.4629Z" fill="#199FD9"/>
<path opacity="0.2" d="M1579.4 19.7207C1519.01 24.1504 1430.12 26.8657 1343.06 59.9791L1340.54 61.0836C1254.98 93.6908 1196.2 143.315 1138.22 192.835C1131.18 198.979 1123.93 205.112 1116.58 211.359C1066.25 252.63 1003.64 297.917 906.207 320.272C774.144 349.968 647.522 316.544 601.223 301.552C543.256 282.085 487.361 256.933 434.331 226.466L395.879 205.63C371.118 192.548 338.004 175.439 300.461 158.019C249.053 134.271 195.712 114.942 141.025 100.249C120.153 94.8183 99.2816 90.1125 78.4216 86.1545C27.0366 76.7889 -24.9812 71.4042 -77.1946 70.0466V73.8665C-4.04062 75.5808 68.6876 85.5447 139.621 103.563C193.687 118.094 246.418 137.182 297.251 160.631C334.495 177.544 367.712 194.952 392.174 208.034L430.822 228.871C484.278 259.568 540.61 284.95 599.014 304.659C645.612 319.858 774.661 353.673 908.428 323.781C1007.27 301.541 1070.28 255.139 1120.61 213.568L1142.15 195.044C1199.32 145.927 1257.3 96.8088 1341.45 64.6964L1343.97 63.5919C1385.69 48.0592 1429.23 37.9112 1473.51 33.401C1513.77 27.7632 1552.52 25.4505 1582.12 24.2424L1579.4 19.7207Z" fill="#199FD9"/>
<path opacity="0.2" d="M1574.27 13.2773C1513.88 18.1097 1432.24 23.3448 1351.11 54.8474L1347.19 56.4582C1262.44 90.7797 1204.25 141.209 1147.39 192.547L1127.26 210.358C1077.74 253.033 1015.43 300.344 916.781 323.39C783.82 353.581 656.083 319.57 609.887 304.061C551.909 284.052 496.129 258.187 443.398 226.857L404.14 205.02C379.483 191.431 346.369 173.517 308.814 156.005C257.498 131.728 204.146 112.031 149.378 97.1193C75.338 77.8933 -0.715439 67.4576 -77.1946 66.0194V70.0464C-1.22169 71.289 74.3485 81.4255 147.974 100.237C202.201 114.988 255.024 134.524 305.799 158.617C343.044 175.933 376.261 193.744 400.619 207.332L439.773 229.17C492.827 260.73 548.952 286.825 607.263 307.075C654.069 322.573 783.717 357.401 918.691 326.497C1018.75 303.048 1081.56 255.127 1131.38 212.05L1151.51 194.135C1207.58 143.809 1264.95 93.4835 1348.3 59.5647L1351.82 58.161C1415.54 32.791 1491.93 22.6315 1577.09 17.0972L1574.27 13.2773Z" fill="#199FD9"/>
<path opacity="0.2" d="M1569.53 7.04102C1490.12 13.8869 1418.55 24.7598 1358.16 49.52L1353.53 51.43C1269.58 87.5693 1212.01 138.701 1156.24 191.742C1150.1 197.38 1143.86 203.017 1137.62 208.851C1088.7 253.033 1026.9 302.162 927.056 326.117C793.186 357.919 664.643 322.389 618.343 306.592C560.4 285.939 504.747 259.361 452.257 227.271L411.998 204.421C387.537 190.43 354.826 172.217 316.776 154.095C265.472 129.174 212.004 108.958 157.041 93.7019C80.5616 73.4634 1.89638 62.7516 -77.1946 61.7966V65.1217C1.63174 66.0307 80.0323 76.7195 156.224 96.9235C210.623 111.973 263.55 131.912 314.36 156.511C352.202 174.633 384.821 192.743 409.076 206.837L448.84 229.688C501.697 262.26 557.788 289.241 616.226 310.216C663.136 326.22 793.577 362.36 929.668 330.351C1030.93 305.993 1093.13 256.369 1142.35 211.578L1160.88 194.469C1215.93 140.519 1272.51 90.1926 1355.14 54.5595L1359.77 52.6496C1420.16 27.7858 1492.33 17.12 1572.35 10.7804L1569.53 7.04102Z" fill="#199FD9"/>
<path opacity="0.2" d="M1564.5 0.597656C1490.22 8.14538 1423.58 19.8236 1366.31 43.9741L1360.38 46.3903C1276.63 83.427 1220.66 136.975 1165.71 190.925L1148.5 207.228C1100.29 253.124 1038.98 304.06 937.929 328.82C803.15 361.934 673.709 325.196 627.41 308.996C569.409 287.745 513.813 260.453 461.531 227.57L421.272 203.719C396.914 189.521 364.295 170.801 326.05 152.081C274.803 126.447 221.255 105.725 166.107 90.1809C86.7403 68.9759 4.94542 58.2871 -77.1946 58.3677V61.6928C4.38163 61.7273 85.6012 72.4506 164.382 93.5981C218.954 108.889 271.961 129.277 322.713 154.498C360.659 173.114 393.175 191.742 417.325 205.928L457.584 229.779C510.281 262.858 566.326 290.288 624.775 311.608C671.776 328.118 803.242 365.454 940.23 331.743C1042.7 306.58 1104.5 255.046 1153.02 208.643L1170.13 192.34C1224.38 138.689 1279.44 85.6477 1361.38 49.3127L1367.12 46.8965C1424.59 22.6425 1491.93 11.2634 1566.92 4.22195L1564.5 0.597656Z" fill="#199FD9"/>
</g>
</svg>
