<svg width="64" height="60" viewBox="0 0 64 60" fill="none" xmlns="http://www.w3.org/2000/svg">
<path d="M62.5165 0L35.0547 20.32L40.1615 8.34475L62.5165 0Z" fill="#E17726"/>
<path d="M1.54749 0.0244141L23.843 8.34666L28.692 20.4787L1.54749 0.0244141Z" fill="#E27625"/>
<path d="M51.465 43.2148L63.6025 43.4458L59.3607 57.8563L44.55 53.7786L51.465 43.2148Z" fill="#E27625"/>
<path d="M12.535 43.2148L19.424 53.7786L4.63825 57.8566L0.421997 43.4458L12.535 43.2148Z" fill="#E27625"/>
<path d="M28.0325 17.3877L28.5288 33.4084L13.6863 32.7332L17.908 26.3637L17.9615 26.3024L28.0325 17.3877Z" fill="#E27625"/>
<path d="M35.8135 17.209L46.0385 26.303L46.0915 26.364L50.3135 32.7335L35.474 33.4085L35.8135 17.209Z" fill="#E27625"/>
<path d="M19.8588 43.2607L27.9633 49.5755L18.5488 54.1207L19.8588 43.2607Z" fill="#E27625"/>
<path d="M44.1425 43.2598L45.4255 54.121L36.0372 49.575L44.1425 43.2598Z" fill="#E27625"/>
<path d="M36.2445 48.9805L45.7713 53.5935L36.9095 57.805L37.0015 55.0215L36.2445 48.9805Z" fill="#D5BFB2"/>
<path d="M27.7528 48.9824L27.0255 54.9759L27.0853 57.8017L18.2028 53.5934L27.7528 48.9824Z" fill="#D5BFB2"/>
<path d="M25.0018 35.5L27.4913 40.732L19.0155 38.249L25.0018 35.5Z" fill="#233447"/>
<path d="M38.998 35.5L45.0125 38.2487L36.509 40.731L38.998 35.5Z" fill="#233447"/>
<path d="M20.5065 43.207L19.1365 54.467L11.7933 43.4533L20.5065 43.207Z" fill="#CC6228"/>
<path d="M43.494 43.207L52.2075 43.4533L44.8368 54.4675L43.494 43.207Z" fill="#CC6228"/>
<path d="M50.528 32.0967L44.1867 38.5594L39.2975 36.3252L36.9567 41.2462L35.4222 32.7839L50.528 32.0967Z" fill="#CC6228"/>
<path d="M13.4688 32.0967L28.5775 32.7842L27.0427 41.2462L24.7015 36.3259L19.8382 38.5597L13.4688 32.0967Z" fill="#CC6228"/>
<path d="M13.0415 30.7705L20.216 38.0508L20.4645 45.2382L13.0415 30.7705Z" fill="#E27525"/>
<path d="M50.9657 30.7578L43.5292 45.2511L43.8092 38.0511L50.9657 30.7578Z" fill="#E27525"/>
<path d="M28.2268 31.2139L28.5155 33.0314L29.229 37.5589L28.7703 51.4654L26.6015 40.2941L26.6008 40.1786L28.2268 31.2139Z" fill="#E27525"/>
<path d="M35.7695 31.1885L37.3997 40.1785L37.399 40.294L35.2248 51.4932L35.1387 48.692L34.7995 37.4765L35.7695 31.1885Z" fill="#E27525"/>
<path d="M44.447 37.7617L44.2045 44.0062L36.6358 49.903L35.1058 48.822L36.8208 39.9882L44.447 37.7617Z" fill="#F5841F"/>
<path d="M19.5792 37.7617L27.1792 39.9882L28.8942 48.822L27.3642 49.903L19.7952 44.0055L19.5792 37.7617Z" fill="#F5841F"/>
<path d="M16.7545 52.2148L26.4375 56.8028L26.3965 54.8436L27.2065 54.1323H36.7903L37.6298 54.8411L37.5678 56.7988L47.1895 52.2263L42.5075 56.0953L36.8463 59.9836H27.129L21.4715 56.0793L16.7545 52.2148Z" fill="#C0AC9D"/>
<path d="M35.551 48.3701L36.92 49.3371L37.7222 55.7381L36.5612 54.7579H27.4422L26.3032 55.7579L27.0792 49.3376L28.4487 48.3701H35.551Z" fill="#161616"/>
<path d="M60.7035 0.5625L64 10.4517L61.9413 20.451L63.4073 21.5817L61.4235 23.0952L62.9145 24.2467L60.9403 26.0445L62.1523 26.9222L58.9358 30.6787L45.7433 26.8375L45.629 26.7762L36.1223 18.7567L60.7035 0.5625Z" fill="#763E1A"/>
<path d="M3.2965 0.5625L27.878 18.7567L18.371 26.7762L18.2568 26.8375L5.06425 30.6787L1.8475 26.9222L3.0585 26.0452L1.0855 24.2467L2.5735 23.0967L0.56 21.5787L2.08125 20.4472L0 10.4522L3.2965 0.5625Z" fill="#763E1A"/>
<path d="M45.098 25.9971L59.0762 30.0671L63.6175 44.0633H51.6365L43.3815 44.1673L49.385 32.4653L45.098 25.9971Z" fill="#F5841F"/>
<path d="M18.902 25.9971L14.6143 32.4653L20.6185 44.1673L12.3673 44.0633H0.407776L4.92353 30.0671L18.902 25.9971Z" fill="#F5841F"/>
<path d="M40.846 8.27759L36.936 18.8373L36.1065 33.1023L35.789 37.5736L35.764 48.9956H28.236L28.2115 37.5951L27.893 33.0986L27.063 18.8373L23.1537 8.27734L40.846 8.27759Z" fill="#F5841F"/>
</svg>
