<svg width="1440" height="337" viewBox="0 0 1440 337" fill="none" xmlns="http://www.w3.org/2000/svg">
<g opacity="0.2">
<path opacity="0.2" d="M1516.99 94.114C1465.85 154.179 1400.92 201.657 1327.45 232.699L1323.23 234.37C1169.53 296.5 1006.97 278.538 866.255 244.187C846.925 239.677 827.906 234.37 808.979 229.266C660.819 189.518 481.041 122.284 294.025 122.879C171.833 123.563 70.2715 156.053 -26.9641 189.226C-82.2265 208.074 -138.789 227.303 -199.183 242.223V246.049C-137.282 231.128 -79.4076 211.406 -23.0406 192.267C73.5852 159.384 174.549 126.603 295.337 126.603C480.442 125.919 659.104 192.85 806.471 232.306C825.398 237.601 844.521 242.908 863.839 247.317C1005.36 282.252 1169.03 300.516 1324.54 237.5L1328.87 235.739C1402.55 204.697 1467.74 157.231 1519.21 97.1543L1516.99 94.114Z" fill="#199FD9"/>
<path opacity="0.2" d="M1519.81 97.7488C1470.64 154.033 1409.09 198.796 1339.73 228.671L1337.21 229.748C1257.89 262.63 1166.1 277.843 1056.99 270.674C1004.95 266.49 953.274 258.682 902.383 247.317C874.505 240.933 846.016 234.561 818.333 226.899C724.319 202.072 646.31 179.006 572.431 162.021C484.837 139.527 394.666 127.916 304.081 127.478C224.07 128.858 144.657 141.143 68.1429 163.984C38.757 172.331 9.65886 181.553 -18.5189 190.685C-57.9723 203.44 -99.0481 216.791 -140.308 228.279C-160.443 233.877 -179.968 238.095 -198.884 242.706V246.431C-178.749 242.111 -158.625 237.299 -136.776 231.42C-94.998 219.932 -54.2329 206.492 -14.7795 193.736C13.4097 184.705 42.4965 175.483 71.7787 167.137C147.591 144.542 226.244 132.325 305.496 130.822C395.196 131.36 484.469 142.871 571.223 165.072C644.193 182.046 722.202 205.022 816.216 229.849C843.899 237.601 872.388 243.884 900.37 250.458C951.352 261.778 1003.08 269.575 1055.18 273.816C1164.8 281.276 1258.2 265.861 1338.52 232.598L1341.13 231.521C1410.81 201.511 1472.72 156.681 1522.32 100.307L1519.81 97.7488Z" fill="#199FD9"/>
<path opacity="0.2" d="M1522.02 100.89C1473.75 154.863 1413.84 197.764 1346.58 226.517C1267.16 260.084 1177.48 274.219 1067.35 267.443C1022.61 263.932 978.138 257.694 934.186 248.798C898.656 241.932 862.516 233.293 827.492 224.756C734.686 201.398 656.378 179.713 581.486 163.513C493.674 142.635 403.63 132.022 313.24 131.91C233.102 133.48 153.516 145.226 76.4962 166.845C47.0069 174.698 17.713 183.527 -10.4647 192.166C-49.8261 204.136 -90.4876 216.802 -132.058 227.493C-155.415 233.574 -177.552 238.387 -199.195 242.605V246.329C-176.448 242.01 -153.298 236.513 -128.733 230.623C-86.9554 219.921 -46.2938 207.266 -6.84036 195.195C21.2453 186.657 50.5391 177.828 79.925 169.975C156.37 148.547 235.334 136.902 314.851 135.332C404.285 135.41 493.398 145.922 580.278 166.643C654.663 182.742 732.776 204.428 825.375 227.684C860.307 236.322 896.539 245.05 932.069 251.928C976.182 260.936 1020.82 267.264 1065.74 270.865C1176.46 277.731 1267.06 263.606 1347.58 229.546L1356.74 225.328C1420.56 196.574 1477.5 155.121 1523.93 103.628L1522.02 100.89Z" fill="#199FD9"/>
<path opacity="0.2" d="M1524.84 104.031C1478.03 154.919 1420.62 195.475 1356.44 222.984C1255.78 266.265 1152.21 269.014 1078.33 264.01C1039.87 261.138 1001.59 256.191 963.687 249.19C921.506 241.831 878.532 231.914 837.157 222.591C745.859 200.703 667.354 180.386 591.151 164.983C503.247 145.743 413.398 136.162 323.308 136.42C242.755 137.901 162.698 149.074 84.9531 169.695C55.4637 177.155 26.0663 185.491 -2.1114 193.546C-41.4728 204.933 -81.9272 216.802 -122.899 226.719C-149.374 233.294 -174.227 238.095 -198.688 242.313V246.038C-173.226 241.719 -147.257 236.222 -119.678 229.939C-78.0038 220.123 -37.3422 208.051 2.0192 196.664C30.2084 188.621 59.4908 180.274 88.9802 172.914C166.023 152.418 245.379 141.3 325.217 139.841C414.399 139.539 503.339 149.03 590.346 168.101C666.135 183.505 744.351 203.732 835.443 225.519C876.714 235.335 919.688 245.152 961.972 252.41C1000.02 259.4 1038.43 264.403 1077.02 267.421C1151.6 272.525 1256.19 269.777 1358.15 226.102C1422.34 198.336 1479.85 157.747 1526.95 106.959L1524.84 104.031Z" fill="#199FD9"/>
<path opacity="0.2" d="M1527.25 106.982C1481.92 154.706 1427.14 192.973 1366.21 219.449C1266.15 263.124 1162.78 265.48 1089.1 260.476C1055.35 258.098 1021.76 254.037 988.447 248.304C941.238 240.843 893.432 229.95 847.524 220.044C756.938 200.411 678.216 180.79 601.426 166.452C513.464 148.884 423.868 140.301 334.088 140.84C253.306 142.568 172.972 153.169 94.6293 172.443C65.0363 179.41 35.7425 187.263 7.56477 194.824C-31.7966 205.527 -72.3546 216.712 -113.822 226.035C-143.115 232.71 -170.798 237.523 -198.171 241.64V245.275C-169.786 241.158 -141.102 236.143 -110.703 229.176C-68.9259 219.853 -28.2643 208.668 11.0856 198.067C39.2748 190.415 68.3615 182.562 97.9545 175.685C175.274 156.602 254.56 146.102 334.295 144.374C423.235 143.858 511.98 152.35 599.125 169.694C675.42 183.92 753.533 203.059 844.118 223.286C890.222 233.103 938.132 244.288 985.041 251.647C1018.78 257.526 1052.82 261.654 1087.01 264.01C1161.39 269.115 1265.87 266.949 1367.13 222.793C1428.41 196.126 1483.55 157.713 1529.28 109.831L1527.25 106.982Z" fill="#199FD9"/>
<path opacity="0.2" d="M1529.67 110.314C1493.37 147.078 1451.38 178.064 1405.26 202.173C1395.49 207.401 1385.41 212.056 1375.07 216.106C1276.62 258.603 1177.68 262.821 1098.97 257.032C1069.89 255.271 1040.09 251.535 1011.7 247.216C959.257 238.869 906.618 228.671 855.382 217.778C767.11 199.525 686.581 181.272 609.883 168.023C521.852 151.958 432.406 144.396 342.844 145.451C261.786 147.066 181.119 156.939 102.166 174.889C71.9745 181.362 43.279 188.733 14.9977 195.89C-24.2602 205.707 -64.8182 216.207 -105.79 225.328C-138.801 232.104 -169.003 237.108 -199.195 240.832V244.366C-167.991 240.642 -136.591 235.436 -103.167 228.57C-61.493 219.831 -20.8314 209.431 18.4264 199.132C46.6156 191.964 75.8059 184.604 105.387 178.131C183.742 160.282 263.799 150.41 344.248 148.693C432.969 147.672 521.576 155.2 608.767 171.164C685.165 184.313 765.487 202.565 853.76 220.235C904.892 231.42 957.531 241.629 1009.97 250.166C1038.46 254.194 1068.35 258.21 1097.55 259.983C1176.96 265.872 1277.01 261.744 1376.66 218.765C1434.92 193.355 1487.66 157.354 1532.07 112.67L1529.67 110.314Z" fill="#199FD9"/>
<path opacity="0.2" d="M1532.09 112.962C1489.69 154.572 1439.9 188.318 1385.13 212.573C1298.31 248.203 1203.85 262.496 1110.04 254.183C1085.28 251.928 1060.22 250.065 1035.95 246.139C978.782 238.678 921.011 226.506 864.84 215.613C777.166 198.145 696.648 181.945 619.145 169.582C531.137 154.83 441.886 148.256 352.613 149.95C271.347 151.857 190.461 161.314 111.037 178.21C80.8455 184.29 52.1499 191.066 23.9722 197.842C-15.2856 207.165 -55.8436 216.78 -96.8158 224.835C-130.539 231.218 -162.341 236.02 -194.247 239.363H-198.389V242.897H-192.049C-160.742 239.262 -128.733 234.55 -94.7103 227.976C-52.9326 219.932 -12.3746 210.306 26.9867 200.984C55.0724 194.309 84.1591 187.532 113.856 181.351C192.947 164.579 273.499 155.178 354.419 153.282C442.933 151.734 531.39 158.308 618.639 172.914C696.038 185.277 776.165 201.477 863.54 218.451C919.309 229.636 976.976 241.517 1034.15 249.168C1058.51 252.994 1083.67 255.058 1108.43 257.212C1203.24 265.974 1298.81 251.782 1386.64 215.893C1441.66 191.448 1491.71 157.534 1534.4 115.789L1532.09 112.962Z" fill="#199FD9"/>
<path opacity="0.2" d="M1534.1 115.811C1493.38 154.381 1446.24 185.939 1394.69 209.151C1298.37 250.278 1199.52 255.574 1120.51 249.976C1099.67 248.506 1078.64 246.049 1057.8 243.895C996.306 235.941 934.497 223.578 874.31 212.685C787.947 196.978 707.326 182.069 628.511 170.973C540.457 157.915 451.413 152.339 362.381 154.291C280.679 156.423 199.321 165.387 119.194 181.081L32.3255 199.043C-7.03587 207.681 -47.6974 216.712 -89.4635 224.072C-122.98 229.86 -154.886 233.888 -186.895 237.029C-190.922 237.029 -195.455 237.029 -199.574 237.915V241.348L-184.881 240.372C-152.469 237.624 -120.357 233.204 -86.6446 227.314C-44.6714 220.055 -3.90628 211.024 35.5472 202.386C63.5293 196.204 92.3169 189.922 121.806 184.324C201.404 168.741 282.22 159.844 363.382 157.724C451.678 155.57 540.008 161.079 627.303 174.216C705.611 185.311 786.037 200.131 871.997 215.826C932.391 226.719 993.786 239.284 1055.19 247.137L1118.2 253.521C1197.82 259.209 1297.67 253.521 1395.41 212.303C1447.46 189.013 1495.09 157.331 1536.33 118.571L1534.1 115.811Z" fill="#199FD9"/>
<path opacity="0.2" d="M1536.22 118.458C1497.31 154.145 1452.72 183.426 1404.15 205.123C1309.74 246.543 1214.02 251.445 1130.87 246.15C1113.86 245.466 1096.34 243.11 1079.03 241.248C1013.51 233.686 948.177 221.031 883.56 210.239C798.912 195.913 717.98 182.36 637.865 172.252C549.799 160.877 460.94 156.355 372.138 158.711C290.148 161.101 208.445 169.504 127.743 183.841L42.3816 200.423C1.00667 208.769 -38.1476 216.813 -79.9137 223.387C-113.534 228.683 -145.439 232.519 -177.449 234.875C-184.191 234.875 -191.739 235.56 -198.688 235.952V239.385C-191.14 239.385 -182.891 238.802 -175.539 238.207C-143.23 235.851 -111.014 232.026 -77.1984 226.719C-35.1216 220.044 5.8391 211.709 45.4996 203.654L131.16 187.162C211.195 172.858 292.219 164.455 373.542 162.032C461.642 159.654 549.811 164.22 637.163 175.674C716.783 185.49 797.301 199.031 881.754 213.459C945.668 224.161 1011.3 237.018 1076.93 244.669C1094.24 246.341 1111.86 248.888 1128.86 249.572C1212.81 255.069 1309.34 250.155 1405.06 208.354C1454.04 186.511 1499.05 157.04 1538.33 121.106L1536.22 118.458Z" fill="#199FD9"/>
<path opacity="0.2" d="M1537.83 120.523C1500.97 153.562 1459.02 180.756 1413.52 201.096C1320.61 242.706 1224.68 247.62 1141.24 242.223C1127.45 241.247 1113.86 240.552 1099.87 238.69C1030.42 231.521 960.868 218.372 892.719 207.771C809.279 194.622 728.151 182.551 647.116 173.621C559.085 163.805 470.444 160.293 381.884 163.12C299.571 165.689 217.523 173.554 136.281 186.68L52.4377 201.499C10.3609 209.252 -29.3917 216.712 -72.0783 222.703C-105.595 227.516 -137.408 230.747 -169.51 232.519C-179.105 233.237 -189 233.922 -199.206 234.584V238.016C-188.333 238.016 -177.863 237.13 -167.6 236.547C-135.188 234.483 -102.983 231.252 -69.2594 226.73C-26.3772 220.74 13.3754 213.279 55.6593 205.437L139.099 190.718C219.87 177.604 301.447 169.739 383.287 167.159C471.088 164.186 558.981 167.439 646.299 176.874C726.828 185.804 807.346 197.775 890.694 210.934C958.532 221.536 1027.99 234.785 1097.44 242.145C1111.43 243.906 1125.12 244.793 1138.91 245.679C1222.96 251.176 1320.09 246.565 1414.1 204.36C1460.04 183.864 1502.39 156.479 1539.62 123.193L1537.83 120.523Z" fill="#199FD9"/>
<path opacity="0.2" d="M1539.33 122.486C1504.47 152.788 1465.24 177.918 1422.87 197.079C1336.31 235.066 1248.94 245.073 1151.11 238.398L1119.4 235.851C1046.32 228.884 973.444 215.242 901.774 204.932C819.646 193.534 738.311 182.551 656.378 174.889C568.37 166.755 479.902 164.265 391.549 167.428C308.914 170.199 226.509 177.581 144.737 189.507L62.5053 202.756C20.1293 209.925 -20.0375 216.69 -63.0117 222.389C-96.229 226.708 -128.135 229.356 -160.547 230.926C-172.823 231.51 -185.71 231.902 -198.999 232.205V235.537C-185.111 235.537 -171.615 234.954 -158.74 234.359C-126.029 232.688 -93.9164 230.04 -60.5034 225.822C-17.2186 220.426 22.9368 213.649 65.5198 206.189L147.752 192.94C229.121 181.037 311.123 173.7 393.355 170.951C481.087 167.585 568.957 169.986 656.367 178.12C737.793 185.771 818.725 196.765 900.555 208.152C972.017 218.462 1044.7 232.194 1117.77 239.262L1149.89 241.808C1248.03 248.585 1336.41 238.869 1424.17 200.288C1466.95 180.969 1506.6 155.637 1541.84 125.111L1539.33 122.486Z" fill="#199FD9"/>
<path opacity="0.2" d="M1540.84 124.348C1508.02 151.913 1471.52 175.023 1432.33 193.052C1346.88 230.545 1259.41 240.653 1161.86 234.471L1138.91 232.609C1062.31 226.035 986.215 211.899 910.921 202.184C828.586 191.481 749.874 182.551 665.721 176.179L658.875 175.685C573.203 169.526 487.219 168.281 401.398 171.961C319.867 175.102 238.441 181.182 153.286 192.468L72.5728 204.136C29.6906 210.609 -10.8674 216.802 -54.3594 221.413C-87.2775 225.137 -119.183 227.202 -151.894 228.379C-166.587 228.873 -182.086 229.064 -198.896 229.165V232.598C-181.89 232.598 -165.575 232.598 -150.283 231.812C-117.365 230.533 -85.1605 228.48 -51.9432 224.846C-8.25558 220.134 32.3024 213.952 75.2881 207.479L155.817 195.699C240.673 184.514 321.697 178.423 402.928 175.674C488.186 171.927 573.594 173.139 658.691 179.309L665.433 179.802C748.873 186.085 827.493 195.307 909.322 205.123C984.306 214.939 1060.3 229.075 1136.8 235.739L1159.76 237.601C1258.2 244.175 1346.47 233.877 1433.14 195.991C1472.8 177.817 1509.73 154.471 1542.95 126.603L1540.84 124.348Z" fill="#199FD9"/>
<path opacity="0.2" d="M1542.15 126.603C1526.25 138.675 1510.25 150.645 1493.63 161.449C1476.74 171.489 1459.33 180.7 1441.49 189.024C1347.68 230.444 1254.17 235.638 1171.83 230.444L1156.83 229.266C1080.94 223.578 998.307 208.758 919.792 199.828C838.561 190.012 759.746 182.944 674.902 177.839C587.021 172.746 498.909 172.32 410.982 176.56C329.452 180.094 245.298 185.692 161.754 195.599L82.6404 205.123C39.1599 211.013 -1.91589 216.51 -45.9026 220.527C-78.7172 223.567 -110.623 225.239 -143.541 226.024C-160.949 226.024 -179.577 226.024 -199.206 226.024V229.356C-179.071 229.356 -160.052 229.356 -142.137 229.356C-109.023 228.571 -76.8072 226.809 -43.6935 223.859C0.488815 219.741 41.6681 214.042 85.2521 208.354L164.366 198.538C247.611 188.722 331.454 183.034 412.685 179.5C500.083 175.304 587.642 175.73 674.994 180.779C758.745 185.49 837.548 193.052 918.077 202.666C996.087 211.989 1078.62 226.91 1154.52 232.699L1169.51 233.978C1252.55 239.374 1346.86 233.978 1442.09 192.267C1478.56 175.225 1512.73 153.865 1543.84 128.668L1542.15 126.603Z" fill="#199FD9"/>
<path opacity="0.2" d="M1543.45 127.68C1528.66 138.574 1513.26 149.175 1498.56 159.183C1483.86 169.19 1466.95 176.942 1451.05 184.705C1358.95 226.024 1264.84 231.229 1182.1 226.024H1175.15C1096.34 220.919 1010.78 205.908 929.054 196.586C847.328 187.263 769.814 182.259 684.36 178.625C606.753 175.382 521.3 175.775 420.946 180.487C337.805 184.212 253.157 189.518 170.418 198.055L92.708 206.795C48.6177 212 6.9436 216.611 -38.1477 220.246C-70.7552 222.703 -102.672 223.971 -135.682 224.173C-155.818 224.173 -176.747 224.173 -200 223.387V226.719C-176.24 227.404 -154.702 227.796 -134.371 227.605C-101.154 227.605 -68.9488 226.035 -36.0306 223.578C8.86508 220.246 50.6312 215.332 94.825 210.127L173.237 201.387C255.676 192.85 339.922 187.644 422.867 183.819C522.623 179.208 607.57 178.714 684.567 181.957C769.423 185.289 847.927 191.773 927.858 199.918C1007.78 208.063 1094.54 223.959 1173.36 229.356H1180.2C1263.55 234.651 1358.57 229.356 1451.97 187.745C1468.08 179.892 1484.28 171.355 1500.18 161.931C1516.08 152.507 1530.37 141.031 1545.67 129.935L1543.45 127.68Z" fill="#199FD9"/>
<path opacity="0.2" d="M1544.66 129.251C1518.42 149.03 1490.11 166.071 1460.21 180.094C1369.62 221.806 1279.03 226.809 1192.16 221.705C1110.82 216.802 1022.95 202.072 938.098 193.826C858.581 186.366 779.363 181.654 693.599 179.691C617.5 177.727 534.669 179.69 430.783 184.694C345.525 188.811 260.371 193.523 179.14 200.883L104.248 208.141C59.4561 212.651 17.0802 216.881 -28.5173 219.629C-61.0327 221.492 -93.0419 222.378 -126.052 222.086C-148.097 222.086 -172.248 221.2 -199.022 220.123V223.455C-171.742 224.532 -147.28 225.418 -124.936 225.418C-91.5231 225.418 -59.4104 225.418 -26.5958 222.961C19.1973 220.314 61.6768 216.095 106.572 211.473L181.36 204.215C262.488 196.855 347.447 192.244 433.004 188.026C536.372 183.123 618.811 180.958 694.704 182.922C780.365 185.076 858.777 189.698 937.683 197.057C1022.14 205.303 1109.81 220.123 1191.03 225.227C1278.2 230.433 1370.3 225.227 1461.9 183.415C1492.3 169.19 1521.07 151.879 1547.76 131.786L1544.66 129.251Z" fill="#199FD9"/>
<path opacity="0.2" d="M1545.87 130.732C1521.88 147.986 1496.27 162.963 1469.37 175.483C1380.49 216.219 1292.82 223.085 1202.23 217.397C1125.53 213.077 1034.63 197.764 946.958 190.999C868.442 184.817 789.535 181.183 702.862 181.183C629.685 180.397 547.05 184.122 440.552 189.428C352.579 194.039 267.021 198.067 187.505 204.147L115.731 210.037C69.8345 213.964 26.4461 217.599 -20.0489 219.854C-52.2537 221.222 -84.1709 221.615 -117.584 220.83C-141.746 220.83 -167.91 219.158 -199.218 217.587V220.919C-168.014 222.591 -140.941 223.859 -116.583 224.251C-82.8592 225.037 -50.7579 224.251 -18.3461 223.275C28.4596 221.413 72.2392 217.778 117.837 213.459L189.61 207.569C268.931 201.489 354.281 197.753 442.059 192.85C548.051 187.454 630.283 183.718 703.057 184.503C789.316 185.087 867.625 188.531 945.738 194.32C1032.8 201.186 1123.59 216.499 1199.99 220.919C1291.38 226.708 1379.86 220.235 1469.95 178.916C1497.4 166.217 1523.51 150.959 1547.96 133.38L1545.87 130.732Z" fill="#199FD9"/>
<path opacity="0.2" d="M1546.78 131.809C1525.21 146.752 1502.38 159.878 1478.54 171.063C1390.86 210.912 1306.51 218.664 1212.2 213.268C1126.05 208.062 1039.37 193.635 955.828 188.048C877.117 182.843 800.718 181.182 712.043 181.968C641.581 182.461 561.064 187.072 450.343 193.456L196.088 206.514L128.249 211.024C81.1447 214.266 36.4561 217.206 -11.3621 218.384C-43.5669 219.27 -75.484 219.068 -108.897 217.89C-139.088 216.914 -169.291 215.04 -199.482 213.178V216.51C-169.291 218.372 -138.283 220.336 -108.287 221.323C-74.5635 222.501 -42.4623 222.691 -10.0504 221.816C38.0669 220.638 82.7555 217.699 129.964 214.457L197.71 209.846L451.666 196.597C562.387 190.213 641.904 185.704 712.158 185.109C800.028 184.133 876.128 185.995 954.436 191.189C1037.38 196.687 1123.74 211.305 1209.7 216.611C1304.93 222.501 1389.87 214.547 1478.86 174.317C1503.21 163.008 1526.52 149.68 1548.52 134.468L1546.78 131.809Z" fill="#199FD9"/>
<path opacity="0.2" d="M1547.08 132.302C1528.06 144.867 1508.22 156.21 1487.7 166.262C1401.53 205.516 1316.58 213.571 1222.06 208.556C1140.43 204.439 1050.24 188.923 964.688 184.806C886.678 180.386 810.487 180.487 721.305 182.843C636.45 185.098 546.267 192.659 460.307 197.461L204.544 209.24L141.631 212.483C92.9151 215.13 46.7077 217.385 -2.70978 217.778C-34.719 217.778 -66.6246 217.778 -100.245 215.916C-131.046 214.345 -163.25 212.09 -199.195 209.442V212.774C-163.055 215.422 -130.551 217.778 -99.5427 219.247C-65.52 220.818 -33.4073 221.603 -1.2025 221.211C48.4221 221.211 94.6179 218.563 143.541 215.916L206.351 212.673L461.815 200.804C547.579 195.598 637.359 188.441 721.811 186.085C810.291 183.83 885.976 183.628 963.387 188.149C1048.44 192.76 1138.23 207.782 1219.66 212.191C1315.07 217.295 1400.84 209.543 1488.11 169.795C1509.02 159.508 1529.19 147.863 1548.5 134.95L1547.08 132.302Z" fill="#199FD9"/>
<path opacity="0.2" d="M1547.39 132.695C1530.68 142.512 1514.07 153.113 1497.06 161.651C1405.46 203.754 1314.37 208.466 1231.93 203.754C1149.49 199.042 1061.32 185.502 973.547 181.766C892.569 178.512 811.465 179.23 730.567 183.92C655.48 187.162 575.964 194.622 470.076 201.589C368.721 207.973 284.867 209.442 213.197 212.09L155.817 214.154C105.491 216.016 57.27 217.587 5.94258 217.194C-25.5603 217.194 -57.466 215.826 -91.5922 213.862L-199.195 205.123V208.455L-90.9939 216.891C-56.6721 218.956 -24.5593 220.223 7.24272 220.324C58.7773 220.818 106.791 219.146 157.52 217.284L214.796 215.22C286.466 212.471 370.205 211.103 471.675 204.618C577.264 197.651 656.585 190.191 731.166 186.859C820.14 182.349 895.641 181.362 972.742 184.705C1059.91 188.822 1148.88 202.857 1229.82 207.086C1312.96 211.989 1404.75 207.086 1497.66 164.882C1515.38 156.142 1532.38 145.249 1549.7 134.95L1547.39 132.695Z" fill="#199FD9"/>
<path opacity="0.2" d="M1547.58 132.886C1533.59 140.93 1519.9 149.568 1505.91 156.535C1416.73 198.74 1328.35 203.541 1241.48 199.031C1154.61 194.521 1067.85 181.564 982.292 178.613C901.383 176.538 820.405 178.568 739.714 184.694L479.925 205.695C446.305 208.051 413.191 209.521 381.285 210.699L221.642 214.939L171.316 216.016C118.17 217.093 67.8439 217.98 14.0887 216.701C-16.8159 216.016 -48.7215 214.345 -83.4461 211.798L-199.195 201.589V205.123L-82.33 214.939C-47.5019 217.486 -15.3892 219.057 15.711 219.842C69.7654 221.121 120.195 219.842 173.444 219.158L223.575 218.372L383.115 214.154C415.124 212.875 448.134 211.507 481.858 209.05L740.831 187.947C820.957 181.799 901.36 179.791 981.705 181.957C1066.56 184.896 1152.82 197.663 1239.58 202.666C1326.35 207.67 1416.13 202.666 1506.73 160.069C1521.22 152.81 1535.51 143.88 1550.01 135.534L1547.58 132.886Z" fill="#199FD9"/>
<path opacity="0.2" d="M1547.69 132.987C1536.62 139.068 1525.85 145.945 1514.77 151.341C1427.6 192.951 1341.64 198.841 1256.59 194.622H1251.25C1168.81 190.404 1078.02 177.346 991.059 175.977C910.415 174.889 829.759 178.165 749.483 185.793C675.903 191.874 597.088 202.285 503.385 209.151L490.303 210.127C428.194 214.547 367.099 216.308 312.745 217.093L230.709 217.98H191.347C134.681 217.98 80.6268 218.473 23.7536 216.117C-6.94395 214.939 -38.8496 212.875 -73.7812 209.734L-199.195 197.461V200.793L-73.8733 213.156C-38.746 216.196 -6.6333 218.26 24.2713 219.539C81.6508 221.794 135.498 221.794 192.371 221.401H231.629L313.666 220.425C368.019 219.64 429.218 217.969 491.419 213.459L504.501 212.483C598.009 205.123 676.524 195.307 749.897 188.733C829.759 180.992 910.012 177.716 990.265 178.916C1076.52 180.487 1166.91 193.444 1248.95 197.853H1254.38C1340.04 202.173 1426.81 196.776 1515.18 154.673C1526.86 148.985 1538.23 141.816 1549.8 135.04L1547.69 132.987Z" fill="#199FD9"/>
<path opacity="0.2" d="M1547.69 132.987C1539.63 137.205 1531.79 142.803 1523.63 146.236C1438.07 186.971 1354.12 193.243 1271.09 190.012C1267.76 190.012 1264.34 190.012 1261.02 189.518C1179.09 185.401 1088.49 172.443 999.918 172.241C919.182 172.41 838.526 177.099 758.342 186.276C692.61 193.052 623.46 202.857 540.928 210.419L499.761 213.851C420.347 219.842 344.248 220.628 276.812 220.628H238.866H211.793C148.281 220.628 93.1221 219.349 31.9227 215.815C1.73146 214.143 -30.5884 211.597 -65.5085 207.962L-182.787 195.307L-199.195 193.243V196.575L-182.684 198.246L-65.3244 211.103C-30.0936 214.637 1.91554 217.183 32.7166 218.956C94.1116 222.49 149.374 223.376 213.093 223.769H240.074H277.917C345.456 223.769 421.751 222.883 501.268 216.993L542.539 213.459C624.875 205.897 693.519 195.991 759.355 189.215C838.768 180.207 918.664 175.685 998.618 175.674C1086.38 175.674 1176.58 188.823 1258.21 193.142L1268.28 193.725C1352.03 197.158 1436.68 190.977 1523.44 149.759C1532.2 145.642 1540.55 139.943 1549.22 135.623L1547.69 132.987Z" fill="#199FD9"/>
<path opacity="0.2" d="M1547.58 132.886L1532.59 140.93C1448.54 181.171 1366.41 187.745 1285.08 184.997L1270.39 184.503C1193.48 181.362 1098.76 168.214 1008.69 168.797C927.857 170.132 847.19 176.224 767.11 187.05C708.131 194.409 647.024 204.125 573.847 211.877L509.23 217.957C416.228 225.216 325.332 224.532 252.052 223.253H243.699C171.626 221.884 109.219 220.01 40.8742 215.007C10.683 212.853 -21.6369 209.801 -56.6606 205.785L-157.313 193.613L-199.195 188.923V192.255L-157.82 196.967L-56.6606 209.038C-21.5333 213.066 10.4759 216.106 41.2769 218.855C109.829 223.858 172.133 225.721 244.596 227.101H253.755C327.035 228.379 418.127 228.963 511.439 221.805L575.86 214.94C648.933 206.985 709.937 197.371 768.721 190.012C847.915 179.242 927.719 173.206 1007.67 171.949C1097.26 171.164 1191.67 184.615 1268.16 187.947H1282.86C1364.89 190.887 1447.63 184.413 1532.89 143.779L1549.7 134.748L1547.58 132.886Z" fill="#199FD9"/>
<path opacity="0.2" d="M1547.48 132.695L1541.54 135.837C1459 175.091 1378.59 182.361 1298.86 180.094L1279.74 179.309C1202.94 176.168 1108.63 164.097 1016.83 165.465C936.544 168.023 856.498 175.495 777.166 187.847C723.319 195.307 666.445 205.123 603.232 213.066C576.654 216.6 548.879 219.45 519.482 221.996C431.761 228.279 343.742 229.625 255.86 226.024C181.982 223.668 119.574 220.729 49.3195 214.446C19.1282 211.799 -12.8809 208.164 -48.1117 203.743L-136.189 192.166L-197.388 184.705L-199.195 184.515V187.948H-197.388L-136.292 195.307L-48.2153 207.087C-12.7889 211.597 19.2203 215.13 49.6187 217.789C120.08 224.173 182.683 227.606 256.769 229.367C344.846 233.069 433.073 231.723 520.989 225.34C550.582 222.793 578.357 219.842 605.039 216.409C670.369 207.973 724.722 198.65 778.063 191.089C856.855 178.759 936.36 171.321 1016.12 168.808C1107.31 167.44 1201.03 179.803 1277.82 183.034L1296.94 183.718C1377.47 186.175 1457.99 179.5 1542.14 139.46L1549.79 135.343L1547.48 132.695Z" fill="#199FD9"/>
<path opacity="0.2" d="M1546.88 132C1467.07 169.683 1389.65 176.852 1312.66 175.181L1289 174.104C1218.54 171.164 1119.6 159.968 1025.38 162.032C945.082 165.689 865.116 174.541 786.025 188.531C737.505 195.991 686.673 206.2 630.409 214.143C598.607 218.563 565.39 222.882 529.756 225.923C441.61 232.587 353.107 233.529 264.835 228.772C188.333 225.339 126.938 221.121 58.3861 213.851C28.8967 210.811 -2.9169 206.683 -39.0452 201.78L-113.534 191.178L-189.127 181.171C-192.452 181.171 -195.869 181.171 -199.195 180.285V183.617C-195.973 183.617 -192.452 184.111 -189.127 184.503L-113.741 194.32L-39.5629 205.112C-3.3311 210.116 28.586 214.143 58.271 217.284C127.018 224.543 188.517 228.772 265.215 232.104C353.786 237.018 442.6 236.064 531.045 229.255C567.081 226.214 600.402 221.895 632.308 217.374C688.479 209.521 739.3 199.121 787.417 191.762C865.887 177.952 945.208 169.291 1024.86 165.847C1118.18 163.883 1216.11 175.663 1286.56 178.21L1310.12 179.287C1388.32 181.25 1467.14 174.283 1548.87 135.321L1546.88 132Z" fill="#199FD9"/>
<path opacity="0.2" d="M1545.87 130.631C1471.08 164.197 1398.11 171.063 1325.74 169.885C1316.78 169.885 1307.62 169.885 1298.36 168.999C1227.89 166.452 1128.96 154.773 1033.84 159.182C953.619 163.502 873.849 173.666 795.184 189.608C751.094 197.461 704.599 207.367 654.261 215.523C618.328 221.413 580.681 226.708 539.306 230.343C450.7 237.422 361.668 237.983 272.97 232.014C189.932 227.302 130.033 221.514 66.6244 213.862C37.6412 210.328 6.23032 205.819 -30.7149 200.321L-93.0189 190.505L-180.889 177.648C-186.929 176.964 -193.166 176.571 -199.206 175.685V179.017C-193.269 179.6 -187.021 179.993 -181.084 180.689L-93.318 193.153L-31.014 202.969C5.72404 208.365 37.6297 212.785 66.7279 216.51C130.344 224.756 190.438 230.152 273.879 234.572C362.911 240.507 452.276 239.912 541.216 232.811C582.787 229.086 620.434 223.78 656.47 217.8C706.796 209.655 753.199 199.839 797.393 191.795C875.368 176.055 954.436 165.992 1033.93 161.662C1128.14 157.836 1226.18 169.515 1296.64 172.162C1305.8 172.162 1315.17 173.441 1324.12 173.34C1397.8 174.81 1471.88 167.843 1548.59 133.2L1545.87 130.631Z" fill="#199FD9"/>
<path opacity="0.2" d="M1544.66 129.161C1474.2 158.599 1406.36 165.084 1338.62 164.298C1328.55 164.298 1318.48 164.298 1307.62 163.715C1196.9 157.825 1116.37 150.365 1042.39 155.278C962.26 160.574 882.697 172.062 804.435 189.63L676.513 215.916C637.059 222.782 595.984 229.457 549.282 233.776C460.192 240.99 370.631 240.99 281.541 233.776C203.831 228.38 142.137 221.503 75.2995 212.281L-21.9361 197.36L-72.2625 188.923C-103.973 183.628 -136.879 178.524 -172.317 173.711C-180.969 172.533 -190.036 172.039 -198.792 171.063V174.395C-190.036 175.371 -181.073 175.865 -172.421 177.043C-137.19 181.755 -104.375 186.859 -72.6653 192.154L-22.3388 200.591L75.2995 215.602C142.332 224.823 204.337 231.79 282.151 237.198C371.666 244.209 461.619 244.007 551.1 236.614C597.606 232.194 639.177 225.62 678.734 218.552L806.367 192.244C883.882 174.743 962.72 163.356 1042.1 158.184C1115.47 153.371 1195 160.731 1305.51 166.822C1316.18 167.709 1326.14 167.406 1336.61 167.608C1405.66 168.584 1475.21 162.01 1547.09 131.584L1544.66 129.161Z" fill="#199FD9"/>
<path opacity="0.2" d="M1543.36 127.49C1482.09 150.073 1416.89 160.776 1351.41 158.992L1316.68 158.207C1207.37 153.203 1124.43 145.642 1050.65 151.632C970.694 158.207 891.43 171.074 813.605 190.101C776.97 198.538 738.518 207.771 697.051 216.308C651.534 225.799 605.534 232.968 559.257 237.803C469.707 245.589 379.605 245.331 290.102 237.018C216.418 231.027 154.724 223.174 83.9635 212.281L-13.2722 195.89L-52.3229 188.923C-87.7493 182.641 -124.395 176.358 -164.355 170.771C-175.826 169.201 -187.505 167.922 -199.183 166.553V169.885C-187.608 171.254 -176.033 172.432 -164.654 174.103C-124.395 179.601 -88.152 185.883 -52.8291 192.165L-13.7784 199.132L83.7563 215.624C154.218 226.517 216.626 234.37 290.504 240.361C380.445 248.786 470.984 249.022 560.971 241.045C607.443 236.266 653.605 229.019 699.271 219.36C740.738 211.013 779.087 201.499 815.63 193.153C892.673 174.204 971.177 161.426 1050.36 154.976C1123.43 149.187 1205.68 156.546 1314.58 162.043L1349.2 162.728C1416.24 164.904 1483.07 153.921 1545.69 130.44L1543.36 127.49Z" fill="#199FD9"/>
<path opacity="0.2" d="M1542.15 125.717C1484.88 145.159 1424.53 154.594 1363.89 153.596L1325.84 152.519C1216.93 148.491 1133.49 140.739 1059.21 147.908C979.461 155.794 900.508 170.065 823.166 190.595L716.07 216.802C667.676 227.965 618.639 236.266 569.21 241.629C479.188 249.864 388.534 249.202 298.65 239.666C228.189 233.092 166.897 224.453 92.7079 211.697L0.707428 195.307L-33.8215 188.733C-72.2739 181.474 -112.13 174.115 -156.117 167.731C-170.315 165.667 -184.801 164.007 -199.195 162.335V165.667C-184.904 167.339 -170.511 168.999 -156.52 171.063C-126.927 175.281 -99.2436 179.993 -72.6767 184.907L-5.24107 197.472L92.7079 214.94C167.197 227.695 228.994 236.435 299.352 242.908C389.638 252.545 480.707 253.173 571.12 244.77C620.687 239.43 669.863 231.095 718.383 219.842L824.972 193.635C901.624 173.116 979.91 158.936 1059 151.24C1132.48 144.273 1215.32 151.823 1323.62 156.344L1361.67 157.421C1423.88 158.666 1485.81 148.929 1544.47 128.668L1542.15 125.717Z" fill="#199FD9"/>
<path opacity="0.2" d="M1540.44 123.855C1487.3 140.47 1431.75 148.525 1375.96 147.706C1362.48 148.199 1348.38 147.706 1334.59 146.819C1225.67 142.893 1142.44 136.319 1067.15 144.172C987.561 153.158 908.919 168.853 832.118 191.089L733.973 217.194C683.106 230.096 631.376 239.497 579.162 245.365C488.738 254.115 397.6 253.128 307.395 242.425C224.15 233.596 159.235 222.007 101.452 211.215L4.42378 191.582L-14.2962 187.858C-54.555 179.814 -99.1516 170.783 -147.66 163.513C-164.574 160.966 -181.786 158.902 -198.999 156.939V160.271C-181.89 162.234 -164.781 164.197 -148.063 166.845C-99.7499 174.014 -54.7506 183.033 -15.1016 190.988L3.61838 194.813L100.958 214.446C158.832 225.238 223.955 236.917 307.498 245.757C398.337 256.539 490.13 257.492 581.187 248.607C633.711 242.762 685.752 233.282 736.907 220.246L834.844 194.14C910.886 172.05 988.746 156.445 1067.56 147.526C1141.95 139.673 1224.68 146.55 1332.79 150.667C1346.59 150.667 1360.88 152.137 1374.36 151.644C1431.54 152.462 1488.44 144.004 1542.76 126.615L1540.44 123.855Z" fill="#199FD9"/>
<path opacity="0.2" d="M1538.32 121.106C1489.32 135.231 1438.44 142.209 1387.34 141.816C1372.65 141.816 1358.26 141.816 1343.06 141.233C1235.45 137.205 1150.1 132.201 1075.01 140.447C983.005 150.264 906.906 172.634 840.977 191.481L750.887 217.194C697.856 232.16 643.664 242.829 588.827 249.089C497.816 258.176 406.034 256.864 315.346 245.163C239.959 236.232 178.449 224.745 109.61 210.62L12.478 190.011L4.32034 188.25C-38.5618 179.118 -87.2775 168.617 -140.02 160.574C-158.947 157.432 -179.071 154.785 -199.206 152.429V156.064C-179.071 158.319 -158.947 160.966 -140.02 164.107C-87.4731 172.252 -38.861 182.652 3.81409 191.683L11.9717 193.444L109.207 214.154C178.564 228.379 240.063 239.867 315.748 248.696C407.035 260.543 499.439 261.856 591.036 252.623C646.103 246.307 700.537 235.571 753.798 220.526C785.703 212.09 815.193 202.666 843.681 194.712C912.129 175.079 984.604 153.786 1075.19 144.071C1149.37 135.926 1234.12 141.221 1341.02 145.249C1356.12 146.225 1371.21 146.225 1385.31 146.034C1437.9 146.685 1490.27 139.46 1540.62 124.64L1538.32 121.106Z" fill="#199FD9"/>
<path opacity="0.2" d="M1535.91 118.167C1491.41 129.992 1445.53 136.128 1399.41 136.42H1352.31C1244.41 132.101 1159.25 128.174 1083.55 137.598C992.06 148.199 919.482 170.962 850.642 192.457C824.167 200.703 796.991 209.633 767.605 218.171C712.665 234.83 656.309 246.689 599.206 253.599C507.654 262.888 415.274 260.948 324.217 247.81C244.194 237.411 181.383 223.959 118.481 210.127L46.9149 193.837L21.5446 188.048C-23.4432 178.232 -74.7821 166.363 -131.356 157.13C-153.701 153.405 -176.448 150.454 -199.298 147.908V151.24C-176.551 153.786 -154 156.737 -131.955 160.372C-75.1848 169.594 -24.3521 180.981 20.44 191.291L45.9023 196.978L117.572 213.268C180.682 227.202 243.699 240.653 324.217 251.154C415.952 264.044 508.965 265.693 601.116 256.056C658.461 249.067 715.046 237.108 770.217 220.336L853.058 194.622C921.208 173.228 993.176 150.847 1083.55 140.055C1158.54 131.024 1242.99 134.95 1349.99 139.37C1366.1 140.156 1381.39 139.37 1397.2 139.864C1444.83 139.965 1492.23 133.716 1538.13 121.319L1535.91 118.167Z" fill="#199FD9"/>
<path opacity="0.2" d="M1533.4 114.925C1512.4 119.637 1491.83 123.53 1471.69 126.603C1451.06 128.567 1430.82 129.846 1410.79 130.631L1360.46 130.137C1252.86 126.805 1167.2 122.385 1091.31 133.469C1000.01 145.44 927.95 169.392 859.801 192.356L783.298 217.969C726.701 236.3 668.47 249.437 609.365 257.223C517.33 267.118 424.352 265.076 332.869 251.142C256.067 240.35 194.362 226.113 127.329 210.317L71.9745 196.877L30.3004 187.061C-15.999 175.876 -62.1028 165.274 -113.741 156.142L-123.003 154.572C-147.856 149.377 -173.422 146.236 -199.195 143.286V146.225C-173.629 148.974 -148.258 152.216 -123.498 156.535L-114.339 158.106C-63.0002 167.238 -16.908 177.738 29.1958 188.923L70.7664 198.74L126.224 212.191C194.235 229.558 263.109 243.57 332.57 254.194C424.754 268.251 518.458 270.259 611.183 260.185C670.634 252.522 729.21 239.374 786.117 220.93L862.412 195.408C930.251 172.544 1001.82 148.693 1091.8 136.521C1166.79 125.627 1251.75 129.947 1358.74 133.772L1409.07 134.266C1451.92 133.783 1494.59 128.443 1536.19 118.369L1533.4 114.925Z" fill="#199FD9"/>
<path opacity="0.2" d="M1530.77 111.593C1494.99 119.042 1458.55 123.114 1421.96 123.765C1405.15 124.842 1386.84 123.765 1369.32 123.765C1262.33 121.51 1175.97 116.697 1099.57 129.161C1008.99 142.613 937.212 167.63 869.074 192.368C846.523 200.613 823.373 208.949 798.613 217.396C740.669 237.826 680.69 252.264 619.651 260.476C527.087 270.495 433.545 268.116 341.636 253.409C272.325 242.212 203.682 227.404 135.993 209.05L92.7079 197.865L39.459 184.223C-4.52769 173.038 -56.465 160.473 -113.637 150.365H-114.638C-142.425 145.462 -170.706 141.827 -199.195 138.787V142.119C-170.913 145.159 -142.828 148.693 -115.248 153.607H-114.65C-57.7766 163.423 -6.04645 176.179 37.7447 187.274L90.9936 200.916L134.681 212.101C202.6 230.477 271.474 245.286 341.026 256.46C433.671 271.527 527.996 274.073 621.354 264.021C682.726 255.809 743.028 241.236 801.225 220.549C826.192 212.202 849.342 203.665 871.686 195.419C945.151 166.598 1021.58 145.608 1099.67 132.807C1175.16 120.635 1260.72 125.246 1367.12 127.995C1384.63 127.995 1402.75 129.072 1419.75 127.995C1457.95 127.377 1495.99 123.002 1533.29 114.936L1530.77 111.593Z" fill="#199FD9"/>
<path opacity="0.2" d="M1527.76 107.756C1496.51 113.523 1464.83 116.81 1433.04 117.572C1415.13 118.358 1396.71 118.257 1377.78 117.572C1302.8 116.686 1202.85 110.404 1107.52 125.033C1016.94 139.954 946.474 166.25 878.325 192.457L812.799 217.195C753.809 239.688 692.333 255.394 629.604 264.01C523.313 278.146 418.23 267.05 349.978 255.966C281.541 244.153 213.818 228.615 147.153 209.442L144.542 208.758L114.35 200.512L47.7202 182.45C1.42078 170.177 -49.4119 157.421 -106.389 147.123C-136.58 141.435 -167.991 137.306 -199.298 134.367V137.609C-170.108 140.548 -141.125 144.183 -112.636 149.389L-107.102 150.365C-50.3324 160.473 0.293213 173.139 46.397 185.502L112.832 203.362L143.023 211.608L145.635 212.292C209.561 230.59 274.396 245.69 339.899 257.537L349.357 259.108C418 270.203 524.095 281.388 631.191 267.062C694.266 258.378 756.087 242.538 815.388 219.853C838.641 211.81 859.881 202.778 880.81 195.116C947.843 169.201 1018.01 143.095 1107.49 128.185C1201.6 113.758 1300.94 120.332 1375.33 121.32C1394.05 121.903 1412.77 122.397 1430.59 121.32C1464.04 120.893 1497.38 117.606 1530.24 111.503L1527.76 107.756Z" fill="#199FD9"/>
<path opacity="0.2" d="M1524.33 103.448C1497.69 107.756 1470.79 110.348 1443.8 111.2C1424.58 111.2 1406.15 112.479 1386.33 111.2C1311.14 110.415 1211.4 104.817 1115.46 121.017C1025.58 137.014 955.115 165.274 887.679 192.659L827.285 217.004C767.236 241.247 704.357 258.188 640.063 267.454C538.098 281.68 437.641 271.381 369.503 260.286L358.929 258.524C292.783 246.285 227.418 230.332 163.158 210.733L132.967 201.903L57.2816 180.386C13.594 168.315 -38.8495 154.381 -97.3221 143.577L-109.599 141.423C-137.892 136.521 -167.991 132.594 -199.195 129.453V132.785C-168.198 135.825 -138.294 139.752 -110.22 144.666L-98.7488 146.82C-40.5754 157.522 11.9716 171.456 54.9574 183.426L130.551 205.112L160.742 213.941C225.358 233.518 291.057 249.516 357.526 261.834C426.377 273.512 532.863 285.976 641.179 270.663C705.853 261.329 769.112 244.254 829.506 219.82L889.9 195.475C956.53 168.292 1026.29 139.83 1115.07 124.326C1209.89 108.822 1308.73 114.51 1383.32 115.497C1403.45 116.383 1421.87 115.497 1440.79 115.497C1469.51 114.768 1498.13 112.042 1526.45 107.352L1524.33 103.448Z" fill="#199FD9"/>
<path opacity="0.2" d="M1520.71 98.9268C1498.15 101.574 1476.42 103.829 1454.48 104.918L1394.59 105.411C1319.4 105.411 1219.25 98.938 1122.82 116.899C1032.73 133.581 963.284 163.715 896.343 192.569L839.976 216.611C779.26 242.627 715.357 260.869 649.843 270.887C541.435 286.492 435.443 273.737 367.202 261.071C302.804 248.427 239.246 232.048 176.861 212L147.269 202.969L65.2321 178.434C22.2463 165.869 -29.2882 151.733 -89.6822 140.256C-124.108 133.57 -160.144 128.174 -199.195 124.449V127.983C-167.393 131.124 -136.683 135.152 -107.7 140.256L-90.4876 143.499C-30.0936 154.886 21.0382 169.212 63.5177 181.485L145.451 205.92L175.044 214.951C237.727 235.021 301.596 251.4 366.293 264.021C434.937 276.777 542.24 289.936 651.753 273.838C717.911 263.797 782.436 245.387 843.704 219.068L899.875 195.318C959.464 169.605 1021.66 142.904 1097.97 125.728C1106.32 123.765 1114.88 122.004 1123.74 120.433C1218.56 102.764 1317.9 108.855 1392.5 109.439C1412.63 109.439 1432.76 109.439 1452.28 109.439C1476.13 108.754 1499.28 106.006 1523.65 103.055L1520.71 98.9268Z" fill="#199FD9"/>
<path opacity="0.2" d="M1516.99 94.114C1499.27 95.9763 1481.97 97.2553 1464.75 98.2313C1444.62 99.4092 1423.29 98.2313 1402.65 98.9156C1327.66 98.9156 1227.4 93.1268 1130.88 112.849C1041.1 130.418 972.247 161.92 905.812 192.446C889.106 200.49 871.893 207.76 853.576 216.005C792.101 244.176 726.874 263.797 659.818 274.298C565.229 286.706 469.155 283.228 375.763 263.988C312.745 251.03 250.648 234.146 189.852 213.448L161.57 204.416L73.8959 176.931C22.8792 161.292 -28.9315 148.188 -81.3175 137.676C-120.265 129.812 -159.615 123.945 -199.195 120.13V123.462C-165.782 126.502 -133.773 130.721 -103.673 136.027L-82.238 140.055C-30.1166 150.578 21.4179 163.681 72.1701 179.309L159.637 206.795L187.919 215.826C248.957 236.648 311.295 253.689 374.531 266.86C468.937 286.291 566.046 289.903 661.705 277.563C729.244 266.972 794.908 247.149 856.775 218.675L909.115 195.318C969.509 167.832 1031.51 139.37 1108.82 121.218L1131.57 116.507C1226.58 96.8738 1326.23 103.358 1400.62 103.257C1421.25 103.257 1442.4 103.257 1462.73 102.764C1481.55 101.687 1500.48 100.217 1519.8 98.0518L1516.99 94.114Z" fill="#199FD9"/>
<path opacity="0.2" d="M1512.86 88.9197L1474.91 91.4663C1454.18 92.936 1432.33 92.5433 1410.6 92.4424C1335.51 92.936 1235.66 87.8315 1138.83 108.631C1049.54 127.669 981.302 160.26 915.27 192.345C899.772 200.097 883.963 207.748 866.854 215.512C804.918 245.769 738.691 266.77 670.369 277.843C575.159 290.464 478.418 286.538 384.611 266.265C322.813 252.792 261.982 235.38 202.52 214.154L179.37 206.402L82.6405 174.608C31.5316 158.207 -20.4517 144.508 -73.0793 133.581C-114.73 125.235 -156.842 119.233 -199.206 115.62V118.862C-157.129 122.419 -115.294 128.286 -73.8847 136.431C-21.6022 147.336 30.0359 160.966 80.8226 177.256L177.046 208.96L200.195 216.712C259.991 238.061 321.156 255.596 383.288 269.216C478.13 289.656 575.929 293.572 672.164 280.794C741.038 269.609 807.783 248.371 870.156 217.789C887.162 210.138 902.971 202.184 918.469 194.533C978.863 165.095 1041.17 135.152 1119.79 116.013L1139.92 111.593C1186.6 102.09 1234.15 97.2552 1281.85 97.1654C1327.44 95.3031 1372.43 96.5821 1408.57 97.1654C1430.01 97.1654 1452.26 97.9508 1472.78 96.4811L1515.86 93.5418L1512.86 88.9197Z" fill="#199FD9"/>
<path opacity="0.2" d="M1508.43 83.4224L1484.77 84.7013C1463.03 85.7783 1441.29 86.4626 1418.55 85.8793C1356.14 86.8553 1248.54 81.9527 1146.27 104.334C1057.7 125.145 989.748 158.509 924.832 192.659C910.335 199.727 895.745 208.062 879.936 215.332C817.586 247.563 750.392 269.922 680.84 281.579C563.48 299.932 449.331 281.579 393.367 269.305C332.225 255.159 272.13 236.995 213.496 214.928L187.424 205.706C156.726 195.307 125.925 183.92 91.3964 172.735C40.253 155.615 -11.8799 141.423 -64.7261 130.238L-94.9174 124.348C-129.136 118.167 -163.964 114.532 -198.999 111.2V114.532C-164.401 117.202 -129.976 121.555 -95.8263 127.59L-65.635 133.379C-13.18 144.587 38.5732 158.711 89.3714 175.674C123.9 186.859 154.494 197.752 185.503 208.747L211.575 217.968C270.358 239.924 330.591 258.031 391.848 272.144C448.318 284.417 563.768 303.253 682.439 284.316C752.498 272.57 820.175 250.009 882.951 217.475L928.146 194.701C992.67 161.235 1059.81 128.062 1147.17 107.644C1247.82 85.4642 1354.92 90.5687 1416.83 89.8844C1439.48 89.8844 1461.42 89.8843 1482.97 88.9083L1511.96 87.3377L1508.43 83.4224Z" fill="#199FD9"/>
<path opacity="0.2" d="M1503.9 77.533H1494.84C1471.99 78.1163 1449.95 79.4962 1426.5 79.0026C1396.31 79.0026 1352.62 79.0026 1304.9 80.764C1254.07 82.2112 1203.5 88.4936 1153.92 99.5104L1139.33 103.437C1058.21 125.123 994.798 158.498 933.795 191.762L891.913 214.94C829.184 248.82 761.173 272.424 690.596 284.821C572.224 304.454 457.477 284.821 401.409 271.762C341.234 257.313 282.163 238.746 224.657 216.207L196.375 205.112C165.379 193.725 134.67 182.338 100.049 170.659C48.8708 152.99 -3.31958 138.271 -56.2693 126.592C-103.363 116.585 -151.123 109.832 -199.195 106.387V109.63C-151.445 113.13 -104.018 119.951 -57.2703 130.048C-4.70027 141.592 47.1219 156.142 97.9431 173.621C132.967 185.502 163.17 196.586 194.074 207.973L222.355 218.575C280.253 241.281 339.715 259.972 400.316 274.522C456.982 287.48 573.041 307.404 692.725 287.671C763.842 275.151 832.336 251.243 895.446 216.914L937.12 194.533C997.514 161.651 1060.22 128.578 1140.14 107.083L1154.53 103.257C1203.62 92.3865 1253.69 86.2387 1304.01 84.9037C1351.21 83.434 1394.1 83.2321 1424.79 83.333C1448.45 84.2193 1470.29 82.8394 1493.14 82.256L1507.43 81.5717L1503.9 77.533Z" fill="#199FD9"/>
<path opacity="0.2" d="M1499.17 71.6428L1434.34 73.0115C1403.54 73.0115 1360.26 73.0115 1312.65 75.3674C1261.73 77.0054 1211.13 83.8039 1161.67 95.6846L1149.48 99.0165C1067.65 122.082 1004.34 157.219 943.241 192.053L904.489 213.649C841.725 249.673 772.978 274.713 701.366 287.648C582.188 308.257 466.739 287.648 410.568 273.905C351.037 259.052 292.737 239.89 236.128 216.589L205.028 205.101C177.448 194.398 144.634 181.934 108.805 169.279C57.4886 150.858 5.04514 135.59 -48.2153 123.541C-97.9089 112.636 -148.373 105.422 -199.195 101.967V105.299C-148.627 108.676 -98.3806 115.8 -48.9171 126.592C3.82553 138.361 55.7743 153.338 106.595 171.445C142.735 184.111 175.044 196.575 202.519 207.165L233.62 219.337C290.47 242.717 349 261.98 408.761 276.945C465.738 290.397 582.292 311.69 702.976 290.879C775.302 277.809 844.705 252.433 908.01 215.893L946.762 194.297C1007.16 159.945 1069.67 124.808 1150.29 102.135L1162.37 98.8931C1211.43 87.2929 1261.58 80.7188 1312.05 79.2603C1359.15 77.2971 1402.14 77.0054 1432.84 77.1961L1503.3 75.8274L1499.17 71.6428Z" fill="#199FD9"/>
<path opacity="0.2" d="M1494.24 65.4614L1441.9 66.1458C1411.71 66.1458 1367.41 66.1458 1320.31 69.4777C1269.12 71.1269 1218.3 78.4751 1168.82 91.3654L1158.76 94.114C1076.02 117.965 1013.1 155.256 952.008 191.672C940.433 199.031 928.456 205.415 915.776 212.875C853.162 251.153 783.816 277.775 711.249 291.395C590.461 312.598 475.115 290.711 418.84 276.867C359.839 261.576 302.125 241.887 246.219 217.98L213.508 204.136C184.524 192.457 153.113 179.791 117.376 166.935C66.141 148.065 13.686 132.493 -39.6434 120.321C-92.0985 108.508 -145.462 100.957 -199.195 97.7489V100.991C-159.856 103.504 -120.702 108.25 -81.9273 115.216L-40.6559 123.462C12.2708 135.545 64.3231 151.015 115.156 169.784C150.49 182.45 182.097 195.105 210.976 206.783L243.687 219.932C299.974 244.119 358.09 264.033 417.517 279.503C474.183 293.437 591.554 315.616 713.343 294.121C786.474 280.704 856.395 254.07 919.481 215.601C932.161 208.242 944.138 201.668 955.713 194.308C1016.11 158.285 1078.11 121.286 1159.75 97.7377L1169.81 95.09C1218.74 82.368 1268.98 75.1544 1319.58 73.595C1366.39 70.8464 1409.68 70.6557 1440.37 70.7454L1497.84 69.8592L1494.24 65.4614Z" fill="#199FD9"/>
<path opacity="0.2" d="M1489.2 59.0779H1448.94C1418.75 59.8632 1374.56 59.9642 1327.25 63.1054C1276.09 65.4501 1225.39 73.5837 1176.16 87.349L1168.32 89.503C1084.67 114.24 1022.17 153.293 961.167 191.38C950.397 198.448 939.329 205.415 927.65 212.191C865.139 252.466 795.138 280.401 721.604 294.435C600.816 316.222 483.756 293.751 427.389 279.122C368.778 263.315 311.56 242.964 256.275 218.271L221.953 203.743C195.179 192.457 162.87 179.006 125.925 165.274C74.7589 145.597 22.2578 129.397 -31.1982 116.787C-46.0982 113.354 -61.3894 110.314 -76.5886 107.565C-117.124 100.329 -158.061 95.5499 -199.195 93.2389V96.4811C-158.268 98.9043 -117.526 103.762 -77.1984 111.009C-62.2063 113.758 -47.0072 116.697 -32.3027 120.141C20.8081 132.493 72.9755 148.435 123.82 167.843C160.454 181.485 192.774 194.937 219.444 206.223L253.766 220.65C309.374 245.544 366.926 266.052 425.893 281.994C483.066 296.915 601.035 319.588 723.836 297.397C798.014 283.172 868.625 254.934 931.689 214.266C943.264 207.49 954.332 200.232 965.102 193.366C1025.5 155.581 1086.99 116.809 1169.43 92.476L1177.19 90.4118C1225.97 76.8035 1276.27 68.9279 1326.96 66.9534C1373.77 63.8122 1417.54 63.8122 1447.75 63.3186H1492.84L1489.2 59.0779Z" fill="#199FD9"/>
<path opacity="0.2" d="M1484.07 52.5037H1456.69C1432.03 52.9973 1389.15 54.0743 1340.43 57.0136C1287.24 59.8295 1234.53 68.4455 1183.31 82.7269L1177.67 84.5892C1093.32 110.403 1031.12 150.937 970.417 190.976L939.214 211.394C876.737 253.364 806.206 282.611 731.867 297.363C609.676 319.936 492.604 296.78 436.041 281.467C377.764 265.087 320.96 244.052 266.239 218.552L230.812 203.048C203.635 191.077 171.028 177.043 134.888 163.098C83.5838 143.084 30.8757 126.682 -22.845 114.027C-80.7652 100.722 -139.779 92.375 -199.195 89.1104V92.0497C-156.635 94.3271 -114.27 99.3082 -72.366 106.971C-56.1658 109.91 -39.9541 113.152 -24.0531 116.787C29.2419 129.397 81.5243 145.799 132.368 165.858C168.405 179.702 200.817 193.635 227.89 205.112L263.822 221.11C318.981 246.778 376.211 267.993 434.937 284.507C492.213 299.91 610.884 323.761 734.79 300.404C809.762 285.416 880.868 255.843 943.85 213.447L974.951 192.839C1035.34 153.584 1096.34 112.95 1179.48 87.5285L1185.01 85.6662C1235.63 71.5418 1287.74 63.1166 1340.33 60.5363C1388.54 57.6867 1430.91 56.8117 1455.38 56.318H1487.89L1484.07 52.5037Z" fill="#199FD9"/>
<path opacity="0.2" d="M1478.64 45.6377H1464.05C1439.29 45.6377 1396.31 47.399 1347.69 50.8432C1294.4 53.7825 1241.64 62.735 1190.47 77.5437L1186.65 78.9124C1102.09 106.488 1039.89 147.616 979.599 190.112L950.512 209.745C898.472 244.097 834.764 281.59 742.361 299.742C652.984 318.286 542.16 310.837 445.028 283.643C386.9 266.77 330.338 245.163 275.927 219.068L239.361 202.374C212.587 190.202 180.382 175.775 143.541 161.247C92.2362 140.481 39.413 123.484 -14.4917 110.403C-75.1159 96.3127 -136.948 87.7416 -199.195 84.791V88.123C-137.362 91.0847 -75.9328 99.5997 -15.6998 113.545C37.7332 126.457 90.0846 143.285 140.917 163.894C177.552 178.422 209.665 192.749 236.335 204.921L272.774 221.502C327.473 247.979 384.38 269.878 442.887 286.964C541.435 314.147 653.766 321.607 744.857 303.354C838.365 285 902.683 247.115 955.023 212.281L984.006 192.648C1043.39 150.937 1104.79 109.91 1188.13 82.5248L1191.86 81.3469C1242.41 66.5494 1294.57 57.552 1347.27 54.5566C1395.48 51.3144 1437.85 50.2374 1462.52 49.7437H1482.66L1478.64 45.6377Z" fill="#199FD9"/>
<path opacity="0.2" d="M1473.1 38.2783H1471.69C1446.93 38.2783 1404.45 40.0396 1356.35 44.2691C1302.56 47.6796 1249.38 57.2941 1197.91 72.9217L1192.27 74.784C1106.31 104.222 1045.11 148.491 989.149 189.608L962.076 209.24C910.541 245.163 846.822 284.417 753.015 303.366C662.43 321.91 551.698 314.461 453.565 286.481C395.783 269.048 339.669 246.722 285.868 219.741L248.221 201.881C223.46 190.303 190.243 174.788 152.492 159.384C101.107 137.889 48.0654 120.366 -6.1385 106.982C-69.4435 92.0609 -134.118 83.2878 -199.195 80.7748V84.1068C-134.52 86.6647 -70.2604 95.4489 -7.34662 110.314C46.2705 123.485 98.737 140.75 149.581 161.942C187.021 177.256 220.043 192.659 244.803 204.237L282.347 222.097C336.574 249.246 393.125 271.74 451.344 289.331C550.294 317.793 663.431 325.253 754.925 306.406C849.94 286.773 913.958 247.519 966.298 211.103C975.457 204.63 984.42 198.145 993.28 191.964C1048.54 151.228 1108.83 106.78 1193.48 78.217L1199.02 76.3547C1249.78 61.0074 1302.21 51.5164 1355.23 48.0947C1402.94 44.1682 1445.01 42.7995 1469.38 42.4966H1476.33L1473.1 38.2783Z" fill="#199FD9"/>
<path opacity="0.2" d="M1467.77 31.8948C1440.29 32.4781 1399.12 34.3517 1353.53 39.0635C1302.87 42.9789 1252.87 52.8626 1204.65 68.5015L1200.73 69.7804C1113.96 99.2183 1053.87 146.92 998.009 189.226L972.742 207.872C921.713 245.365 858.19 286.391 763.175 306.013C672.59 325.646 559.948 317.894 461.907 288.646C403.894 270.629 347.7 247.462 294.014 219.449L256.781 201.197C230.007 188.239 197.802 172.634 161.156 157.331C109.691 135.432 56.4991 117.583 2.12267 103.941C-63.8517 88.1006 -131.31 78.9237 -199.195 76.5565V79.8885C-131.678 82.1434 -64.588 91.2194 1.00661 106.982C54.7503 120.534 107.286 138.259 158.13 159.979C194.465 175.685 226.578 190.696 253.755 203.552L290.896 221.906C345.1 250.155 401.835 273.512 460.399 291.687C559.648 321.125 673.694 328.787 765.89 309.255C862.113 289.622 926.028 247.911 977.264 209.936C985.824 203.552 994.269 197.663 1002.32 191.29C1057.48 149.478 1116.77 102.27 1202.23 73.5162L1205.95 72.2373C1254.84 56.3852 1305.56 46.4903 1356.93 42.7994C1403.23 38.1885 1444.61 36.5169 1470.77 36.2252L1467.77 31.8948Z" fill="#199FD9"/>
<path opacity="0.2" d="M1462.43 25.2197C1433.14 26.1958 1393.47 28.5517 1350.29 33.8581C1302.99 38.3681 1256.45 48.521 1211.69 64.0814L1209.58 64.7657C1121.9 95.3816 1062.52 144.856 1007.16 188.62C999.608 194.903 991.853 200.894 983.799 206.873C933.473 246.128 869.96 288.826 773.634 309.143C642.778 337.022 516.352 305.116 470.559 291.182C412.57 272.66 356.525 248.798 303.172 219.932L265.123 200.299C238.648 187.05 206.639 170.861 169.498 155.155C118.205 132.617 65.071 114.263 10.66 100.295C-58.0412 83.5907 -128.399 74.1782 -199.195 72.2374V75.7713C-128.848 77.7233 -58.9157 87.1022 9.35983 103.74C63.2416 117.572 115.869 135.724 166.69 158.016C203.636 173.913 235.438 189.72 261.705 202.969L299.652 222.602C353.476 251.67 409.992 275.723 468.453 294.447C514.856 308.582 642.985 340.87 775.958 312.598C873.493 291.597 937.005 248.708 988.045 209.061C996.099 203.171 1003.75 196.788 1011.3 190.707C1065.95 147.235 1124.54 98.2536 1210.8 68.2211L1212.81 67.5367C1258.28 51.7071 1305.64 41.5878 1353.73 37.4033C1397.32 32.2987 1437.28 30.1447 1465.77 29.4492L1462.43 25.2197Z" fill="#199FD9"/>
<path opacity="0.2" d="M1457.4 18.6458C1397.01 22.965 1308.12 25.6126 1221.06 57.9L1218.54 58.977C1132.98 90.7708 1074.2 139.157 1016.22 187.442C1009.18 193.433 1001.93 199.413 994.58 205.505C944.253 245.746 881.639 289.903 784.207 311.701C652.144 340.656 525.522 308.066 479.223 293.448C421.256 274.466 365.361 249.942 312.331 220.235L273.879 199.918C249.118 187.162 216.004 170.48 178.461 153.495C127.053 130.339 73.7119 111.492 19.0247 97.1655C-1.84683 91.8702 -22.7184 87.2818 -43.5784 83.4226C-94.9634 74.2905 -146.981 69.0402 -199.195 67.7164V71.441C-126.041 73.1126 -53.3123 82.828 17.621 100.396C71.6868 114.566 124.418 133.178 175.251 156.041C212.495 172.533 245.712 189.507 270.174 202.262L308.822 222.579C362.278 252.511 418.61 277.259 477.014 296.477C523.612 311.297 652.661 344.269 786.428 315.123C885.275 293.437 948.28 248.192 998.607 207.659L1020.15 189.596C1077.32 141.704 1135.3 93.8111 1219.45 62.4997L1221.97 61.4227C1263.69 46.2774 1307.23 36.3825 1351.51 31.9848C1391.77 26.4876 1430.52 24.2327 1460.12 23.0547L1457.4 18.6458Z" fill="#199FD9"/>
<path opacity="0.2" d="M1452.27 12.363C1391.88 17.0749 1310.24 22.1794 1229.11 52.8963L1225.19 54.4669C1140.44 87.9324 1082.25 137.104 1025.39 187.162L1005.26 204.529C955.736 246.139 893.432 292.27 794.781 314.741C661.82 344.179 534.083 311.017 487.887 295.894C429.909 276.384 374.129 251.165 321.398 220.616L282.14 199.323C257.483 186.074 224.369 168.606 186.814 151.531C135.498 127.86 82.1456 108.653 27.3779 94.1139C-46.662 75.3674 -122.715 65.192 -199.195 63.7897V67.7162C-123.222 68.9278 -47.6515 78.8115 25.9742 97.1542C80.2011 111.537 133.024 130.586 183.799 154.078C221.044 170.962 254.261 188.329 278.619 201.578L317.773 222.871C370.827 253.644 426.952 279.088 485.263 298.833C532.069 313.945 661.717 347.904 796.691 317.77C896.746 294.907 959.556 248.181 1009.38 206.178L1029.51 188.71C1085.58 139.639 1142.95 90.5688 1226.3 57.496L1229.82 56.1273C1293.54 31.39 1369.93 21.4839 1455.09 16.0877L1452.27 12.363Z" fill="#199FD9"/>
<path opacity="0.2" d="M1447.53 6.28247C1368.12 12.9576 1296.55 23.5593 1236.16 47.702L1231.53 49.5643C1147.58 84.8024 1090.01 134.658 1034.24 186.377C1028.1 191.874 1021.86 197.371 1015.62 203.059C966.701 246.139 904.903 294.043 805.056 317.4C671.186 348.409 542.643 313.765 496.343 298.362C438.4 278.225 382.747 252.309 330.257 221.02L289.998 198.74C265.537 185.098 232.826 167.339 194.776 149.669C143.472 125.369 90.0041 105.658 35.0408 90.782C-41.4384 71.0482 -120.104 60.6036 -199.195 59.6724V62.9146C-120.368 63.8009 -41.9676 74.2231 34.2239 93.9232C88.6234 108.597 141.55 128.039 192.36 152.025C230.202 169.695 262.821 187.353 287.076 201.096L326.84 223.376C379.697 255.136 435.788 281.444 494.226 301.896C541.136 317.501 671.577 352.739 807.668 321.529C908.93 297.779 971.131 249.392 1020.35 205.718L1038.88 189.036C1093.93 136.431 1150.51 87.3602 1233.14 52.6158L1237.77 50.7535C1298.16 26.5098 1370.33 16.1101 1450.35 9.92856L1447.53 6.28247Z" fill="#199FD9"/>
<path opacity="0.2" d="M1442.5 0C1368.22 7.35948 1301.58 18.7465 1244.31 42.2946L1238.38 44.6505C1154.63 80.7635 1098.66 132.975 1043.71 185.58L1026.5 201.477C978.287 246.228 916.984 295.894 815.929 320.036C681.15 352.324 551.709 316.502 505.41 300.706C447.409 279.985 391.813 253.375 339.531 221.312L299.272 198.055C274.914 184.211 242.295 165.958 204.05 147.706C152.803 122.71 99.2548 102.505 44.1074 87.3489C-35.2597 66.6728 -117.055 56.2506 -199.195 56.3292V59.5714C-117.618 59.605 -36.3988 70.0609 42.3815 90.6809C96.9536 105.591 149.961 125.47 200.713 150.062C238.659 168.213 271.175 186.377 295.325 200.209L335.584 223.466C388.281 255.719 444.326 282.465 502.775 303.253C549.776 319.352 681.242 355.757 818.23 322.886C920.701 298.351 982.499 248.102 1031.02 202.857L1048.13 186.96C1102.38 134.647 1157.44 82.9287 1239.38 47.5L1245.12 45.1441C1302.59 21.4951 1369.93 10.3997 1444.92 3.5339L1442.5 0Z" fill="#199FD9"/>
</g>
</svg>
