<svg width="808" height="264" viewBox="0 0 808 264" fill="none" xmlns="http://www.w3.org/2000/svg">
<path opacity="0.0144928" d="M974.277 304.209C984.918 306.659 995.895 301.771 1001.19 292.225L1077.72 154.37C1080.85 148.724 1081.63 142.07 1079.89 135.853L1015.85 -92.1067C1014.48 -96.9956 1011.62 -101.337 1007.67 -104.53L849.111 -232.768C841.951 -238.558 832.15 -239.845 823.739 -236.1L700.396 -181.185C691.985 -177.44 686.383 -169.295 685.896 -160.1L675.098 43.5401C674.829 48.6111 676.143 53.6404 678.857 57.9323L805.415 258.055C808.867 263.513 814.333 267.387 820.626 268.836L974.277 304.209Z" stroke="url(#paint0_linear_2041_7279)" stroke-opacity="0.1"/>
<path opacity="0.0289855" d="M948.172 309.986C958.646 312.964 969.83 308.671 975.621 299.449L1058.83 166.945C1062.27 161.468 1063.4 154.854 1061.98 148.545L1010.57 -80.2591C1009.46 -85.2286 1006.82 -89.7267 1003.03 -93.1274L852.593 -228.046C845.747 -234.186 836.04 -235.975 827.455 -232.68L702.217 -184.606C693.632 -181.31 687.615 -173.485 686.636 -164.342L665.119 36.5839C664.577 41.6484 665.626 46.7561 668.122 51.1963L783.017 255.63C786.185 261.268 791.454 265.424 797.674 267.192L948.172 309.986Z" stroke="url(#paint1_linear_2041_7279)" stroke-opacity="0.1"/>
<path opacity="0.0434783" d="M922.076 314.928C932.358 318.424 943.715 314.734 949.978 305.862L1039.52 179.026C1043.25 173.735 1044.74 167.18 1043.66 160.795L1004.79 -68.1613C1003.93 -73.1983 1001.52 -77.8418 997.898 -81.4424L855.847 -222.548C849.332 -229.02 839.744 -231.305 831.01 -228.467L704.252 -187.281C695.518 -184.443 689.105 -176.959 687.638 -167.894L655.656 29.7588C654.84 34.8022 655.621 39.9745 657.89 44.5521L761.02 252.63C763.896 258.432 768.953 262.86 775.085 264.945L922.076 314.928Z" stroke="url(#paint2_linear_2041_7279)" stroke-opacity="0.1"/>
<path opacity="0.057971" d="M896.04 319.044C906.104 323.046 917.601 319.965 924.316 311.467L1019.82 190.595C1023.85 185.506 1025.68 179.03 1024.94 172.587L998.479 -55.8426C997.889 -60.9334 995.718 -65.7111 992.271 -69.5033L858.838 -216.293C852.669 -223.079 843.226 -225.852 834.368 -223.478L706.464 -189.207C697.606 -186.833 690.815 -179.71 688.865 -170.749L646.703 23.0912C645.614 28.099 646.123 33.3222 648.158 38.0258L739.458 249.081C742.034 255.034 746.864 259.723 752.891 262.12L896.04 319.044Z" stroke="url(#paint3_linear_2041_7279)" stroke-opacity="0.1"/>
<path opacity="0.0724638" d="M870.105 322.347C879.926 326.841 891.531 324.374 898.675 316.274L999.774 201.64C1004.07 196.768 1006.26 190.389 1005.85 183.905L991.641 -43.331C991.321 -48.4619 989.394 -53.3619 986.134 -57.3371L861.522 -209.299C855.714 -216.381 846.442 -219.633 837.483 -217.728L708.808 -190.378C699.849 -188.474 692.701 -181.732 690.276 -172.9L638.246 16.6088C636.885 21.5663 637.117 26.8263 638.911 31.6441L718.355 245.014C720.622 251.102 725.213 256.04 731.12 258.744L870.105 322.347Z" stroke="url(#paint4_linear_2041_7279)" stroke-opacity="0.1"/>
<path opacity="0.0869565" d="M844.316 324.846C853.87 329.818 865.55 327.968 873.099 320.288L979.4 212.14C983.961 207.5 986.488 201.237 986.426 194.731L984.267 -30.6611C984.218 -35.8181 982.542 -40.8281 979.479 -44.9772L863.861 -201.596C858.429 -208.954 849.351 -212.674 840.318 -211.243L711.241 -190.799C702.208 -189.369 694.723 -183.025 691.831 -174.349L630.27 10.3321C628.639 15.2247 628.594 20.5072 630.14 25.4271L697.737 240.455C699.688 246.662 704.028 251.837 709.799 254.841L844.316 324.846Z" stroke="url(#paint5_linear_2041_7279)" stroke-opacity="0.1"/>
<path opacity="0.101449" d="M818.716 326.563C827.978 331.996 839.7 330.764 847.63 323.524L958.733 222.091C963.545 217.697 966.409 211.568 966.691 205.058L976.35 -17.8579C976.574 -23.027 975.156 -28.1344 972.299 -32.4479L865.819 -193.203C860.776 -200.817 851.916 -204.994 842.833 -204.039L713.722 -190.469C704.639 -189.514 696.841 -183.587 693.491 -175.09L622.761 4.28999C620.863 9.1033 620.538 14.3939 621.832 19.4035L677.626 235.44C679.256 241.749 683.331 247.149 688.952 250.446L818.716 326.563Z" stroke="url(#paint6_linear_2041_7279)" stroke-opacity="0.1"/>
<path opacity="0.115942" d="M793.345 327.512C802.295 333.39 814.025 332.775 822.311 325.994L937.806 231.478C942.857 227.344 946.05 221.367 946.677 214.87L967.888 -4.95475C968.387 -10.1217 967.231 -15.3134 964.588 -19.7812L867.362 -184.15C862.719 -192 854.1 -196.62 844.993 -196.143L716.21 -189.394C707.103 -188.917 699.014 -183.42 695.217 -175.128L615.704 -1.49697C613.543 3.22262 612.937 8.50668 613.973 13.5932L658.046 229.997C659.348 236.392 663.149 242.003 668.604 245.586L793.345 327.512Z" stroke="url(#paint7_linear_2041_7279)" stroke-opacity="0.1"/>
<path opacity="0.130435" d="M768.247 327.712C776.862 334.016 788.568 334.016 797.183 327.712L916.653 240.29C921.928 236.43 925.442 230.622 926.413 224.158L958.88 8.01556C959.654 2.86517 958.766 -2.39777 956.346 -7.00937L868.457 -174.469C864.225 -182.533 855.87 -187.584 846.764 -187.584H718.667C709.56 -187.584 701.205 -182.533 696.973 -174.469L609.084 -7.00937C606.664 -2.39777 605.776 2.86517 606.55 8.01556L639.017 224.158C639.988 230.622 643.502 236.43 648.777 240.29L768.247 327.712Z" stroke="url(#paint8_linear_2041_7279)" stroke-opacity="0.1"/>
<path opacity="0.144928" d="M743.456 327.189C751.716 333.901 763.365 334.511 772.281 328.7L895.303 248.527C900.788 244.953 904.615 239.331 905.928 232.917L949.324 21.0284C950.372 15.9089 949.756 10.5883 947.566 5.8437L869.071 -164.186C865.26 -172.441 857.19 -177.907 848.11 -178.383L721.048 -185.042C711.967 -185.518 703.37 -180.926 698.717 -173.113L602.879 -12.2206C600.205 -7.73092 599.036 -2.50386 599.544 2.69716L620.553 217.961C621.189 224.478 624.407 230.468 629.488 234.597L743.456 327.189Z" stroke="url(#paint9_linear_2041_7279)" stroke-opacity="0.1"/>
<path opacity="0.15942" d="M719.012 325.964C726.898 333.062 738.457 334.277 747.647 328.974L873.792 256.179C879.472 252.901 883.601 247.483 885.255 241.137L939.223 34.0476C940.545 28.9734 940.204 23.6089 938.251 18.7427L869.178 -153.337C865.796 -161.762 858.031 -167.627 849.002 -168.576L723.318 -181.786C714.289 -182.735 705.475 -178.613 700.415 -171.074L597.074 -17.1165C594.152 -12.7627 592.703 -7.5862 592.942 -2.34797L602.674 211.437C602.972 217.988 605.884 224.146 610.759 228.533L719.012 325.964Z" stroke="url(#paint10_linear_2041_7279)" stroke-opacity="0.1"/>
<path opacity="0.173913" d="M694.948 324.065C702.442 331.529 713.88 333.341 723.315 328.558L852.15 263.245C858.009 260.275 862.43 255.076 864.42 248.817L928.578 47.0465C930.172 42.032 930.11 36.6374 928.4 31.6611L868.747 -141.954C865.801 -150.527 858.363 -156.773 849.409 -158.191L725.438 -177.826C716.485 -179.244 707.48 -175.602 702.029 -168.359L591.646 -21.6755C588.482 -17.4711 586.756 -12.3598 586.723 -7.09809L585.39 204.623C585.349 211.191 587.947 217.501 592.601 222.136L694.948 324.065Z" stroke="url(#paint11_linear_2041_7279)" stroke-opacity="0.1"/>
<path opacity="0.188406" d="M671.299 321.52C678.385 329.328 689.671 331.727 699.32 327.476L830.411 269.723C836.433 267.071 841.134 262.108 843.456 255.952L917.397 59.995C919.261 55.0546 919.479 49.6441 918.018 44.5696L867.757 -130.071C865.253 -138.769 858.159 -145.378 849.306 -147.26L727.372 -173.178C718.519 -175.059 709.35 -171.907 703.525 -164.979L586.576 -25.8806C583.178 -21.8388 581.177 -16.8074 580.87 -11.5358L568.715 197.554C568.333 204.122 570.609 210.568 575.031 215.44L671.299 321.52Z" stroke="url(#paint12_linear_2041_7279)" stroke-opacity="0.1"/>
<path opacity="0.202899" d="M648.097 318.359C654.758 326.487 665.861 329.462 675.694 325.753L808.607 275.616C814.774 273.29 819.743 268.577 822.393 262.543L905.684 72.8649C907.814 68.0128 908.314 62.6006 907.109 57.4403L866.182 -117.725C864.126 -126.524 857.394 -133.477 848.666 -135.816L729.083 -167.858C720.355 -170.196 711.048 -167.541 704.868 -160.949L581.843 -29.7146C578.218 -25.8484 575.945 -20.9113 575.364 -15.6439L552.657 190.268C551.935 196.818 553.882 203.384 558.059 208.482L648.097 318.359Z" stroke="url(#paint13_linear_2041_7279)" stroke-opacity="0.1"/>
<path opacity="0.217391" d="M625.37 314.61C631.592 323.037 642.483 326.575 652.469 323.415L786.769 280.923C793.063 278.932 798.288 274.484 801.258 268.589L893.447 85.6257C895.84 80.8759 896.623 75.4764 895.677 70.2426L864.003 -104.953C862.398 -113.83 856.044 -121.108 847.465 -123.895L730.538 -161.887C721.958 -164.675 712.54 -162.522 706.024 -156.284L577.422 -33.1646C573.58 -29.4865 571.039 -24.6582 570.184 -19.4089L537.223 182.799C536.161 189.314 537.773 195.983 541.695 201.294L625.37 314.61Z" stroke="url(#paint14_linear_2041_7279)" stroke-opacity="0.1"/>
<path opacity="0.231884" d="M603.146 310.309C608.917 319.009 619.566 323.097 629.675 320.492L764.93 285.65C771.334 284 776.799 279.832 780.083 274.092L880.697 98.2507C883.348 93.6173 884.413 88.2448 883.731 82.9503L861.202 -91.7929C860.05 -100.725 854.091 -108.305 845.683 -111.533L731.703 -155.286C723.295 -158.513 713.794 -156.867 706.962 -151L573.293 -36.2155C569.243 -32.7378 566.44 -28.0324 565.31 -22.8151L522.419 175.184C521.019 181.647 522.292 188.402 525.947 193.913L603.146 310.309Z" stroke="url(#paint15_linear_2041_7279)" stroke-opacity="0.1"/>
<path opacity="0.246377" d="M581.452 305.487C586.759 314.436 597.139 319.057 607.34 317.013L743.12 289.802C749.615 288.5 755.306 284.624 758.896 279.056L867.444 110.712C870.348 106.208 871.695 100.877 871.28 95.5352L857.762 -78.2839C857.065 -87.2475 851.514 -95.1093 843.301 -98.7661L732.548 -148.077C724.334 -151.733 714.778 -150.598 707.65 -145.118L569.432 -38.8562C565.184 -35.5904 562.124 -31.0219 560.72 -25.8508L508.249 167.461C506.513 173.854 507.441 180.677 510.82 186.375L581.452 305.487Z" stroke="url(#paint16_linear_2041_7279)" stroke-opacity="0.1"/>
<path opacity="0.26087" d="M560.313 300.178C565.145 309.351 575.229 314.488 585.49 313.006L721.37 293.384C727.938 292.436 733.841 288.864 737.727 283.485L853.703 122.981C856.853 118.621 858.481 113.346 858.336 107.969L853.672 -64.4663C853.429 -73.4381 848.301 -81.559 840.304 -85.6336L733.043 -140.285C725.047 -144.36 715.462 -143.736 708.061 -138.659L565.816 -41.077C561.381 -38.0342 558.07 -33.6165 556.395 -28.5054L494.713 159.663C492.646 165.969 493.226 172.844 496.319 178.715L560.313 300.178Z" stroke="url(#paint17_linear_2041_7279)" stroke-opacity="0.1"/>
<path opacity="0.275362" d="M539.744 294.423C544.094 303.794 553.855 309.429 564.145 308.51L699.708 296.411C706.33 295.82 712.427 292.564 716.6 287.389L839.483 135.037C842.873 130.834 844.78 125.629 844.907 120.231L848.916 -50.3754C849.127 -59.3319 844.432 -67.6892 836.673 -72.1687L733.158 -131.933C725.399 -136.413 715.814 -136.3 708.163 -131.639L562.418 -42.8635C557.807 -40.0546 554.252 -35.8011 552.308 -30.764L481.808 151.832C479.414 158.034 479.642 164.942 482.441 170.972L539.744 294.423Z" stroke="url(#paint18_linear_2041_7279)" stroke-opacity="0.1"/>
<path opacity="0.289855" d="M519.771 288.253C523.63 297.796 533.043 303.909 543.331 303.553L678.166 298.888C684.821 298.657 691.096 295.728 695.546 290.773L824.804 146.851C828.426 142.818 830.608 137.697 831.009 132.291L843.49 -36.0561C844.151 -44.9743 839.901 -53.5443 832.401 -58.4149L732.87 -123.051C725.37 -127.922 715.812 -128.319 707.933 -124.088L559.217 -44.2127C554.441 -41.6478 550.651 -37.5715 548.44 -32.6223L469.534 143.999C466.818 150.079 466.694 157.004 469.191 163.178L519.771 288.253Z" stroke="url(#paint19_linear_2041_7279)" stroke-opacity="0.1"/>
<path opacity="0.304348" d="M500.407 281.708C503.77 291.398 512.812 297.967 523.066 298.171L656.77 300.829C663.44 300.961 669.876 298.368 674.591 293.648L809.68 158.401C813.527 154.55 815.981 149.529 816.657 144.129L837.386 -21.5456C838.494 -30.4027 834.697 -39.1615 827.476 -44.4082L732.151 -113.666C724.93 -118.912 715.427 -119.816 707.345 -116.025L556.186 -45.1148C551.258 -42.8034 547.241 -38.9173 544.768 -34.0696L457.885 136.202C454.853 142.145 454.375 149.067 456.563 155.37L500.407 281.708Z" stroke="url(#paint20_linear_2041_7279)" stroke-opacity="0.1"/>
<path opacity="0.318841" d="M481.666 274.827C484.527 284.636 493.175 291.64 503.365 292.399L635.545 302.248C642.21 302.744 648.789 300.496 653.757 296.024L794.128 169.665C798.189 166.009 800.912 161.1 801.863 155.719L830.596 -6.88439C832.146 -15.6577 828.812 -24.5811 821.888 -30.1878L730.979 -103.805C724.055 -109.412 714.633 -110.818 706.374 -107.477L553.298 -45.5647C548.232 -43.5158 543.997 -39.8322 541.265 -35.0995L446.851 128.476C443.51 134.264 442.679 141.167 444.551 147.583L481.666 274.827Z" stroke="url(#paint21_linear_2041_7279)" stroke-opacity="0.1"/>
<path opacity="0.333333" d="M463.562 267.648C465.919 277.551 474.153 284.965 484.247 286.273L614.521 303.159C621.162 304.02 627.866 302.125 633.073 297.915L778.169 180.621C782.436 177.171 785.421 172.389 786.647 167.041L823.123 7.88745C825.11 -0.779802 822.244 -9.84292 815.636 -15.7928L729.334 -93.4997C722.726 -99.4496 713.413 -101.352 705.001 -98.4705L550.532 -45.5582C545.341 -43.7801 540.897 -40.311 537.913 -35.7067L436.427 120.855C432.785 126.474 431.601 133.339 433.152 139.853L463.562 267.648Z" stroke="url(#paint22_linear_2041_7279)" stroke-opacity="0.1"/>
<path opacity="0.347826" d="M446.105 260.207C447.955 270.177 455.755 277.977 465.725 279.827L593.723 303.576C600.319 304.8 607.128 303.266 612.562 299.331L761.822 191.246C766.285 188.014 769.528 183.372 771.027 178.071L814.967 22.7273C817.382 14.188 814.991 5.01006 808.716 -1.26507L727.197 -82.7837C720.922 -89.0588 711.744 -91.45 703.205 -89.0346L547.861 -45.0955C542.559 -43.5958 537.918 -40.3527 534.686 -35.8899L426.601 113.37C422.666 118.804 421.132 125.613 422.356 132.209L446.105 260.207Z" stroke="url(#paint23_linear_2041_7279)" stroke-opacity="0.1"/>
<path opacity="0.362319" d="M429.301 252.548C430.644 262.558 437.991 270.718 447.806 273.099L573.172 303.52C579.703 305.105 586.599 303.937 592.245 300.29L745.106 201.525C749.754 198.522 753.248 194.034 755.02 188.792L806.127 37.5995C808.963 29.2095 807.05 19.942 801.124 13.3604L724.549 -71.6848C718.623 -78.2664 709.606 -81.1374 700.966 -79.1939L545.26 -44.1713C539.861 -42.957 535.032 -39.9509 531.56 -35.6425L417.358 106.058C413.14 111.291 411.257 118.027 412.151 124.689L429.301 252.548Z" stroke="url(#paint24_linear_2041_7279)" stroke-opacity="0.1"/>
<path opacity="0.376812" d="M413.156 244.705C413.993 254.729 420.871 263.224 430.503 266.126L552.892 303.007C559.34 304.95 566.303 304.154 572.146 300.805L728.046 211.437C732.867 208.673 736.606 204.352 738.648 199.183L796.611 52.4624C799.859 44.2425 798.427 34.9107 792.865 28.0421L721.377 -60.2383C715.815 -67.1068 706.985 -70.4473 698.269 -68.9799L542.703 -42.7884C537.223 -41.8657 532.219 -39.1072 528.513 -34.9657L408.685 98.9473C404.194 103.966 401.967 110.611 402.527 117.322L413.156 244.705Z" stroke="url(#paint25_linear_2041_7279)" stroke-opacity="0.1"/>
<path opacity="0.391304" d="M397.674 236.722C398.006 246.734 404.401 255.535 413.82 258.945L532.905 302.058C539.25 304.355 546.26 303.934 552.284 300.894L710.663 220.968C715.646 218.453 719.621 214.312 721.93 209.23L786.426 67.2799C790.074 59.2504 789.125 49.8796 783.941 42.7445L717.666 -48.4747C712.482 -55.6098 703.863 -59.4081 695.1 -58.4197L540.167 -40.9458C534.62 -40.3202 529.453 -37.8193 525.522 -33.857L400.565 92.0716C395.813 96.861 393.246 103.398 393.47 110.142L397.674 236.722Z" stroke="url(#paint26_linear_2041_7279)" stroke-opacity="0.1"/>
<path opacity="0.405797" d="M382.855 228.634C382.687 238.608 388.584 247.688 397.764 251.592L513.233 300.693C519.454 303.338 526.492 303.295 532.68 300.575L692.981 230.101C698.114 227.844 702.317 223.895 704.89 218.913L775.581 82.0122C779.619 74.1927 779.152 64.8084 774.359 57.4277L713.408 -36.4297C708.614 -43.8103 700.231 -48.0533 691.445 -47.5451L537.627 -38.6483C532.03 -38.3245 526.713 -36.0906 522.563 -32.3194L392.982 85.4581C387.98 90.0051 385.078 96.417 384.964 103.176L382.855 228.634Z" stroke="url(#paint27_linear_2041_7279)" stroke-opacity="0.1"/>
<path opacity="0.42029" d="M368.696 220.482C368.033 230.393 373.42 239.723 382.334 244.105L493.891 298.933C499.97 301.92 507.015 302.258 513.352 299.865L675.023 238.823C680.292 236.834 684.715 233.089 687.547 228.22L764.086 96.6242C768.501 89.0337 768.516 79.661 764.125 72.0564L708.589 -24.1351C704.199 -31.7396 696.074 -36.413 687.293 -36.385L535.058 -35.8984C529.426 -35.8804 523.971 -33.9222 519.614 -30.3535L385.914 79.1367C380.674 83.4283 377.444 89.6981 376.992 96.4566L368.696 220.482Z" stroke="url(#paint28_linear_2041_7279)" stroke-opacity="0.1"/>
<path opacity="0.434783" d="M355.194 212.301C354.043 222.123 358.91 231.675 367.533 236.517L474.899 296.798C480.817 300.121 487.849 300.839 494.317 298.783L656.815 247.12C662.208 245.406 666.841 241.878 669.927 237.135L751.956 111.077C756.735 103.734 757.229 94.3979 753.251 86.5917L703.206 -11.6277C699.228 -19.434 691.385 -24.5222 682.636 -24.9726L532.437 -32.7041C526.786 -32.995 521.208 -31.3207 516.652 -27.9657L379.342 73.1316C373.876 77.1557 370.325 83.2666 369.534 90.0075L355.194 212.301Z" stroke="url(#paint29_linear_2041_7279)" stroke-opacity="0.1"/>
<path opacity="0.449275" d="M342.344 204.131C340.711 213.841 345.049 223.585 353.358 228.868L456.272 294.314C462.011 297.964 469.008 299.063 475.59 297.351L638.381 254.984C643.883 253.552 648.716 250.252 652.051 245.647L739.206 125.339C744.334 118.261 745.302 108.986 741.747 101.001L697.251 1.06157C693.696 -6.92364 686.156 -12.4099 677.464 -13.3356L529.74 -29.0688C524.086 -29.6709 518.4 -28.2882 513.654 -25.1574L373.241 67.4714C367.564 71.2163 363.7 77.1523 362.572 83.8588L342.344 204.131Z" stroke="url(#paint30_linear_2041_7279)" stroke-opacity="0.1"/>
<path opacity="0.463768" d="M330.139 196.009C328.033 205.582 331.836 215.488 339.806 221.193L438.028 291.505C443.569 295.471 450.512 296.951 457.188 295.588L619.75 262.405C625.347 261.262 630.369 258.2 633.947 253.747L725.854 139.377C731.317 132.579 732.754 123.391 729.629 115.25L690.724 13.898C687.599 5.75702 680.382 -0.109365 671.775 -1.50576L526.946 -25.0012C521.307 -25.916 515.526 -24.8316 510.602 -21.9354L367.591 62.1792C361.717 65.6341 357.548 71.3793 356.084 78.0348L330.139 196.009Z" stroke="url(#paint31_linear_2041_7279)" stroke-opacity="0.1"/>
<path opacity="0.478261" d="M318.565 187.97C315.998 197.382 319.26 207.421 326.869 213.527L420.175 288.392C425.501 292.666 432.369 294.523 439.123 293.515L600.943 269.373C606.621 268.526 611.821 265.712 615.636 261.422L711.918 153.156C717.699 146.655 719.599 137.577 716.911 129.303L683.621 26.8473C680.933 18.574 674.059 12.3465 665.561 10.4855L524.03 -20.511C518.422 -21.7391 512.562 -20.9591 507.47 -18.3071L362.364 57.277C356.308 60.4317 351.843 65.9707 350.046 72.5586L318.565 187.97Z" stroke="url(#paint32_linear_2041_7279)" stroke-opacity="0.1"/>
<path opacity="0.492754" d="M307.614 180.05C304.595 189.279 307.313 199.42 314.541 205.903L402.727 285.004C407.821 289.573 414.594 291.803 421.406 291.155L581.99 275.884C587.733 275.338 593.099 272.782 597.144 268.668L697.418 166.647C703.501 160.458 705.856 151.513 703.61 143.132L675.943 39.8772C673.697 31.4954 667.185 24.9269 658.823 22.6087L520.972 -15.6068C515.413 -17.148 509.488 -16.6779 504.241 -14.2793L357.535 52.787C351.312 55.632 346.562 60.95 344.435 67.4539L307.614 180.05Z" stroke="url(#paint33_linear_2041_7279)" stroke-opacity="0.1"/>
<path opacity="0.507246" d="M297.27 172.281C293.814 181.305 295.984 191.517 302.812 198.355L385.697 281.361C390.542 286.213 397.199 288.813 404.05 288.528L562.917 281.93C568.711 281.69 574.231 279.402 578.496 275.474L682.379 179.818C688.746 173.955 691.547 165.168 689.748 156.701L667.695 52.9526C665.895 44.4863 659.762 37.5978 651.561 34.8315L517.753 -10.302C512.258 -12.1552 506.285 -11.9997 500.895 -9.86309L353.079 48.7263C346.704 51.253 341.68 56.3356 339.227 62.7391L297.27 172.281Z" stroke="url(#paint34_linear_2041_7279)" stroke-opacity="0.1"/>
<path opacity="0.521739" d="M287.516 164.699C283.635 173.497 285.259 183.751 291.669 190.919L369.088 277.494C373.669 282.616 380.19 285.579 387.062 285.661L543.749 287.513C549.577 287.582 555.238 285.571 559.717 281.841L666.821 192.647C673.455 187.122 676.691 178.514 675.341 169.987L658.878 66.0449C657.528 57.5183 651.789 50.3318 643.773 47.1276L514.349 -4.60461C508.937 -6.76783 502.931 -6.93085 497.409 -5.06441L348.963 45.1165C342.453 47.3171 337.167 52.1504 334.393 58.4376L287.516 164.699Z" stroke="url(#paint35_linear_2041_7279)" stroke-opacity="0.1"/>
<path opacity="0.536232" d="M278.339 157.331C274.048 165.882 275.127 176.149 281.102 183.621L352.914 273.422C357.215 278.801 363.581 282.121 370.453 282.569L524.516 292.625C530.363 293.007 536.152 291.28 540.835 287.759L650.774 205.1C657.656 199.926 661.317 191.519 660.417 182.957L649.503 79.117C648.603 70.5544 643.274 63.0925 635.467 59.4623L510.745 1.4668C505.432 -1.00357 499.41 -1.48828 493.771 0.100536L345.165 41.9682C338.536 43.8356 333 48.4065 329.911 54.5615L278.339 157.331Z" stroke="url(#paint36_linear_2041_7279)" stroke-opacity="0.1"/>
<path opacity="0.550725" d="M269.716 150.213C265.03 158.498 265.567 168.747 271.093 176.497L337.176 269.178C341.183 274.797 347.374 278.466 354.227 279.282L505.242 297.271C511.091 297.967 516.995 296.533 521.873 293.232L634.262 217.159C641.372 212.346 645.444 204.162 644.995 195.588L639.574 92.1427C639.124 83.5682 634.219 75.8547 626.644 71.8114L506.919 7.90327C501.723 5.12951 495.701 4.3207 489.957 5.62498L341.65 39.3004C334.92 40.8286 329.146 45.1244 325.749 51.1317L269.716 150.213Z" stroke="url(#paint37_linear_2041_7279)" stroke-opacity="0.1"/>
<path opacity="0.565217" d="M261.627 143.368C256.564 151.368 256.564 161.571 261.627 169.571L321.881 264.781C325.579 270.625 331.576 274.634 338.391 275.818L485.954 301.447C491.789 302.46 497.794 301.326 502.857 298.253L617.313 228.797C624.633 224.355 629.102 216.414 629.102 207.852V105.088C629.102 96.5254 624.633 88.5844 617.313 84.1424L502.857 14.6857C497.794 11.6132 491.789 10.4787 485.954 11.4921L338.391 37.1214C331.576 38.3049 325.579 42.3138 321.881 48.1583L261.627 143.368Z" stroke="url(#paint38_linear_2041_7279)" stroke-opacity="0.1"/>
<path opacity="0.57971" d="M254.049 136.827C248.626 144.525 248.095 154.652 252.684 162.875L307.029 260.26C310.407 266.313 316.191 270.652 322.947 272.201L466.678 305.159C472.483 306.49 478.573 305.661 483.811 302.827L599.956 239.994C607.465 235.932 612.317 228.253 612.764 219.728L618.1 117.924C618.546 109.398 614.523 101.255 607.479 96.4299L498.539 21.8005C493.626 18.4348 487.656 16.9739 481.743 17.6909L335.355 35.4438C328.474 36.2784 322.268 39.9889 318.276 45.6559L254.049 136.827Z" stroke="url(#paint39_linear_2041_7279)" stroke-opacity="0.1"/>
<path opacity="0.594203" d="M246.961 130.616C241.195 137.997 240.142 148.018 244.247 156.437L292.624 255.642C295.669 261.887 301.222 266.545 307.901 268.457L447.441 308.412C453.198 310.06 459.361 309.543 464.763 306.957L582.221 250.734C589.899 247.059 595.119 239.662 596.009 231.196L606.579 130.626C607.469 122.16 603.901 113.839 597.155 108.648L493.953 29.2325C489.206 25.58 483.286 23.7927 477.312 24.2081L332.514 34.2775C325.583 34.7595 319.183 38.1612 314.906 43.6362L246.961 130.616Z" stroke="url(#paint40_linear_2041_7279)" stroke-opacity="0.1"/>
<path opacity="0.608696" d="M240.334 124.755C234.245 131.803 232.679 141.693 236.292 150.277L278.663 250.949C281.364 257.366 286.668 262.332 293.25 264.604L428.266 311.207C433.96 313.172 440.179 312.971 445.734 310.642L564.137 260.994C571.964 257.713 577.534 250.615 578.862 242.233L594.553 143.16C595.881 134.778 592.776 126.306 586.347 120.767L489.081 36.9602C484.517 33.0283 478.665 30.9154 472.642 31.025L329.834 33.6251C322.872 33.7519 316.293 36.835 311.74 42.104L240.334 124.755Z" stroke="url(#paint41_linear_2041_7279)" stroke-opacity="0.1"/>
<path opacity="0.623188" d="M234.145 119.272C227.754 125.972 225.685 135.703 228.799 144.423L265.147 246.209C267.494 252.781 272.533 258.041 278.999 260.667L409.181 313.555C414.795 315.836 421.054 315.955 426.751 313.891L545.739 270.765C553.693 267.882 559.597 261.1 561.355 252.825L582.041 155.506C583.8 147.231 581.165 138.634 575.072 132.765L483.912 44.9704C479.547 40.7672 473.78 38.3304 467.724 38.1306L327.285 33.496C320.31 33.2658 313.568 36.0213 308.75 41.071L234.145 119.272Z" stroke="url(#paint42_linear_2041_7279)" stroke-opacity="0.1"/>
<path opacity="0.637681" d="M228.368 114.187C221.694 120.526 219.136 130.072 221.746 138.899L252.074 241.447C254.057 248.154 258.814 253.695 265.144 256.671L390.211 315.465C395.727 318.059 402.012 318.502 407.838 316.71L527.059 280.031C535.119 277.552 541.337 271.101 543.52 262.956L569.06 167.637C571.243 159.492 569.083 150.796 563.343 144.619L478.434 53.244C474.285 48.7786 468.62 46.0204 462.546 45.5081L324.838 33.8926C317.867 33.3047 310.978 35.7243 305.906 40.5416L228.368 114.187Z" stroke="url(#paint43_linear_2041_7279)" stroke-opacity="0.1"/>
<path opacity="0.652174" d="M222.971 109.513C216.035 115.481 213.002 124.816 215.106 133.72L239.436 236.683C241.048 243.506 245.506 249.312 251.683 252.631L371.376 316.942C376.779 319.845 383.073 320.616 389.017 319.103L508.126 288.78C516.271 286.706 522.785 280.602 525.382 272.608L555.626 179.527C558.223 171.533 556.541 162.766 551.171 156.301L472.633 61.7582C468.714 57.0406 463.169 53.9644 457.092 53.1373L322.456 34.8125C315.509 33.8669 308.489 35.9432 303.174 40.5158L222.971 109.513Z" stroke="url(#paint44_linear_2041_7279)" stroke-opacity="0.1"/>
<path opacity="0.666667" d="M217.929 105.273C210.752 110.857 207.259 119.957 208.855 128.91L227.23 231.944C228.464 238.863 232.609 244.919 238.613 248.572L352.703 318C357.975 321.208 364.264 322.309 370.312 321.082L488.976 297.003C497.185 295.337 503.975 289.593 506.977 281.772L541.761 191.156C544.763 183.335 543.561 174.523 538.575 167.792L466.502 70.4965C462.829 65.5376 457.419 62.1476 451.355 61.0041L320.113 36.2578C313.207 34.9556 306.074 36.6819 300.527 40.998L217.929 105.273Z" stroke="url(#paint45_linear_2041_7279)" stroke-opacity="0.1"/>
<path opacity="0.681159" d="M213.208 101.479C205.812 106.672 201.876 115.513 202.965 124.484L215.447 227.254C216.296 234.247 220.115 240.536 225.928 244.516L334.212 318.651C339.336 322.159 345.602 323.591 351.742 322.655L469.64 304.694C477.892 303.437 484.936 298.064 488.332 290.438L527.483 202.502C530.879 194.876 530.158 186.046 525.57 179.072L460.029 79.4389C456.616 74.2503 451.36 70.5515 445.323 69.0908L317.774 38.2259C310.927 36.569 303.698 37.9396 297.933 41.9878L213.208 101.479Z" stroke="url(#paint46_linear_2041_7279)" stroke-opacity="0.1"/>
<path opacity="0.695652" d="M208.781 98.1461C201.189 102.939 196.827 111.5 197.412 120.459L204.081 222.635C204.541 229.681 208.019 236.187 213.623 240.483L315.926 318.908C320.887 322.711 327.114 324.474 333.333 323.836L450.153 311.848C458.427 310.999 465.705 306.01 469.482 298.599L512.818 213.547C516.594 206.136 516.352 197.315 512.176 190.122L453.209 88.5658C450.07 83.1598 444.983 79.1581 438.99 77.38L315.411 40.7128C308.641 38.7042 301.334 39.7142 295.363 43.484L208.781 98.1461Z" stroke="url(#paint47_linear_2041_7279)" stroke-opacity="0.1"/>
<path opacity="0.710145" d="M204.617 95.2846C196.851 99.6707 192.083 107.93 192.167 116.848L193.122 218.107C193.189 225.186 196.314 231.889 201.692 236.491L297.865 318.785C302.646 322.876 308.818 324.971 315.102 324.635L430.548 318.461C438.823 318.019 446.314 313.423 450.458 306.246L497.786 224.272C501.929 217.095 502.164 208.31 498.41 200.922L446.033 97.8558C443.182 92.2459 438.282 87.9481 432.348 85.853L312.994 43.712C306.319 41.3553 298.951 42.0007 292.787 45.4821L204.617 95.2846Z" stroke="url(#paint48_linear_2041_7279)" stroke-opacity="0.1"/>
<path opacity="0.724638" d="M200.684 92.9036C192.768 96.8776 187.613 104.815 187.202 113.664L182.56 213.693C182.231 220.782 184.991 227.664 190.127 232.561L280.05 318.298C284.635 322.67 290.735 325.095 297.071 325.066L410.859 324.533C419.115 324.494 426.795 320.3 431.292 313.377L482.411 234.66C486.908 227.736 487.615 219.013 484.292 211.456L438.497 107.288C435.947 101.489 431.25 96.9021 425.391 94.4914L310.492 47.2154C303.93 44.5154 296.519 44.7931 290.178 47.9767L200.684 92.9036Z" stroke="url(#paint49_linear_2041_7279)" stroke-opacity="0.1"/>
<path opacity="0.73913" d="M196.952 91.0109C188.908 94.5688 183.388 102.166 182.49 110.916L172.383 209.413C171.657 216.489 174.042 223.532 178.919 228.71L262.499 317.463C266.872 322.107 272.885 324.863 279.258 325.143L391.119 330.064C399.334 330.425 407.183 326.641 412.017 319.988L466.719 244.697C471.553 238.044 472.726 229.41 469.844 221.708L430.597 116.843C428.361 110.868 423.882 106.002 418.114 103.277L307.877 51.2142C301.445 48.1764 294.01 48.0841 287.505 50.9614L196.952 91.0109Z" stroke="url(#paint50_linear_2041_7279)" stroke-opacity="0.1"/>
<path opacity="0.753623" d="M193.388 89.611C185.239 92.7499 179.376 99.9898 178 108.614L162.578 205.285C161.454 212.327 163.455 219.509 168.057 224.956L245.229 316.297C249.375 321.205 255.283 324.288 261.681 324.881L371.359 335.056C379.514 335.813 387.508 332.444 392.662 326.079L450.732 254.369C455.887 248.004 457.52 239.484 455.084 231.665L422.328 126.498C420.417 120.365 416.174 115.226 410.511 112.191L305.121 55.6964C298.836 52.3273 291.395 51.8637 284.74 54.4267L193.388 89.611Z" stroke="url(#paint51_linear_2041_7279)" stroke-opacity="0.1"/>
<path opacity="0.768116" d="M189.961 88.7089C181.729 91.4273 175.546 98.2938 173.703 106.765L153.13 201.329C151.61 208.314 153.218 215.615 157.53 221.317L228.257 314.821C232.161 319.982 237.948 323.389 244.355 324.298L351.611 339.517C359.687 340.663 367.803 337.715 373.26 331.653L434.477 263.666C439.934 257.605 442.018 249.225 440.034 241.313L413.687 136.235C412.113 129.958 408.12 124.559 402.579 121.216L302.195 60.6509C296.074 56.9578 288.645 56.1225 281.856 58.3641L189.961 88.7089Z" stroke="url(#paint52_linear_2041_7279)" stroke-opacity="0.1"/>
<path opacity="0.782609" d="M186.64 88.3062C178.348 90.6038 171.87 97.0826 169.572 105.374L144.028 197.562C142.114 204.469 143.32 211.868 147.329 217.809L211.599 313.052C215.246 318.456 220.895 322.184 227.298 323.411L331.91 343.452C339.886 344.98 348.101 342.456 353.843 336.713L417.979 272.578C423.722 266.835 426.246 258.62 424.717 250.644L404.676 146.032C403.45 139.63 399.722 133.98 394.318 130.333L299.075 66.0636C293.133 62.0547 285.735 60.8482 278.828 62.762L186.64 88.3062Z" stroke="url(#paint53_linear_2041_7279)" stroke-opacity="0.1"/>
<path opacity="0.797101" d="M183.396 88.4009C175.067 90.2787 168.317 96.3569 165.579 104.444L135.256 194C132.952 200.806 133.751 208.28 137.443 214.445L195.271 311.01C198.646 316.646 204.142 320.69 210.526 322.235L312.285 346.868C320.144 348.771 328.435 346.673 334.443 341.263L401.267 281.095C407.275 275.685 410.228 267.658 409.157 259.644L395.296 155.868C394.426 149.357 390.979 143.468 385.727 139.523L295.735 71.9173C289.991 67.6015 282.641 66.0252 275.631 67.6055L183.396 88.4009Z" stroke="url(#paint54_linear_2041_7279)" stroke-opacity="0.1"/>
<path opacity="0.811594" d="M180.194 88.9912C171.851 90.4515 164.854 96.1178 161.691 103.975L126.796 190.658C124.105 197.341 124.493 204.868 127.854 211.24L179.283 308.716C182.372 314.571 187.698 318.926 194.05 320.791L292.765 349.777C300.488 352.045 308.831 350.375 315.086 345.31L384.363 289.211C390.617 284.146 393.986 276.332 393.373 268.306L385.544 165.722C385.041 159.121 381.888 153.006 376.804 148.767L292.15 78.1956C286.617 73.5828 279.334 71.639 272.238 72.8809L180.194 88.9912Z" stroke="url(#paint55_linear_2041_7279)" stroke-opacity="0.1"/>
<path opacity="0.826087" d="M177.006 90.072C168.671 91.1183 161.452 96.3627 157.881 103.967L118.631 187.549C115.561 194.086 115.532 201.645 118.552 208.206L163.649 306.19C166.438 312.25 171.578 316.911 177.882 319.096L273.38 352.19C280.949 354.813 289.323 353.57 295.803 348.861L367.294 296.92C373.775 292.211 377.545 284.632 377.389 276.623L375.425 175.572C375.296 168.902 372.451 162.573 367.549 158.047L288.297 84.8791C282.99 79.9798 275.792 77.6716 268.626 78.5712L177.006 90.072Z" stroke="url(#paint56_linear_2041_7279)" stroke-opacity="0.1"/>
<path opacity="0.84058" d="M173.805 91.64C165.498 92.2771 158.085 97.0915 154.124 104.421L110.748 184.689C107.306 191.059 106.858 198.626 109.524 205.359L148.38 303.456C150.857 309.709 155.795 314.669 162.038 317.173L254.161 354.122C261.56 357.09 269.94 356.272 276.625 351.93L350.091 304.222C356.776 299.88 360.931 292.557 361.23 284.591L364.945 185.403C365.197 178.682 362.674 172.153 357.969 167.347L284.157 91.9509C279.091 86.7765 271.996 84.1081 264.776 84.6619L173.805 91.64Z" stroke="url(#paint57_linear_2041_7279)" stroke-opacity="0.1"/>
<path opacity="0.855072" d="M170.556 93.6883C162.3 93.9222 154.718 98.2998 150.388 105.333L103.124 182.09C99.3175 188.272 98.4488 195.824 100.752 202.709L133.482 300.537C135.634 306.968 140.355 312.22 146.522 315.042L235.131 355.59C242.344 358.891 250.707 358.495 257.576 354.53L332.773 311.115C339.642 307.149 344.166 300.103 344.914 292.207L354.103 195.195C354.742 188.443 352.555 181.729 348.061 176.65L279.705 99.3911C274.894 93.9537 267.919 90.93 260.662 91.1356L170.556 93.6883Z" stroke="url(#paint58_linear_2041_7279)" stroke-opacity="0.1"/>
<path opacity="0.869565" d="M167.236 96.2024C159.052 96.0402 151.327 99.976 146.648 106.693L95.7445 179.758C91.5834 185.731 90.2937 193.245 92.2249 200.263L118.967 297.451C120.782 304.046 125.27 309.581 131.347 312.72L216.32 356.606C223.33 360.227 231.655 360.25 238.685 356.668L315.372 317.594C322.402 314.012 327.277 307.263 328.468 299.464L342.909 204.923C343.942 198.162 342.101 191.278 337.833 185.934L274.925 107.173C270.382 101.485 263.545 98.1119 256.268 97.9676L167.236 96.2024Z" stroke="url(#paint59_linear_2041_7279)" stroke-opacity="0.1"/>
<path opacity="0.884058" d="M163.815 99.1774C155.722 98.6272 147.882 102.118 142.876 108.5L88.5884 177.709C84.0839 183.452 82.3742 190.904 83.9249 198.036L104.84 294.227C106.306 300.969 110.546 306.78 116.519 310.233L197.749 357.194C204.543 361.122 212.808 361.557 219.977 358.365L297.91 323.667C305.079 320.475 310.286 314.042 311.913 306.365L331.368 214.576C332.798 207.827 331.317 200.787 327.288 195.187L269.799 115.279C265.536 109.355 258.854 105.639 251.573 105.144L163.815 99.1774Z" stroke="url(#paint60_linear_2041_7279)" stroke-opacity="0.1"/>
<path opacity="0.898551" d="M160.266 102.597C152.285 101.668 144.355 104.712 139.046 110.743L81.6365 175.947C76.8007 181.439 74.6733 188.806 75.8363 196.031L91.1058 290.885C92.212 297.757 96.1889 303.834 102.043 307.598L179.444 357.369C186.008 361.59 194.189 362.432 201.475 359.635L280.414 329.333C287.699 326.537 293.216 320.437 295.27 312.908L319.486 224.13C321.318 217.415 320.207 210.238 316.431 204.391L264.309 123.683C260.338 117.536 253.828 113.485 246.559 112.639L160.266 102.597Z" stroke="url(#paint61_linear_2041_7279)" stroke-opacity="0.1"/>
<path opacity="0.913043" d="M156.567 106.446C148.716 105.149 140.724 107.746 135.135 113.41L74.8723 174.478C69.7185 179.7 67.1768 186.958 67.9461 194.255L77.7706 287.446C78.507 294.431 82.206 300.764 87.9283 304.837L161.427 357.153C167.748 361.652 175.827 362.891 183.205 360.494L262.909 334.596C270.288 332.199 276.095 326.448 278.564 319.093L307.276 233.567C309.511 226.908 308.781 219.611 305.271 213.527L258.443 132.359C254.776 126.003 248.454 121.626 241.215 120.43L156.567 106.446Z" stroke="url(#paint62_linear_2041_7279)" stroke-opacity="0.1"/>
<path opacity="0.927536" d="M152.689 110.714C144.987 109.06 136.959 111.211 131.115 116.494L68.2728 173.312C62.8156 178.246 59.8645 185.372 60.2349 192.719L64.8342 283.939C65.1912 291.02 68.5979 297.599 74.1745 301.977L143.717 356.571C149.784 361.333 157.738 362.961 165.187 360.965L245.417 339.467C252.866 337.471 258.941 332.084 261.813 324.927L294.742 242.876C297.383 236.296 297.044 228.895 293.813 222.585L252.186 141.286C248.833 134.738 242.714 130.043 235.521 128.498L152.689 110.714Z" stroke="url(#paint63_linear_2041_7279)" stroke-opacity="0.1"/>
<path opacity="0.942029" d="M148.613 115.379C141.076 113.381 133.038 115.089 126.965 119.98L61.8202 172.451C56.0752 177.078 52.7209 184.048 52.6886 191.424L52.2995 280.384C52.2682 287.541 55.3687 294.355 60.7859 299.033L126.335 355.642C132.135 360.651 139.946 362.658 147.442 361.064L227.964 343.949C235.46 342.355 241.779 337.346 245.041 330.41L281.898 252.034C284.944 245.557 285.005 238.072 282.065 231.545L245.527 150.435C242.497 143.71 236.598 138.707 229.467 136.816L148.613 115.379Z" stroke="url(#paint64_linear_2041_7279)" stroke-opacity="0.1"/>
<path opacity="0.956522" d="M144.314 120.427C136.96 118.098 128.938 119.368 122.663 123.856L55.4946 171.9C49.4786 176.203 45.7286 182.994 45.2908 190.377L40.1665 276.806C39.7387 284.021 42.5191 291.058 47.7636 296.032L109.297 354.394C114.822 359.634 122.469 362.007 129.99 360.816L210.571 348.053C218.092 346.862 224.631 342.242 228.266 335.551L268.753 261.031C272.204 254.679 272.674 247.128 270.037 240.398L238.456 159.783C235.758 152.896 230.093 147.597 223.042 145.363L144.314 120.427Z" stroke="url(#paint65_linear_2041_7279)" stroke-opacity="0.1"/>
<path opacity="0.971014" d="M139.774 125.836C132.617 123.19 124.636 124.029 118.187 128.105L49.2759 171.66C43.0067 175.622 38.8699 182.211 38.025 189.579L28.4332 273.227C27.6015 280.481 30.0484 287.728 35.1072 292.993L92.6196 352.849C97.8599 358.303 105.325 361.031 112.847 360.24L193.26 351.788C200.782 350.998 207.517 346.778 211.509 340.353L255.32 269.847C259.173 263.646 260.06 256.048 257.738 249.126L230.965 169.3C228.607 162.269 223.19 156.684 216.234 154.112L139.774 125.836Z" stroke="url(#paint66_linear_2041_7279)" stroke-opacity="0.1"/>
<path opacity="0.985507" d="M134.973 131.587C128.029 128.638 120.114 129.053 113.517 132.712L43.1458 171.731C36.6424 175.337 32.1288 181.701 30.8764 189.031L17.0984 269.67C15.8559 276.942 17.9563 284.387 22.8164 289.937L76.3173 351.034C81.2651 356.684 88.5313 359.753 96.0315 359.36L176.054 355.166C183.554 354.773 190.46 350.962 194.79 344.825L241.611 278.47C245.864 272.443 247.175 264.819 245.179 257.717L223.048 178.96C221.036 171.801 215.882 165.943 209.037 163.037L134.973 131.587Z" stroke="url(#paint67_linear_2041_7279)" stroke-opacity="0.1"/>
<path d="M129.893 137.659C123.176 134.424 115.351 134.424 108.633 137.659L37.0835 172.115C30.366 175.35 25.4871 181.468 23.828 188.737L6.15666 266.16C4.49756 273.429 6.23883 281.058 10.8875 286.887L60.4014 348.976C65.0501 354.805 72.1003 358.2 79.5563 358.2H158.97C166.426 358.2 173.477 354.805 178.125 348.976L227.639 286.887C232.288 281.058 234.029 273.429 232.37 266.16L214.699 188.737C213.04 181.468 208.161 175.35 201.443 172.115L129.893 137.659Z" stroke="url(#paint68_linear_2041_7279)" stroke-opacity="0.1"/>
<defs>
<linearGradient id="paint0_linear_2041_7279" x1="992.5" y1="308.917" x2="740.75" y2="-256.523" gradientUnits="userSpaceOnUse">
<stop stop-color="#B50000"/>
<stop offset="1" stop-color="white"/>
</linearGradient>
<linearGradient id="paint1_linear_2041_7279" x1="966.072" y1="315.595" x2="746.217" y2="-257.146" gradientUnits="userSpaceOnUse">
<stop stop-color="#B50000"/>
<stop offset="1" stop-color="white"/>
</linearGradient>
<linearGradient id="paint2_linear_2041_7279" x1="939.609" y1="321.418" x2="751.718" y2="-256.849" gradientUnits="userSpaceOnUse">
<stop stop-color="#B50000"/>
<stop offset="1" stop-color="white"/>
</linearGradient>
<linearGradient id="paint3_linear_2041_7279" x1="913.161" y1="326.39" x2="757.207" y2="-255.64" gradientUnits="userSpaceOnUse">
<stop stop-color="#B50000"/>
<stop offset="1" stop-color="white"/>
</linearGradient>
<linearGradient id="paint4_linear_2041_7279" x1="886.774" y1="330.525" x2="762.63" y2="-253.527" gradientUnits="userSpaceOnUse">
<stop stop-color="#B50000"/>
<stop offset="1" stop-color="white"/>
</linearGradient>
<linearGradient id="paint5_linear_2041_7279" x1="860.491" y1="333.828" x2="767.939" y2="-250.525" gradientUnits="userSpaceOnUse">
<stop stop-color="#B50000"/>
<stop offset="1" stop-color="white"/>
</linearGradient>
<linearGradient id="paint6_linear_2041_7279" x1="834.358" y1="336.318" x2="773.086" y2="-246.645" gradientUnits="userSpaceOnUse">
<stop stop-color="#B50000"/>
<stop offset="1" stop-color="white"/>
</linearGradient>
<linearGradient id="paint7_linear_2041_7279" x1="808.418" y1="338.01" x2="778.026" y2="-241.906" gradientUnits="userSpaceOnUse">
<stop stop-color="#B50000"/>
<stop offset="1" stop-color="white"/>
</linearGradient>
<linearGradient id="paint8_linear_2041_7279" x1="782.715" y1="338.918" x2="782.715" y2="-236.33" gradientUnits="userSpaceOnUse">
<stop stop-color="#B50000"/>
<stop offset="1" stop-color="white"/>
</linearGradient>
<linearGradient id="paint9_linear_2041_7279" x1="757.286" y1="339.07" x2="787.106" y2="-229.934" gradientUnits="userSpaceOnUse">
<stop stop-color="#B50000"/>
<stop offset="1" stop-color="white"/>
</linearGradient>
<linearGradient id="paint10_linear_2041_7279" x1="732.172" y1="338.482" x2="791.16" y2="-222.749" gradientUnits="userSpaceOnUse">
<stop stop-color="#B50000"/>
<stop offset="1" stop-color="white"/>
</linearGradient>
<linearGradient id="paint11_linear_2041_7279" x1="707.409" y1="337.182" x2="794.834" y2="-214.797" gradientUnits="userSpaceOnUse">
<stop stop-color="#B50000"/>
<stop offset="1" stop-color="white"/>
</linearGradient>
<linearGradient id="paint12_linear_2041_7279" x1="683.035" y1="335.196" x2="798.093" y2="-206.107" gradientUnits="userSpaceOnUse">
<stop stop-color="#B50000"/>
<stop offset="1" stop-color="white"/>
</linearGradient>
<linearGradient id="paint13_linear_2041_7279" x1="659.083" y1="332.554" x2="800.898" y2="-196.709" gradientUnits="userSpaceOnUse">
<stop stop-color="#B50000"/>
<stop offset="1" stop-color="white"/>
</linearGradient>
<linearGradient id="paint14_linear_2041_7279" x1="635.582" y1="329.283" x2="803.215" y2="-186.637" gradientUnits="userSpaceOnUse">
<stop stop-color="#B50000"/>
<stop offset="1" stop-color="white"/>
</linearGradient>
<linearGradient id="paint15_linear_2041_7279" x1="612.566" y1="325.416" x2="805.013" y2="-175.924" gradientUnits="userSpaceOnUse">
<stop stop-color="#B50000"/>
<stop offset="1" stop-color="white"/>
</linearGradient>
<linearGradient id="paint16_linear_2041_7279" x1="590.062" y1="320.985" x2="806.26" y2="-164.605" gradientUnits="userSpaceOnUse">
<stop stop-color="#B50000"/>
<stop offset="1" stop-color="white"/>
</linearGradient>
<linearGradient id="paint17_linear_2041_7279" x1="568.096" y1="316.023" x2="806.932" y2="-152.719" gradientUnits="userSpaceOnUse">
<stop stop-color="#B50000"/>
<stop offset="1" stop-color="white"/>
</linearGradient>
<linearGradient id="paint18_linear_2041_7279" x1="546.689" y1="310.57" x2="806.998" y2="-140.298" gradientUnits="userSpaceOnUse">
<stop stop-color="#B50000"/>
<stop offset="1" stop-color="white"/>
</linearGradient>
<linearGradient id="paint19_linear_2041_7279" x1="525.866" y1="304.657" x2="806.439" y2="-127.388" gradientUnits="userSpaceOnUse">
<stop stop-color="#B50000"/>
<stop offset="1" stop-color="white"/>
</linearGradient>
<linearGradient id="paint20_linear_2041_7279" x1="505.644" y1="298.325" x2="805.234" y2="-114.025" gradientUnits="userSpaceOnUse">
<stop stop-color="#B50000"/>
<stop offset="1" stop-color="white"/>
</linearGradient>
<linearGradient id="paint21_linear_2041_7279" x1="486.04" y1="291.61" x2="803.362" y2="-100.25" gradientUnits="userSpaceOnUse">
<stop stop-color="#B50000"/>
<stop offset="1" stop-color="white"/>
</linearGradient>
<linearGradient id="paint22_linear_2041_7279" x1="467.07" y1="284.551" x2="800.811" y2="-86.1048" gradientUnits="userSpaceOnUse">
<stop stop-color="#B50000"/>
<stop offset="1" stop-color="white"/>
</linearGradient>
<linearGradient id="paint23_linear_2041_7279" x1="448.747" y1="277.185" x2="797.565" y2="-71.6334" gradientUnits="userSpaceOnUse">
<stop stop-color="#B50000"/>
<stop offset="1" stop-color="white"/>
</linearGradient>
<linearGradient id="paint24_linear_2041_7279" x1="431.078" y1="269.555" x2="793.614" y2="-56.8745" gradientUnits="userSpaceOnUse">
<stop stop-color="#B50000"/>
<stop offset="1" stop-color="white"/>
</linearGradient>
<linearGradient id="paint25_linear_2041_7279" x1="414.073" y1="261.697" x2="788.951" y2="-41.8733" gradientUnits="userSpaceOnUse">
<stop stop-color="#B50000"/>
<stop offset="1" stop-color="white"/>
</linearGradient>
<linearGradient id="paint26_linear_2041_7279" x1="397.736" y1="253.654" x2="783.568" y2="-26.6699" gradientUnits="userSpaceOnUse">
<stop stop-color="#B50000"/>
<stop offset="1" stop-color="white"/>
</linearGradient>
<linearGradient id="paint27_linear_2041_7279" x1="382.071" y1="245.462" x2="777.464" y2="-11.3088" gradientUnits="userSpaceOnUse">
<stop stop-color="#B50000"/>
<stop offset="1" stop-color="white"/>
</linearGradient>
<linearGradient id="paint28_linear_2041_7279" x1="367.079" y1="237.164" x2="770.637" y2="4.16933" gradientUnits="userSpaceOnUse">
<stop stop-color="#B50000"/>
<stop offset="1" stop-color="white"/>
</linearGradient>
<linearGradient id="paint29_linear_2041_7279" x1="352.757" y1="228.794" x2="763.089" y2="19.7198" gradientUnits="userSpaceOnUse">
<stop stop-color="#B50000"/>
<stop offset="1" stop-color="white"/>
</linearGradient>
<linearGradient id="paint30_linear_2041_7279" x1="339.102" y1="220.395" x2="754.822" y2="35.3043" gradientUnits="userSpaceOnUse">
<stop stop-color="#B50000"/>
<stop offset="1" stop-color="white"/>
</linearGradient>
<linearGradient id="paint31_linear_2041_7279" x1="326.109" y1="212.004" x2="745.847" y2="50.8813" gradientUnits="userSpaceOnUse">
<stop stop-color="#B50000"/>
<stop offset="1" stop-color="white"/>
</linearGradient>
<linearGradient id="paint32_linear_2041_7279" x1="313.768" y1="203.656" x2="736.168" y2="66.41" gradientUnits="userSpaceOnUse">
<stop stop-color="#B50000"/>
<stop offset="1" stop-color="white"/>
</linearGradient>
<linearGradient id="paint33_linear_2041_7279" x1="302.071" y1="195.39" x2="725.798" y2="81.8526" gradientUnits="userSpaceOnUse">
<stop stop-color="#B50000"/>
<stop offset="1" stop-color="white"/>
</linearGradient>
<linearGradient id="paint34_linear_2041_7279" x1="291.005" y1="187.239" x2="714.75" y2="97.1689" gradientUnits="userSpaceOnUse">
<stop stop-color="#B50000"/>
<stop offset="1" stop-color="white"/>
</linearGradient>
<linearGradient id="paint35_linear_2041_7279" x1="280.555" y1="179.24" x2="703.037" y2="112.326" gradientUnits="userSpaceOnUse">
<stop stop-color="#B50000"/>
<stop offset="1" stop-color="white"/>
</linearGradient>
<linearGradient id="paint36_linear_2041_7279" x1="270.708" y1="171.423" x2="690.68" y2="127.282" gradientUnits="userSpaceOnUse">
<stop stop-color="#B50000"/>
<stop offset="1" stop-color="white"/>
</linearGradient>
<linearGradient id="paint37_linear_2041_7279" x1="261.443" y1="163.824" x2="677.695" y2="142.009" gradientUnits="userSpaceOnUse">
<stop stop-color="#B50000"/>
<stop offset="1" stop-color="white"/>
</linearGradient>
<linearGradient id="paint38_linear_2041_7279" x1="252.744" y1="156.47" x2="664.103" y2="156.47" gradientUnits="userSpaceOnUse">
<stop stop-color="#B50000"/>
<stop offset="1" stop-color="white"/>
</linearGradient>
<linearGradient id="paint39_linear_2041_7279" x1="244.587" y1="149.391" x2="649.927" y2="170.634" gradientUnits="userSpaceOnUse">
<stop stop-color="#B50000"/>
<stop offset="1" stop-color="white"/>
</linearGradient>
<linearGradient id="paint40_linear_2041_7279" x1="236.951" y1="142.617" x2="635.192" y2="184.474" gradientUnits="userSpaceOnUse">
<stop stop-color="#B50000"/>
<stop offset="1" stop-color="white"/>
</linearGradient>
<linearGradient id="paint41_linear_2041_7279" x1="229.812" y1="136.17" x2="619.92" y2="197.957" gradientUnits="userSpaceOnUse">
<stop stop-color="#B50000"/>
<stop offset="1" stop-color="white"/>
</linearGradient>
<linearGradient id="paint42_linear_2041_7279" x1="223.146" y1="130.078" x2="604.142" y2="211.061" gradientUnits="userSpaceOnUse">
<stop stop-color="#B50000"/>
<stop offset="1" stop-color="white"/>
</linearGradient>
<linearGradient id="paint43_linear_2041_7279" x1="216.926" y1="124.364" x2="587.885" y2="223.762" gradientUnits="userSpaceOnUse">
<stop stop-color="#B50000"/>
<stop offset="1" stop-color="white"/>
</linearGradient>
<linearGradient id="paint44_linear_2041_7279" x1="211.124" y1="119.046" x2="571.177" y2="236.034" gradientUnits="userSpaceOnUse">
<stop stop-color="#B50000"/>
<stop offset="1" stop-color="white"/>
</linearGradient>
<linearGradient id="paint45_linear_2041_7279" x1="205.714" y1="114.144" x2="554.051" y2="247.858" gradientUnits="userSpaceOnUse">
<stop stop-color="#B50000"/>
<stop offset="1" stop-color="white"/>
</linearGradient>
<linearGradient id="paint46_linear_2041_7279" x1="200.663" y1="109.676" x2="536.534" y2="259.215" gradientUnits="userSpaceOnUse">
<stop stop-color="#B50000"/>
<stop offset="1" stop-color="white"/>
</linearGradient>
<linearGradient id="paint47_linear_2041_7279" x1="195.945" y1="105.658" x2="518.662" y2="270.091" gradientUnits="userSpaceOnUse">
<stop stop-color="#B50000"/>
<stop offset="1" stop-color="white"/>
</linearGradient>
<linearGradient id="paint48_linear_2041_7279" x1="191.528" y1="102.103" x2="500.465" y2="280.468" gradientUnits="userSpaceOnUse">
<stop stop-color="#B50000"/>
<stop offset="1" stop-color="white"/>
</linearGradient>
<linearGradient id="paint49_linear_2041_7279" x1="187.381" y1="99.0222" x2="481.979" y2="290.336" gradientUnits="userSpaceOnUse">
<stop stop-color="#B50000"/>
<stop offset="1" stop-color="white"/>
</linearGradient>
<linearGradient id="paint50_linear_2041_7279" x1="183.474" y1="96.4251" x2="463.236" y2="299.684" gradientUnits="userSpaceOnUse">
<stop stop-color="#B50000"/>
<stop offset="1" stop-color="white"/>
</linearGradient>
<linearGradient id="paint51_linear_2041_7279" x1="179.774" y1="94.3187" x2="444.269" y2="308.502" gradientUnits="userSpaceOnUse">
<stop stop-color="#B50000"/>
<stop offset="1" stop-color="white"/>
</linearGradient>
<linearGradient id="paint52_linear_2041_7279" x1="176.249" y1="92.7102" x2="425.112" y2="316.788" gradientUnits="userSpaceOnUse">
<stop stop-color="#B50000"/>
<stop offset="1" stop-color="white"/>
</linearGradient>
<linearGradient id="paint53_linear_2041_7279" x1="172.869" y1="91.6032" x2="405.801" y2="324.535" gradientUnits="userSpaceOnUse">
<stop stop-color="#B50000"/>
<stop offset="1" stop-color="white"/>
</linearGradient>
<linearGradient id="paint54_linear_2041_7279" x1="169.603" y1="90.998" x2="386.37" y2="331.742" gradientUnits="userSpaceOnUse">
<stop stop-color="#B50000"/>
<stop offset="1" stop-color="white"/>
</linearGradient>
<linearGradient id="paint55_linear_2041_7279" x1="166.417" y1="90.895" x2="366.849" y2="338.408" gradientUnits="userSpaceOnUse">
<stop stop-color="#B50000"/>
<stop offset="1" stop-color="white"/>
</linearGradient>
<linearGradient id="paint56_linear_2041_7279" x1="163.282" y1="91.2909" x2="347.274" y2="344.535" gradientUnits="userSpaceOnUse">
<stop stop-color="#B50000"/>
<stop offset="1" stop-color="white"/>
</linearGradient>
<linearGradient id="paint57_linear_2041_7279" x1="160.168" y1="92.1845" x2="327.68" y2="350.129" gradientUnits="userSpaceOnUse">
<stop stop-color="#B50000"/>
<stop offset="1" stop-color="white"/>
</linearGradient>
<linearGradient id="paint58_linear_2041_7279" x1="157.043" y1="93.571" x2="308.093" y2="355.198" gradientUnits="userSpaceOnUse">
<stop stop-color="#B50000"/>
<stop offset="1" stop-color="white"/>
</linearGradient>
<linearGradient id="paint59_linear_2041_7279" x1="153.88" y1="95.4375" x2="288.55" y2="359.744" gradientUnits="userSpaceOnUse">
<stop stop-color="#B50000"/>
<stop offset="1" stop-color="white"/>
</linearGradient>
<linearGradient id="paint60_linear_2041_7279" x1="150.648" y1="97.7811" x2="269.08" y2="363.783" gradientUnits="userSpaceOnUse">
<stop stop-color="#B50000"/>
<stop offset="1" stop-color="white"/>
</linearGradient>
<linearGradient id="paint61_linear_2041_7279" x1="147.321" y1="100.587" x2="249.711" y2="367.322" gradientUnits="userSpaceOnUse">
<stop stop-color="#B50000"/>
<stop offset="1" stop-color="white"/>
</linearGradient>
<linearGradient id="paint62_linear_2041_7279" x1="143.873" y1="103.842" x2="230.475" y2="370.375" gradientUnits="userSpaceOnUse">
<stop stop-color="#B50000"/>
<stop offset="1" stop-color="white"/>
</linearGradient>
<linearGradient id="paint63_linear_2041_7279" x1="140.277" y1="107.537" x2="211.396" y2="372.96" gradientUnits="userSpaceOnUse">
<stop stop-color="#B50000"/>
<stop offset="1" stop-color="white"/>
</linearGradient>
<linearGradient id="paint64_linear_2041_7279" x1="136.508" y1="111.653" x2="192.503" y2="375.09" gradientUnits="userSpaceOnUse">
<stop stop-color="#B50000"/>
<stop offset="1" stop-color="white"/>
</linearGradient>
<linearGradient id="paint65_linear_2041_7279" x1="132.544" y1="116.175" x2="173.82" y2="376.786" gradientUnits="userSpaceOnUse">
<stop stop-color="#B50000"/>
<stop offset="1" stop-color="white"/>
</linearGradient>
<linearGradient id="paint66_linear_2041_7279" x1="128.361" y1="121.083" x2="155.371" y2="378.065" gradientUnits="userSpaceOnUse">
<stop stop-color="#B50000"/>
<stop offset="1" stop-color="white"/>
</linearGradient>
<linearGradient id="paint67_linear_2041_7279" x1="123.942" y1="126.359" x2="137.179" y2="378.947" gradientUnits="userSpaceOnUse">
<stop stop-color="#B50000"/>
<stop offset="1" stop-color="white"/>
</linearGradient>
<linearGradient id="paint68_linear_2041_7279" x1="119.263" y1="131.984" x2="119.263" y2="379.456" gradientUnits="userSpaceOnUse">
<stop stop-color="#B50000"/>
<stop offset="1" stop-color="white"/>
</linearGradient>
</defs>
</svg>
