<svg width="110" height="107" viewBox="0 0 110 107" fill="none" xmlns="http://www.w3.org/2000/svg">
<path fill-rule="evenodd" clip-rule="evenodd" d="M6.875 53.5C6.875 65.9155 11.9453 77.8224 20.9705 86.6014C29.9957 95.3805 42.2365 100.312 55 100.312C67.7635 100.312 80.0043 95.3805 89.0295 86.6014C98.0547 77.8224 103.125 65.9155 103.125 53.5C103.125 41.0846 98.0547 29.1776 89.0295 20.3986C80.0043 11.6195 67.7635 6.6875 55 6.6875C42.2365 6.6875 29.9957 11.6195 20.9705 20.3986C11.9453 29.1776 6.875 41.0846 6.875 53.5ZM110 53.5C110 67.6891 104.205 81.297 93.8909 91.3302C83.5764 101.363 69.5869 107 55 107C40.4131 107 26.4236 101.363 16.1091 91.3302C5.79463 81.297 0 67.6891 0 53.5C0 39.3109 5.79463 25.703 16.1091 15.6698C26.4236 5.63659 40.4131 0 55 0C69.5869 0 83.5764 5.63659 93.8909 15.6698C104.205 25.703 110 39.3109 110 53.5ZM58.4375 76.9062C58.4375 77.7931 58.0753 78.6436 57.4307 79.2706C56.786 79.8977 55.9117 80.25 55 80.25C54.0883 80.25 53.214 79.8977 52.5693 79.2706C51.9247 78.6436 51.5625 77.7931 51.5625 76.9062V38.1656L36.8088 52.5236C36.1633 53.1515 35.2878 53.5042 34.375 53.5042C33.4622 53.5042 32.5867 53.1515 31.9412 52.5236C31.2958 51.8958 30.9332 51.0442 30.9332 50.1562C30.9332 49.2683 31.2958 48.4167 31.9412 47.7889L52.5662 27.7264C52.8856 27.415 53.2649 27.1679 53.6825 26.9994C54.1001 26.8308 54.5478 26.744 55 26.744C55.4521 26.744 55.8999 26.8308 56.3175 26.9994C56.7351 27.1679 57.1144 27.415 57.4338 27.7264L78.0588 47.7889C78.7042 48.4167 79.0668 49.2683 79.0668 50.1562C79.0668 51.0442 78.7042 51.8958 78.0588 52.5236C77.4133 53.1515 76.5378 53.5042 75.625 53.5042C74.7122 53.5042 73.8367 53.1515 73.1912 52.5236L58.4375 38.1656V76.9062Z" fill="#DDC12B"/>
</svg>
