<svg width="158" height="158" viewBox="0 0 158 158" fill="none" xmlns="http://www.w3.org/2000/svg">
<path fill-rule="evenodd" clip-rule="evenodd" d="M9.875 79C9.875 97.3331 17.1578 114.915 30.1212 127.879C43.0847 140.842 60.6669 148.125 79 148.125C97.3331 148.125 114.915 140.842 127.879 127.879C140.842 114.915 148.125 97.3331 148.125 79C148.125 60.6669 140.842 43.0847 127.879 30.1212C114.915 17.1578 97.3331 9.875 79 9.875C60.6669 9.875 43.0847 17.1578 30.1212 30.1212C17.1578 43.0847 9.875 60.6669 9.875 79ZM158 79C158 99.9521 149.677 120.046 134.861 134.861C120.046 149.677 99.9521 158 79 158C58.0479 158 37.9539 149.677 23.1386 134.861C8.32319 120.046 0 99.9521 0 79C0 58.0479 8.32319 37.9539 23.1386 23.1386C37.9539 8.32319 58.0479 0 79 0C99.9521 0 120.046 8.32319 134.861 23.1386C149.677 37.9539 158 58.0479 158 79ZM83.9375 113.562C83.9375 114.872 83.4173 116.128 82.4913 117.054C81.5654 117.98 80.3095 118.5 79 118.5C77.6905 118.5 76.4346 117.98 75.5087 117.054C74.5827 116.128 74.0625 114.872 74.0625 113.562V56.3566L52.8708 77.5583C51.9436 78.4854 50.6862 79.0062 49.375 79.0062C48.0638 79.0062 46.8064 78.4854 45.8792 77.5583C44.9521 76.6311 44.4313 75.3737 44.4313 74.0625C44.4313 72.7513 44.9521 71.4939 45.8792 70.5667L75.5042 40.9417C75.9629 40.4819 76.5078 40.1171 77.1076 39.8682C77.7075 39.6193 78.3505 39.4912 79 39.4912C79.6495 39.4912 80.2925 39.6193 80.8924 39.8682C81.4922 40.1171 82.0371 40.4819 82.4958 40.9417L112.121 70.5667C113.048 71.4939 113.569 72.7513 113.569 74.0625C113.569 75.3737 113.048 76.6311 112.121 77.5583C111.194 78.4854 109.936 79.0062 108.625 79.0062C107.314 79.0062 106.056 78.4854 105.129 77.5583L83.9375 56.3566V113.562Z" fill="#50D546"/>
</svg>
