<svg width="20" height="20" viewBox="0 0 20 20" fill="none" xmlns="http://www.w3.org/2000/svg">
<g clip-path="url(#clip0_308_310)">
<path d="M14.3915 4.17417L12.6223 1.14333C12.5381 0.999167 12.3998 0.894167 12.2381 0.8525C12.0773 0.8125 11.9048 0.835834 11.7615 0.921667L6.35315 4.16667L14.3915 4.17417Z" fill="black"/>
<path d="M2.5 4.99999C2.04167 4.99999 1.66667 4.62499 1.66667 4.16666C1.66667 3.70832 2.04167 3.33332 2.5 3.33332H5.30833L8.09167 1.66666H2.5C1.26667 1.66666 0.241667 2.56666 0.0416667 3.74999C0.025 3.81666 0 3.88332 0 3.95832V16.6667C0 18.0417 1.125 19.1667 2.5 19.1667H16.6667C17.5833 19.1667 18.3333 18.4167 18.3333 17.5V15.8333H16.25C14.1833 15.8333 12.5 14.15 12.5 12.0833C12.5 10.0167 14.1833 8.33332 16.25 8.33332H18.3333V6.66666C18.3333 5.74999 17.5833 4.99999 16.6667 4.99999H2.5ZM15.8333 3.33332C15.8333 2.49166 15.2083 1.79166 14.3917 1.68332L15.8333 4.16666V3.33332Z" fill="black"/>
<path d="M19.375 9.58334H16.25C14.8717 9.58334 13.75 10.705 13.75 12.0833C13.75 13.4617 14.8717 14.5833 16.25 14.5833H19.375C19.72 14.5833 20 14.3033 20 13.9583V10.2083C20 9.86334 19.72 9.58334 19.375 9.58334ZM16.25 12.9167C15.79 12.9167 15.4167 12.5433 15.4167 12.0833C15.4167 11.6233 15.79 11.25 16.25 11.25C16.71 11.25 17.0833 11.6233 17.0833 12.0833C17.0833 12.5433 16.71 12.9167 16.25 12.9167Z" fill="black"/>
</g>
<defs>
<clipPath id="clip0_308_310">
<rect width="20" height="20" rx="5" fill="white"/>
</clipPath>
</defs>
</svg>
