<svg width="20" height="20" viewBox="0 0 20 20" fill="none" xmlns="http://www.w3.org/2000/svg">
<g clip-path="url(#clip0_303_4)">
<path d="M14.3915 4.40721L12.6223 1.49761C12.5381 1.35921 12.3998 1.25841 12.2381 1.21841C12.0773 1.18001 11.9048 1.20241 11.7615 1.28481L6.35315 4.40001L14.3915 4.40721Z" fill="white"/>
<path d="M2.5 5.2C2.04167 5.2 1.66667 4.84 1.66667 4.4C1.66667 3.96 2.04167 3.6 2.5 3.6H5.30833L8.09167 2H2.5C1.26667 2 0.241667 2.864 0.0416667 4C0.025 4.064 0 4.128 0 4.2V16.4C0 17.72 1.125 18.8 2.5 18.8H16.6667C17.5833 18.8 18.3333 18.08 18.3333 17.2V15.6H16.25C14.1833 15.6 12.5 13.984 12.5 12C12.5 10.016 14.1833 8.4 16.25 8.4H18.3333V6.8C18.3333 5.92 17.5833 5.2 16.6667 5.2H2.5ZM15.8333 3.6C15.8333 2.792 15.2083 2.12 14.3917 2.016L15.8333 4.4V3.6Z" fill="white"/>
<path d="M19.375 9.60004H16.25C14.8717 9.60004 13.75 10.6768 13.75 12C13.75 13.3232 14.8717 14.4 16.25 14.4H19.375C19.72 14.4 20 14.1312 20 13.8V10.2C20 9.86884 19.72 9.60004 19.375 9.60004ZM16.25 12.8C15.79 12.8 15.4167 12.4416 15.4167 12C15.4167 11.5584 15.79 11.2 16.25 11.2C16.71 11.2 17.0833 11.5584 17.0833 12C17.0833 12.4416 16.71 12.8 16.25 12.8Z" fill="white"/>
</g>
<defs>
<clipPath id="clip0_303_4">
<rect y="0.400024" width="20" height="19.2" rx="5" fill="white"/>
</clipPath>
</defs>
</svg>
