<svg width="33" height="32" viewBox="0 0 33 32" fill="none" xmlns="http://www.w3.org/2000/svg">
<g clip-path="url(#clip0_489_6763)">
<rect x="0.773682" width="31.3396" height="31.3396" rx="15.6698" fill="white"/>
<path d="M20.6626 24.1071H12.225C11.1061 24.1071 10.0331 23.6626 9.24188 22.8715C8.4507 22.0803 8.00623 21.0072 8.00623 19.8883V11.4507C8.00623 10.3318 8.4507 9.25877 9.24188 8.46759C10.0331 7.67641 11.1061 7.23193 12.225 7.23193H20.6626C21.7815 7.23193 22.8546 7.67641 23.6457 8.46759C24.4369 9.25877 24.8814 10.3318 24.8814 11.4507V19.8883C24.8814 21.0072 24.4369 22.0803 23.6457 22.8715C22.8546 23.6626 21.7815 24.1071 20.6626 24.1071ZM12.225 8.91945C11.554 8.92038 10.9107 9.18737 10.4362 9.66187C9.96166 10.1364 9.69467 10.7797 9.69374 11.4507V19.8883C9.69467 20.5594 9.96166 21.2027 10.4362 21.6772C10.9107 22.1517 11.554 22.4187 12.225 22.4196H20.6626C21.3337 22.4187 21.977 22.1517 22.4515 21.6772C22.926 21.2027 23.193 20.5594 23.1939 19.8883V11.4507C23.193 10.7797 22.926 10.1364 22.4515 9.66187C21.977 9.18737 21.3337 8.92038 20.6626 8.91945H12.225Z" fill="black"/>
<path d="M16.4434 20.4508C15.4978 20.4508 14.5734 20.1704 13.7871 19.645C13.0008 19.1196 12.388 18.3729 12.0261 17.4992C11.6642 16.6255 11.5695 15.6642 11.754 14.7367C11.9385 13.8092 12.3939 12.9573 13.0626 12.2886C13.7312 11.6199 14.5832 11.1645 15.5107 10.9801C16.4381 10.7956 17.3995 10.8903 18.2732 11.2521C19.1468 11.614 19.8936 12.2269 20.419 13.0131C20.9443 13.7994 21.2247 14.7238 21.2247 15.6695C21.2238 16.9373 20.7198 18.1529 19.8233 19.0493C18.9268 19.9458 17.7112 20.4499 16.4434 20.4508ZM16.4434 12.5757C15.8316 12.5757 15.2334 12.7572 14.7246 13.0971C14.2159 13.437 13.8193 13.9202 13.5852 14.4855C13.351 15.0509 13.2897 15.6729 13.4091 16.2731C13.5285 16.8732 13.8231 17.4244 14.2558 17.8571C14.6885 18.2898 15.2397 18.5844 15.8399 18.7038C16.44 18.8232 17.0621 18.7619 17.6274 18.5278C18.1927 18.2936 18.6759 17.8971 19.0158 17.3883C19.3558 16.8795 19.5372 16.2814 19.5372 15.6695C19.5363 14.8492 19.21 14.0629 18.6301 13.4829C18.0501 12.9029 17.2637 12.5766 16.4434 12.5757Z" fill="black"/>
<path d="M21.2256 12.0137C21.6916 12.0137 22.0693 11.6359 22.0693 11.1699C22.0693 10.7039 21.6916 10.3262 21.2256 10.3262C20.7596 10.3262 20.3818 10.7039 20.3818 11.1699C20.3818 11.6359 20.7596 12.0137 21.2256 12.0137Z" fill="black"/>
</g>
<defs>
<clipPath id="clip0_489_6763">
<rect width="31.3396" height="31.3396" fill="white" transform="translate(0.773682)"/>
</clipPath>
</defs>
</svg>
