<svg width="32" height="32" viewBox="0 0 32 32" fill="none" xmlns="http://www.w3.org/2000/svg">
<rect x="0.6604" width="31.3396" height="31.3396" rx="15.6698" fill="white"/>
<path d="M12.1332 9.95506C12.133 10.3576 11.9729 10.7436 11.6881 11.0281C11.4034 11.3126 11.0172 11.4723 10.6147 11.4721C10.2121 11.4719 9.82616 11.3118 9.54167 11.027C9.25717 10.7422 9.09746 10.3561 9.09766 9.95354C9.09786 9.551 9.25796 9.16503 9.54274 8.88053C9.82752 8.59604 10.2137 8.43632 10.6162 8.43652C11.0187 8.43672 11.4047 8.59683 11.6892 8.88161C11.9737 9.16639 12.1334 9.55252 12.1332 9.95506ZM12.1787 12.596H9.14319V22.0973H12.1787V12.596ZM16.9749 12.596H13.9546V22.0973H16.9446V17.1114C16.9446 14.3339 20.5645 14.0758 20.5645 17.1114V22.0973H23.5621V16.0793C23.5621 11.397 18.2043 11.5715 16.9446 13.8709L16.9749 12.596Z" fill="black"/>
</svg>
