<svg width="28" height="27" viewBox="0 0 28 27" fill="none" xmlns="http://www.w3.org/2000/svg">
<g clip-path="url(#clip0_690_783)">
<path d="M27.3509 0L15.3364 8.95585L17.5706 3.67787L27.3509 0Z" fill="#E17726"/>
<path d="M0.677246 0.010498L10.4315 3.67845L12.553 9.02552L0.677246 0.010498Z" fill="#E27625"/>
<path d="M22.516 19.0464L27.8262 19.1482L25.9704 25.4995L19.4907 23.7023L22.516 19.0464Z" fill="#E27625"/>
<path d="M5.48401 19.0464L8.49794 23.7023L2.02918 25.4996L0.18457 19.1482L5.48401 19.0464Z" fill="#E27625"/>
<path d="M12.2643 7.66357L12.4814 14.7246L5.98779 14.427L7.83481 11.6197L7.85822 11.5927L12.2643 7.66357Z" fill="#E27625"/>
<path d="M15.6686 7.58472L20.142 11.5928L20.1652 11.6197L22.0123 14.427L15.52 14.7245L15.6686 7.58472Z" fill="#E27625"/>
<path d="M8.68836 19.0669L12.2341 21.8501L8.11523 23.8533L8.68836 19.0669Z" fill="#E27625"/>
<path d="M19.3122 19.0664L19.8735 23.8534L15.7661 21.8498L19.3122 19.0664Z" fill="#E27625"/>
<path d="M15.8569 21.5876L20.0249 23.6208L16.1479 25.477L16.1881 24.2502L15.8569 21.5876Z" fill="#D5BFB2"/>
<path d="M12.142 21.5886L11.8238 24.2302L11.85 25.4756L7.96387 23.6209L12.142 21.5886Z" fill="#D5BFB2"/>
<path d="M10.9383 15.6462L12.0275 17.9522L8.31934 16.8578L10.9383 15.6462Z" fill="#233447"/>
<path d="M17.0616 15.6462L19.6929 16.8577L15.9727 17.9518L17.0616 15.6462Z" fill="#233447"/>
<path d="M8.97171 19.0432L8.37234 24.006L5.15967 19.1517L8.97171 19.0432Z" fill="#CC6228"/>
<path d="M19.0288 19.0432L22.841 19.1517L19.6163 24.0062L19.0288 19.0432Z" fill="#CC6228"/>
<path d="M22.1058 14.1462L19.3315 16.9946L17.1925 16.0099L16.1684 18.1788L15.4971 14.4491L22.1058 14.1462Z" fill="#CC6228"/>
<path d="M5.89258 14.1462L12.5027 14.4492L11.8312 18.1788L10.8069 16.0102L8.67923 16.9947L5.89258 14.1462Z" fill="#CC6228"/>
<path d="M5.70557 13.5618L8.84441 16.7705L8.95313 19.9383L5.70557 13.5618Z" fill="#E27525"/>
<path d="M22.2974 13.5562L19.0439 19.9439L19.1664 16.7706L22.2974 13.5562Z" fill="#E27525"/>
<path d="M12.3491 13.7573L12.4754 14.5584L12.7876 16.5538L12.5869 22.683L11.638 17.7594L11.6377 17.7085L12.3491 13.7573Z" fill="#E27525"/>
<path d="M15.649 13.7461L16.3622 17.7084L16.3619 17.7593L15.4107 22.6952L15.373 21.4606L15.2246 16.5175L15.649 13.7461Z" fill="#E27525"/>
<path d="M19.4457 16.6431L19.3396 19.3953L16.0283 21.9942L15.3589 21.5178L16.1092 17.6244L19.4457 16.6431Z" fill="#F5841F"/>
<path d="M8.56592 16.6431L11.8909 17.6244L12.6412 21.5178L11.9719 21.9942L8.66042 19.3949L8.56592 16.6431Z" fill="#F5841F"/>
<path d="M7.33008 23.0129L11.5664 25.0351L11.5485 24.1715L11.9028 23.8581H16.0957L16.463 24.1704L16.4359 25.0333L20.6454 23.018L18.597 24.7232L16.1202 26.4369H11.8689L9.39377 24.7162L7.33008 23.0129Z" fill="#C0AC9D"/>
<path d="M15.5537 21.3186L16.1526 21.7448L16.5036 24.566L15.9957 24.1339H12.0061L11.5078 24.5747L11.8473 21.745L12.4465 21.3186H15.5537Z" fill="#161616"/>
<path d="M26.558 0.247803L28.0002 4.6064L27.0995 9.01347L27.7409 9.51184L26.873 10.1789L27.5253 10.6864L26.6616 11.4788L27.1918 11.8656L25.7846 13.5213L20.0129 11.8283L19.9629 11.8013L15.8037 8.26675L26.558 0.247803Z" fill="#763E1A"/>
<path d="M1.44222 0.247803L12.1966 8.26675L8.03731 11.8013L7.98733 11.8283L2.21561 13.5213L0.808281 11.8656L1.33809 11.4791L0.474906 10.6864L1.12591 10.1796L0.245 9.51052L0.910547 9.01182L0 4.60662L1.44222 0.247803Z" fill="#763E1A"/>
<path d="M19.7305 11.4583L25.8459 13.2521L27.8327 19.4208H22.5911L18.9795 19.4666L21.606 14.3091L19.7305 11.4583Z" fill="#F5841F"/>
<path d="M8.26946 11.4583L6.39357 14.3091L9.02043 19.4666L5.41051 19.4208H0.178223L2.15386 13.2521L8.26946 11.4583Z" fill="#F5841F"/>
<path d="M17.8702 3.64855L16.1596 8.30266L15.7967 14.5898L15.6578 16.5605L15.6469 21.5946H12.3534L12.3426 16.57L12.2033 14.5882L11.8402 8.30266L10.1299 3.64844L17.8702 3.64855Z" fill="#F5841F"/>
</g>
<defs>
<clipPath id="clip0_690_783">
<rect width="28" height="26.4444" fill="white"/>
</clipPath>
</defs>
</svg>
