<svg width="18" height="22" viewBox="0 0 18 22" fill="none" xmlns="http://www.w3.org/2000/svg">
<path d="M14.8835 10.7954L15.1993 7.00519H15.7521C16.1703 7.00519 16.5094 6.66607 16.5094 6.24785V4.86578C16.5094 3.56237 15.449 2.50193 14.1456 2.50193H11.5112V2.15207C11.5112 0.965333 10.5457 0 9.35911 0H7.15022C5.96356 0 4.99822 0.965333 4.99822 2.152V2.50185H2.36385C1.06044 2.50185 0 3.5623 0 4.8657V6.24778C0 6.666 0.339111 7.00511 0.757333 7.00511H1.31007L2.33911 19.3556C2.46267 20.8384 3.72511 22 5.21311 22H11.296C12.7663 22 14.0156 20.8657 14.1644 19.4081C16.2136 18.9855 17.759 17.1673 17.759 14.9948C17.759 13.0851 16.5643 11.4503 14.8835 10.7954ZM6.51289 2.152C6.51289 1.80059 6.79882 1.51467 7.15022 1.51467H9.35911C9.71059 1.51467 9.99652 1.80059 9.99652 2.152V2.50185H6.51289V2.152V2.152ZM1.51452 5.49059V4.86578C1.51452 4.39748 1.89548 4.01652 2.36378 4.01652H14.1455C14.6138 4.01652 14.9947 4.39748 14.9947 4.86578V5.49059H1.51452ZM11.2961 20.4853H5.21319C4.50667 20.4853 3.90726 19.9339 3.84859 19.2298L2.82985 7.00519H13.6794L13.3888 10.4923C13.3436 10.491 13.2984 10.4888 13.2529 10.4888C10.7682 10.4888 8.74689 12.5102 8.74689 14.9948C8.74689 17.265 10.4347 19.1474 12.6212 19.4556C12.4678 20.0481 11.925 20.4853 11.2961 20.4853ZM13.2529 17.9862C11.6034 17.9862 10.2615 16.6443 10.2615 14.9948C10.2615 13.3453 11.6034 12.0034 13.2529 12.0034C14.9024 12.0034 16.2443 13.3453 16.2443 14.9948C16.2443 16.6443 14.9024 17.9862 13.2529 17.9862Z" fill="white"/>
<path d="M14.324 14.9949L15.0381 14.2808C15.3337 13.9851 15.3337 13.5055 15.0379 13.2098C14.7421 12.9141 14.2627 12.9141 13.9669 13.2098L13.2528 13.9239L12.5387 13.2098C12.2429 12.9141 11.7635 12.9141 11.4677 13.2098C11.1719 13.5056 11.1719 13.9851 11.4677 14.2808L12.1818 14.9949L11.4677 15.709C11.1719 16.0048 11.1719 16.4843 11.4677 16.78C11.6156 16.9279 11.8094 17.0018 12.0032 17.0018C12.1971 17.0018 12.3909 16.9279 12.5388 16.78L13.2529 16.066L13.967 16.78C14.1149 16.9279 14.3087 17.0018 14.5025 17.0018C14.6964 17.0018 14.8902 16.9279 15.0381 16.78C15.3339 16.4843 15.3339 16.0048 15.0381 15.709L14.324 14.9949Z" fill="white"/>
</svg>
