<svg width="8" height="14" viewBox="0 0 8 14" fill="none" xmlns="http://www.w3.org/2000/svg">
<path d="M1.16435 7.02126L1.16434 7.02127C1.15043 7.04548 1.14141 7.07091 1.13706 7.09763C1.12712 7.15866 1.14171 7.22144 1.18451 7.27802C1.22691 7.33305 1.29118 7.37214 1.36905 7.38483L3.39266 7.71452L3.59006 7.74668L3.5579 7.94408L2.76207 12.8288C2.74358 12.9423 2.81698 13.0699 2.96664 13.1103C3.09961 13.1439 3.22394 13.0868 3.27766 12.9933L6.84884 6.77556L6.84915 6.77502C6.89436 6.69686 6.88694 6.59301 6.83196 6.52143L6.83081 6.51991C6.78878 6.4641 6.72415 6.42416 6.64473 6.41122L4.62098 6.08151L4.42358 6.04935L4.45574 5.85195L5.2516 0.96704C5.27002 0.85395 5.19756 0.726072 5.04375 0.684807C5.03488 0.682639 5.02758 0.681142 5.01984 0.679881L5.01975 0.679866C4.89697 0.659807 4.78577 0.716169 4.73613 0.802425L1.16435 7.02126ZM1.16435 7.02126L4.73609 0.802503L1.16435 7.02126Z" fill="white" stroke="white" stroke-width="0.4"/>
</svg>
