<svg width="33" height="32" viewBox="0 0 33 32" fill="none" xmlns="http://www.w3.org/2000/svg">
<g clip-path="url(#clip0_489_6758)">
<rect x="0.88681" width="31.3396" height="31.3396" rx="15.6698" fill="white"/>
<path d="M22.6783 10.7631C23.0732 10.5601 23.4232 10.2797 23.7074 9.93864C23.9916 9.59756 24.2043 9.20277 24.3328 8.77778C23.671 9.43955 22.2647 9.65876 22.2647 9.65876C21.7785 9.06128 21.099 8.65217 20.3435 8.50198C19.5879 8.35179 18.8036 8.46992 18.1258 8.83602C17.448 9.20211 16.9192 9.79322 16.6306 10.5074C16.3419 11.2216 16.3115 12.0142 16.5445 12.7484H16.3915C15.0437 12.659 13.7294 12.2891 12.5328 11.6623C11.3363 11.0356 10.2838 10.1658 9.4429 9.10867C9.4429 9.10867 7.45758 11.7558 10.4356 13.7411C10.4356 13.7411 9.11201 13.7411 8.78113 13.4102C8.78113 13.4102 8.45024 15.3955 11.4282 16.719C11.2204 16.8137 10.9948 16.8627 10.7664 16.8627C10.5381 16.8627 10.3125 16.8137 10.1047 16.719C10.1047 17.9971 11.4365 19.0352 13.0826 19.0352C13.0826 19.9493 10.8616 20.6897 8.11935 20.6897C12.4209 23.6676 22.6783 23.0059 23.3401 11.7558L24.9945 10.1013L22.6783 10.7631Z" fill="black"/>
</g>
<defs>
<clipPath id="clip0_489_6758">
<rect width="31.3396" height="31.3396" fill="white" transform="translate(0.88681)"/>
</clipPath>
</defs>
</svg>
