<svg width="14" height="19" viewBox="0 0 14 19" fill="none" xmlns="http://www.w3.org/2000/svg">
<path d="M0.517045 18.1094V0.654814H7.50568C8.78977 0.654814 9.8608 0.845155 10.7188 1.22584C11.5767 1.60652 12.2216 2.13493 12.6534 2.81106C13.0852 3.48152 13.3011 4.25425 13.3011 5.12925C13.3011 5.81106 13.1648 6.4105 12.892 6.92754C12.6193 7.43891 12.2443 7.85936 11.767 8.18891C11.2955 8.51277 10.7557 8.74288 10.1477 8.87925V9.0497C10.8125 9.07811 11.4347 9.26561 12.0142 9.6122C12.5994 9.95879 13.0739 10.4446 13.4375 11.0696C13.8011 11.6889 13.983 12.4275 13.983 13.2855C13.983 14.2116 13.7528 15.0383 13.2926 15.7656C12.8381 16.4872 12.1648 17.0582 11.2727 17.4787C10.3807 17.8991 9.28125 18.1094 7.97443 18.1094H0.517045ZM4.20739 15.0923H7.21591C8.24432 15.0923 8.99432 14.8963 9.46591 14.5042C9.9375 14.1065 10.1733 13.5781 10.1733 12.919C10.1733 12.4361 10.0568 12.0099 9.82386 11.6406C9.59091 11.2713 9.25852 10.9815 8.8267 10.7713C8.40057 10.5611 7.89205 10.456 7.30114 10.456H4.20739V15.0923ZM4.20739 7.95879H6.94318C7.44886 7.95879 7.89773 7.87072 8.28977 7.69459C8.6875 7.51277 9 7.25709 9.22727 6.92754C9.46023 6.598 9.5767 6.20311 9.5767 5.74288C9.5767 5.1122 9.35227 4.60368 8.90341 4.21731C8.46023 3.83095 7.82955 3.63777 7.01136 3.63777H4.20739V7.95879Z" fill="white"/>
</svg>
