<svg width="13" height="17" viewBox="0 0 13 17" fill="none" xmlns="http://www.w3.org/2000/svg">
<path d="M4.31641 0.647987L4.44531 0.214394H12.2031L12.0508 0.647987C11.3477 0.647987 10.8086 0.804237 10.4336 1.11674C10.0664 1.42924 9.74219 2.08158 9.46094 3.07377L6.55469 13.2456C6.34375 13.9644 6.23828 14.4449 6.23828 14.687C6.23828 14.9683 6.34766 15.187 6.56641 15.3433C6.84766 15.5464 7.37891 15.6558 8.16016 15.6714L8.04297 16.105H0.15625L0.285156 15.6714C1.07422 15.6714 1.65234 15.523 2.01953 15.2261C2.38672 14.9214 2.71875 14.2613 3.01562 13.2456L5.94531 3.07377C6.125 2.44877 6.21484 1.97611 6.21484 1.6558C6.21484 1.36674 6.10547 1.14017 5.88672 0.976112C5.66797 0.81205 5.14453 0.702675 4.31641 0.647987Z" fill="white"/>
</svg>
