<svg width="18" height="15" viewBox="0 0 18 15" fill="none" xmlns="http://www.w3.org/2000/svg">
<path d="M16.7148 0.980469V1.9375C15.3607 2.43229 14.2995 3.21354 13.5312 4.28125C12.763 5.33594 12.3789 6.4362 12.3789 7.58203C12.3789 7.82943 12.418 8.01172 12.4961 8.12891C12.5482 8.20703 12.6068 8.24609 12.6719 8.24609C12.737 8.24609 12.8346 8.20052 12.9648 8.10938C13.3815 7.8099 13.9089 7.66016 14.5469 7.66016C15.2891 7.66016 15.9466 7.96615 16.5195 8.57812C17.0924 9.17708 17.3789 9.89323 17.3789 10.7266C17.3789 11.599 17.0469 12.3672 16.3828 13.0312C15.7318 13.6953 14.9375 14.0273 14 14.0273C12.9062 14.0273 11.9622 13.5781 11.168 12.6797C10.3737 11.7812 9.97656 10.5768 9.97656 9.06641C9.97656 7.30859 10.5169 5.73307 11.5977 4.33984C12.6784 2.94661 14.3841 1.82682 16.7148 0.980469ZM7.32031 0.980469V1.9375C5.96615 2.43229 4.90495 3.21354 4.13672 4.28125C3.36849 5.33594 2.98438 6.4362 2.98438 7.58203C2.98438 7.82943 3.02344 8.01172 3.10156 8.12891C3.15365 8.20703 3.21224 8.24609 3.27734 8.24609C3.34245 8.24609 3.4401 8.20052 3.57031 8.10938C3.98698 7.8099 4.51432 7.66016 5.15234 7.66016C5.89453 7.66016 6.55208 7.96615 7.125 8.57812C7.69792 9.17708 7.98438 9.89323 7.98438 10.7266C7.98438 11.599 7.65234 12.3672 6.98828 13.0312C6.33724 13.6953 5.54297 14.0273 4.60547 14.0273C3.51172 14.0273 2.56771 13.5781 1.77344 12.6797C0.979167 11.7812 0.582031 10.5768 0.582031 9.06641C0.582031 7.30859 1.1224 5.73307 2.20312 4.33984C3.28385 2.94661 4.98958 1.82682 7.32031 0.980469Z" fill="white"/>
</svg>
