<svg width="19" height="30" viewBox="0 0 19 30" fill="none" xmlns="http://www.w3.org/2000/svg">
<path d="M12.9858 11.6747C12.9176 10.9872 12.625 10.4531 12.108 10.0724C11.5909 9.69175 10.8892 9.5014 10.0028 9.5014C9.40057 9.5014 8.89205 9.58663 8.47727 9.75709C8.0625 9.92186 7.74432 10.152 7.52273 10.4474C7.30682 10.7429 7.19886 11.0781 7.19886 11.4531C7.1875 11.7656 7.25284 12.0383 7.39489 12.2713C7.54261 12.5042 7.74432 12.706 8 12.8764C8.25568 13.0412 8.55114 13.1861 8.88636 13.3111C9.22159 13.4304 9.57955 13.5327 9.96023 13.6179L11.5284 13.9929C12.2898 14.1633 12.9886 14.3906 13.625 14.6747C14.2614 14.9588 14.8125 15.3082 15.2784 15.723C15.7443 16.1378 16.1051 16.6264 16.3608 17.1889C16.6222 17.7514 16.7557 18.3963 16.7614 19.1236C16.7557 20.1917 16.483 21.1179 15.9432 21.902C15.4091 22.6804 14.6364 23.2855 13.625 23.7173C12.6193 24.1435 11.4063 24.3565 9.9858 24.3565C8.5767 24.3565 7.34943 24.1406 6.30398 23.7088C5.2642 23.277 4.4517 22.6378 3.86648 21.7912C3.28693 20.9389 2.98295 19.8849 2.95455 18.6292H6.52557C6.56534 19.2145 6.73295 19.7031 7.02841 20.0952C7.32955 20.4815 7.73011 20.7741 8.23011 20.973C8.7358 21.1662 9.30682 21.2628 9.94318 21.2628C10.5682 21.2628 11.1108 21.1719 11.571 20.99C12.0369 20.8082 12.3977 20.5554 12.6534 20.2315C12.9091 19.9077 13.0369 19.5355 13.0369 19.115C13.0369 18.723 12.9205 18.3935 12.6875 18.1264C12.4602 17.8594 12.125 17.6321 11.6818 17.4446C11.2443 17.2571 10.7074 17.0866 10.071 16.9332L8.17045 16.456C6.69886 16.098 5.53693 15.5383 4.68466 14.777C3.83239 14.0156 3.40909 12.99 3.41477 11.7003C3.40909 10.6434 3.69034 9.72015 4.25852 8.93038C4.83239 8.14061 5.61932 7.52413 6.61932 7.08095C7.61932 6.63777 8.75568 6.41618 10.0284 6.41618C11.3239 6.41618 12.4545 6.63777 13.4205 7.08095C14.392 7.52413 15.1477 8.14061 15.6875 8.93038C16.2273 9.72015 16.5057 10.6349 16.5227 11.6747H12.9858Z" fill="white"/>
<rect x="0.25" y="14.2986" width="18.5" height="1.49479" fill="white" stroke="black" stroke-width="0.5"/>
</svg>
